<ttFont>
    <TTGlyph name=".notdef" xMin="0" yMin="0" xMax="500" yMax="700">
      <contour>
        <pt x="0" y="700" on="1"/>
        <pt x="500" y="700" on="1"/>
        <pt x="500" y="0" on="1"/>
        <pt x="0" y="0" on="1"/>
      </contour>
      <contour>
        <pt x="50" y="650" on="1"/>
        <pt x="50" y="50" on="1"/>
        <pt x="450" y="50" on="1"/>
        <pt x="450" y="650" on="1"/>
      </contour>
      <contour>
        <pt x="229" y="278" on="1"/>
        <pt x="229" y="307" on="0"/>
        <pt x="256" y="345" on="0"/>
        <pt x="283" y="367" on="1"/>
        <pt x="311" y="390" on="0"/>
        <pt x="339" y="431" on="0"/>
        <pt x="339" y="465" on="1"/>
        <pt x="339" y="496" on="0"/>
        <pt x="301" y="552" on="0"/>
        <pt x="250" y="552" on="1"/>
        <pt x="192" y="552" on="0"/>
        <pt x="152" y="485" on="0"/>
        <pt x="152" y="452" on="1"/>
        <pt x="152" y="424" on="1"/>
        <pt x="103" y="424" on="1"/>
        <pt x="99" y="436" on="0"/>
        <pt x="99" y="455" on="1"/>
        <pt x="99" y="478" on="0"/>
        <pt x="120" y="544" on="0"/>
        <pt x="187" y="602" on="0"/>
        <pt x="250" y="602" on="1"/>
        <pt x="313" y="602" on="0"/>
        <pt x="376" y="546" on="0"/>
        <pt x="393" y="486" on="0"/>
        <pt x="393" y="467" on="1"/>
        <pt x="393" y="422" on="0"/>
        <pt x="356" y="364" on="0"/>
        <pt x="326" y="338" on="1"/>
        <pt x="304" y="320" on="0"/>
        <pt x="282" y="290" on="0"/>
        <pt x="282" y="268" on="1"/>
        <pt x="282" y="215" on="1"/>
        <pt x="229" y="215" on="1"/>
      </contour>
      <contour>
        <pt x="225" y="169" on="1"/>
        <pt x="285" y="169" on="1"/>
        <pt x="285" y="99" on="1"/>
        <pt x="225" y="99" on="1"/>
      </contour>
    </TTGlyph>
    <TTGlyph name=".ttfautohint" xMin="0" yMin="0" xMax="0" yMax="0">
      <contour>
        <pt x="0" y="0" on="1"/>
      </contour>
    </TTGlyph>
    <TTGlyph name="A" xMin="16" yMin="0" xMax="485" yMax="688">
      <contour>
        <pt x="351" y="180" on="1"/>
        <pt x="147" y="180" on="1"/>
        <pt x="104" y="0" on="1"/>
        <pt x="16" y="0" on="1"/>
        <pt x="191" y="688" on="1"/>
        <pt x="310" y="688" on="1"/>
        <pt x="485" y="0" on="1"/>
        <pt x="395" y="0" on="1"/>
      </contour>
      <contour>
        <pt x="246" y="590" on="1"/>
        <pt x="166" y="257" on="1"/>
        <pt x="331" y="257" on="1"/>
        <pt x="252" y="590" on="1"/>
      </contour>
    </TTGlyph>
    <TTGlyph name="A.ss01" xMin="63" yMin="0" xMax="458" yMax="696">
      <contour>
        <pt x="370" y="234" on="1"/>
        <pt x="150" y="234" on="1"/>
        <pt x="150" y="0" on="1"/>
        <pt x="63" y="0" on="1"/>
        <pt x="63" y="388" on="1"/>
        <pt x="63" y="521" on="0"/>
        <pt x="87" y="644" on="0"/>
        <pt x="169" y="696" on="0"/>
        <pt x="260" y="696" on="1"/>
        <pt x="352" y="696" on="0"/>
        <pt x="434" y="644" on="0"/>
        <pt x="458" y="521" on="0"/>
        <pt x="458" y="388" on="1"/>
        <pt x="458" y="0" on="1"/>
        <pt x="370" y="0" on="1"/>
      </contour>
      <contour>
        <pt x="370" y="514" on="0"/>
        <pt x="358" y="589" on="0"/>
        <pt x="313" y="618" on="0"/>
        <pt x="260" y="618" on="1"/>
        <pt x="206" y="618" on="0"/>
        <pt x="162" y="589" on="0"/>
        <pt x="150" y="515" on="0"/>
        <pt x="150" y="425" on="1"/>
        <pt x="150" y="315" on="1"/>
        <pt x="370" y="315" on="1"/>
        <pt x="370" y="425" on="1"/>
      </contour>
    </TTGlyph>
    <TTGlyph name="AE" xMin="-6" yMin="0" xMax="651" yMax="688">
      <contour>
        <pt x="343" y="180" on="1"/>
        <pt x="140" y="180" on="1"/>
        <pt x="80" y="0" on="1"/>
        <pt x="-6" y="0" on="1"/>
        <pt x="228" y="688" on="1"/>
        <pt x="651" y="688" on="1"/>
        <pt x="651" y="610" on="1"/>
        <pt x="361" y="610" on="1"/>
        <pt x="398" y="386" on="1"/>
        <pt x="618" y="386" on="1"/>
        <pt x="618" y="308" on="1"/>
        <pt x="411" y="308" on="1"/>
        <pt x="449" y="77" on="1"/>
        <pt x="651" y="77" on="1"/>
        <pt x="651" y="0" on="1"/>
        <pt x="371" y="0" on="1"/>
      </contour>
      <contour>
        <pt x="274" y="590" on="1"/>
        <pt x="166" y="257" on="1"/>
        <pt x="331" y="257" on="1"/>
        <pt x="279" y="590" on="1"/>
      </contour>
    </TTGlyph>
    <TTGlyph name="AEacute" xMin="-6" yMin="0" xMax="651" yMax="888">
      <component glyphName=".ttfautohint" x="0" y="0" flags="0x0"/>
      <component glyphName="AE" x="0" y="0" flags="0x0"/>
      <component glyphName="acutecomb.case" x="454" y="0" flags="0x0"/>
    </TTGlyph>
    <TTGlyph name="Aacute" xMin="16" yMin="0" xMax="485" yMax="892">
      <component glyphName=".ttfautohint" x="16" y="0" flags="0x0"/>
      <component glyphName="A" x="0" y="0" flags="0x0"/>
      <component glyphName="acute" x="199" y="149" flags="0x4"/>
    </TTGlyph>
    <TTGlyph name="Aacute.ss01" xMin="63" yMin="0" xMax="458" yMax="891">
      <component glyphName=".ttfautohint" x="63" y="0" flags="0x0"/>
      <component glyphName="A.ss01" x="0" y="0" flags="0x0"/>
      <component glyphName="acute" x="215" y="148" flags="0x4"/>
    </TTGlyph>
    <TTGlyph name="Abreve" xMin="16" yMin="0" xMax="485" yMax="888">
      <component glyphName=".ttfautohint" x="16" y="0" flags="0x0"/>
      <component glyphName="A" x="0" y="0" flags="0x0"/>
      <component glyphName="uni0306.case" x="375" y="0" flags="0x0"/>
    </TTGlyph>
    <TTGlyph name="Abreve.ss01" xMin="63" yMin="0" xMax="458" yMax="888">
      <component glyphName=".ttfautohint" x="63" y="0" flags="0x0"/>
      <component glyphName="A.ss01" x="0" y="0" flags="0x0"/>
      <component glyphName="uni0306.case" x="384" y="0" flags="0x0"/>
    </TTGlyph>
    <TTGlyph name="Acircumflex" xMin="16" yMin="0" xMax="485" yMax="887">
      <component glyphName=".ttfautohint" x="16" y="0" flags="0x0"/>
      <component glyphName="A" x="0" y="0" flags="0x0"/>
      <component glyphName="circumflex" x="122" y="144" flags="0x4"/>
    </TTGlyph>
    <TTGlyph name="Acircumflex.ss01" xMin="63" yMin="0" xMax="458" yMax="886">
      <component glyphName=".ttfautohint" x="63" y="0" flags="0x0"/>
      <component glyphName="A.ss01" x="0" y="0" flags="0x0"/>
      <component glyphName="circumflex" x="133" y="143" flags="0x4"/>
    </TTGlyph>
    <TTGlyph name="Adieresis" xMin="16" yMin="0" xMax="485" yMax="859">
      <component glyphName=".ttfautohint" x="16" y="0" flags="0x0"/>
      <component glyphName="A" x="0" y="0" flags="0x0"/>
      <component glyphName="dieresis" x="106" y="129" flags="0x4"/>
    </TTGlyph>
    <TTGlyph name="Adieresis.ss01" xMin="63" yMin="0" xMax="458" yMax="856">
      <component glyphName=".ttfautohint" x="63" y="0" flags="0x0"/>
      <component glyphName="A.ss01" x="0" y="0" flags="0x0"/>
      <component glyphName="dieresis" x="118" y="126" flags="0x4"/>
    </TTGlyph>
    <TTGlyph name="Agrave" xMin="16" yMin="0" xMax="485" yMax="892">
      <component glyphName=".ttfautohint" x="16" y="0" flags="0x0"/>
      <component glyphName="A" x="0" y="0" flags="0x0"/>
      <component glyphName="grave" x="146" y="149" flags="0x4"/>
    </TTGlyph>
    <TTGlyph name="Agrave.ss01" xMin="63" yMin="0" xMax="458" yMax="891">
      <component glyphName=".ttfautohint" x="63" y="0" flags="0x0"/>
      <component glyphName="A.ss01" x="0" y="0" flags="0x0"/>
      <component glyphName="grave" x="152" y="148" flags="0x4"/>
    </TTGlyph>
    <TTGlyph name="Amacron" xMin="16" yMin="0" xMax="485" yMax="888">
      <component glyphName=".ttfautohint" x="16" y="0" flags="0x0"/>
      <component glyphName="A" x="0" y="0" flags="0x0"/>
      <component glyphName="uni0304.case" x="406" y="0" flags="0x0"/>
    </TTGlyph>
    <TTGlyph name="Amacron.ss01" xMin="63" yMin="0" xMax="458" yMax="888">
      <component glyphName=".ttfautohint" x="63" y="0" flags="0x0"/>
      <component glyphName="A.ss01" x="0" y="0" flags="0x0"/>
      <component glyphName="uni0304.case" x="415" y="0" flags="0x0"/>
    </TTGlyph>
    <TTGlyph name="Aogonek" xMin="16" yMin="-196" xMax="486" yMax="688">
      <contour>
        <pt x="408" y="-142" on="0"/>
        <pt x="452" y="-142" on="1"/>
        <pt x="462" y="-142" on="0"/>
        <pt x="468" y="-141" on="1"/>
        <pt x="468" y="-194" on="1"/>
        <pt x="436" y="-196" on="0"/>
        <pt x="429" y="-196" on="1"/>
        <pt x="338" y="-196" on="0"/>
        <pt x="338" y="-118" on="1"/>
        <pt x="338" y="-89" on="0"/>
        <pt x="369" y="-25" on="0"/>
        <pt x="395" y="2" on="1"/>
        <pt x="351" y="179" on="1"/>
        <pt x="147" y="179" on="1"/>
        <pt x="104" y="0" on="1"/>
        <pt x="16" y="0" on="1"/>
        <pt x="191" y="688" on="1"/>
        <pt x="311" y="688" on="1"/>
        <pt x="486" y="0" on="1"/>
        <pt x="462" y="0" on="1"/>
        <pt x="441" y="-20" on="0"/>
        <pt x="408" y="-77" on="0"/>
        <pt x="408" y="-101" on="1"/>
      </contour>
      <contour>
        <pt x="331" y="257" on="1"/>
        <pt x="252" y="590" on="1"/>
        <pt x="247" y="590" on="1"/>
        <pt x="166" y="257" on="1"/>
      </contour>
    </TTGlyph>
    <TTGlyph name="Aogonek.ss01" xMin="63" yMin="-196" xMax="458" yMax="696">
      <contour>
        <pt x="416" y="-20" on="0"/>
        <pt x="383" y="-77" on="0"/>
        <pt x="383" y="-101" on="1"/>
        <pt x="383" y="-142" on="0"/>
        <pt x="427" y="-142" on="1"/>
        <pt x="437" y="-142" on="0"/>
        <pt x="443" y="-141" on="1"/>
        <pt x="443" y="-194" on="1"/>
        <pt x="413" y="-196" on="0"/>
        <pt x="404" y="-196" on="1"/>
        <pt x="313" y="-196" on="0"/>
        <pt x="313" y="-118" on="1"/>
        <pt x="313" y="-89" on="0"/>
        <pt x="344" y="-25" on="0"/>
        <pt x="370" y="2" on="1"/>
        <pt x="370" y="234" on="1"/>
        <pt x="150" y="234" on="1"/>
        <pt x="150" y="0" on="1"/>
        <pt x="63" y="0" on="1"/>
        <pt x="63" y="388" on="1"/>
        <pt x="63" y="521" on="0"/>
        <pt x="87" y="644" on="0"/>
        <pt x="169" y="696" on="0"/>
        <pt x="260" y="696" on="1"/>
        <pt x="352" y="696" on="0"/>
        <pt x="434" y="644" on="0"/>
        <pt x="458" y="521" on="0"/>
        <pt x="458" y="388" on="1"/>
        <pt x="458" y="0" on="1"/>
        <pt x="437" y="0" on="1"/>
      </contour>
      <contour>
        <pt x="370" y="315" on="1"/>
        <pt x="370" y="425" on="1"/>
        <pt x="370" y="514" on="0"/>
        <pt x="358" y="589" on="0"/>
        <pt x="313" y="618" on="0"/>
        <pt x="260" y="618" on="1"/>
        <pt x="206" y="618" on="0"/>
        <pt x="162" y="589" on="0"/>
        <pt x="150" y="515" on="0"/>
        <pt x="150" y="425" on="1"/>
        <pt x="150" y="315" on="1"/>
      </contour>
    </TTGlyph>
    <TTGlyph name="Aring" xMin="16" yMin="0" xMax="485" yMax="879">
      <contour>
        <pt x="485" y="0" on="1"/>
        <pt x="395" y="0" on="1"/>
        <pt x="351" y="180" on="1"/>
        <pt x="147" y="180" on="1"/>
        <pt x="104" y="0" on="1"/>
        <pt x="16" y="0" on="1"/>
        <pt x="190" y="685" on="1"/>
        <pt x="159" y="693" on="0"/>
        <pt x="142" y="734" on="0"/>
        <pt x="142" y="779" on="1"/>
        <pt x="142" y="819" on="0"/>
        <pt x="155" y="859" on="0"/>
        <pt x="200" y="879" on="0"/>
        <pt x="250" y="879" on="1"/>
        <pt x="300" y="879" on="0"/>
        <pt x="346" y="859" on="0"/>
        <pt x="359" y="819" on="0"/>
        <pt x="359" y="779" on="1"/>
        <pt x="359" y="734" on="0"/>
        <pt x="342" y="694" on="0"/>
        <pt x="311" y="686" on="1"/>
      </contour>
      <contour>
        <pt x="225" y="834" on="0"/>
        <pt x="204" y="824" on="0"/>
        <pt x="198" y="803" on="0"/>
        <pt x="198" y="779" on="1"/>
        <pt x="198" y="755" on="0"/>
        <pt x="204" y="734" on="0"/>
        <pt x="225" y="725" on="0"/>
        <pt x="250" y="725" on="1"/>
        <pt x="275" y="725" on="0"/>
        <pt x="297" y="734" on="0"/>
        <pt x="303" y="755" on="0"/>
        <pt x="303" y="779" on="1"/>
        <pt x="303" y="803" on="0"/>
        <pt x="297" y="824" on="0"/>
        <pt x="275" y="834" on="0"/>
        <pt x="250" y="834" on="1"/>
      </contour>
      <contour>
        <pt x="331" y="257" on="1"/>
        <pt x="252" y="590" on="1"/>
        <pt x="246" y="590" on="1"/>
        <pt x="166" y="257" on="1"/>
      </contour>
    </TTGlyph>
    <TTGlyph name="Aring.ss01" xMin="63" yMin="0" xMax="458" yMax="936">
      <component glyphName=".ttfautohint" x="63" y="0" flags="0x0"/>
      <component glyphName="A.ss01" x="0" y="0" flags="0x0"/>
      <component glyphName="ring" x="146" y="126" flags="0x4"/>
    </TTGlyph>
    <TTGlyph name="Aringacute" xMin="16" yMin="0" xMax="485" yMax="1079">
      <component glyphName=".ttfautohint" x="16" y="0" flags="0x0"/>
      <component glyphName="Aring" x="0" y="0" flags="0x0"/>
      <component glyphName="acutecomb.case" x="359" y="191" flags="0x4"/>
    </TTGlyph>
    <TTGlyph name="Aringacute.ss01" xMin="63" yMin="0" xMax="458" yMax="1095">
      <component glyphName=".ttfautohint" x="63" y="0" flags="0x0"/>
      <component glyphName="A.ss01" x="0" y="0" flags="0x0"/>
      <component glyphName="uni030A.case" x="377" y="0" flags="0x0"/>
      <component glyphName="acutecomb.case" x="371" y="207" flags="0x4"/>
    </TTGlyph>
    <TTGlyph name="Atilde" xMin="16" yMin="0" xMax="485" yMax="875">
      <component glyphName=".ttfautohint" x="16" y="0" flags="0x0"/>
      <component glyphName="A" x="0" y="0" flags="0x0"/>
      <component glyphName="tilde" x="99" y="132" flags="0x4"/>
    </TTGlyph>
    <TTGlyph name="Atilde.ss01" xMin="63" yMin="0" xMax="458" yMax="875">
      <component glyphName=".ttfautohint" x="63" y="0" flags="0x0"/>
      <component glyphName="A.ss01" x="0" y="0" flags="0x0"/>
      <component glyphName="tilde" x="110" y="132" flags="0x4"/>
    </TTGlyph>
    <TTGlyph name="B" xMin="67" yMin="0" xMax="452" yMax="688">
      <contour>
        <pt x="67" y="688" on="1"/>
        <pt x="286" y="688" on="1"/>
        <pt x="371" y="688" on="0"/>
        <pt x="446" y="600" on="0"/>
        <pt x="446" y="515" on="1"/>
        <pt x="446" y="445" on="0"/>
        <pt x="398" y="366" on="0"/>
        <pt x="346" y="353" on="1"/>
        <pt x="346" y="349" on="1"/>
        <pt x="406" y="336" on="0"/>
        <pt x="452" y="255" on="0"/>
        <pt x="452" y="182" on="1"/>
        <pt x="452" y="96" on="0"/>
        <pt x="378" y="0" on="0"/>
        <pt x="283" y="0" on="1"/>
        <pt x="67" y="0" on="1"/>
      </contour>
      <contour>
        <pt x="312" y="388" on="0"/>
        <pt x="358" y="440" on="0"/>
        <pt x="358" y="499" on="1"/>
        <pt x="358" y="542" on="0"/>
        <pt x="342" y="589" on="0"/>
        <pt x="300" y="610" on="0"/>
        <pt x="261" y="610" on="1"/>
        <pt x="155" y="610" on="1"/>
        <pt x="155" y="388" on="1"/>
        <pt x="261" y="388" on="1"/>
      </contour>
      <contour>
        <pt x="323" y="77" on="0"/>
        <pt x="364" y="127" on="0"/>
        <pt x="364" y="192" on="1"/>
        <pt x="364" y="258" on="0"/>
        <pt x="321" y="309" on="0"/>
        <pt x="265" y="309" on="1"/>
        <pt x="155" y="309" on="1"/>
        <pt x="155" y="77" on="1"/>
        <pt x="265" y="77" on="1"/>
      </contour>
    </TTGlyph>
    <TTGlyph name="C" xMin="51" yMin="-8" xMax="373" yMax="696">
      <contour>
        <pt x="351" y="0" on="0"/>
        <pt x="286" y="-8" on="0"/>
        <pt x="258" y="-8" on="1"/>
        <pt x="166" y="-8" on="0"/>
        <pt x="80" y="47" on="0"/>
        <pt x="51" y="191" on="0"/>
        <pt x="51" y="344" on="1"/>
        <pt x="51" y="496" on="0"/>
        <pt x="81" y="640" on="0"/>
        <pt x="166" y="696" on="0"/>
        <pt x="258" y="696" on="1"/>
        <pt x="288" y="696" on="0"/>
        <pt x="352" y="688" on="0"/>
        <pt x="371" y="681" on="1"/>
        <pt x="371" y="609" on="1"/>
        <pt x="322" y="618" on="0"/>
        <pt x="276" y="618" on="1"/>
        <pt x="209" y="618" on="0"/>
        <pt x="156" y="583" on="0"/>
        <pt x="139" y="477" on="0"/>
        <pt x="139" y="344" on="1"/>
        <pt x="139" y="211" on="0"/>
        <pt x="156" y="105" on="0"/>
        <pt x="209" y="70" on="0"/>
        <pt x="276" y="70" on="1"/>
        <pt x="334" y="70" on="0"/>
        <pt x="373" y="79" on="1"/>
        <pt x="373" y="6" on="1"/>
      </contour>
    </TTGlyph>
    <TTGlyph name="Cacute" xMin="51" yMin="-8" xMax="373" yMax="888">
      <component glyphName=".ttfautohint" x="51" y="0" flags="0x0"/>
      <component glyphName="C" x="0" y="0" flags="0x0"/>
      <component glyphName="acutecomb.case" x="312" y="0" flags="0x0"/>
    </TTGlyph>
    <TTGlyph name="Cacute.loclPLK" xMin="51" yMin="-8" xMax="373" yMax="888">
      <component glyphName=".ttfautohint" x="51" y="0" flags="0x0"/>
      <component glyphName="C" x="0" y="0" flags="0x0"/>
      <component glyphName="acute.case.loclPLK" x="156" y="0" flags="0x0"/>
    </TTGlyph>
    <TTGlyph name="Ccaron" xMin="51" yMin="-8" xMax="373" yMax="888">
      <component glyphName=".ttfautohint" x="51" y="0" flags="0x0"/>
      <component glyphName="C" x="0" y="0" flags="0x0"/>
      <component glyphName="uni030C.case" x="332" y="0" flags="0x0"/>
    </TTGlyph>
    <TTGlyph name="Ccedilla" xMin="51" yMin="-190" xMax="373" yMax="696">
      <contour>
        <pt x="334" y="70" on="0"/>
        <pt x="373" y="79" on="1"/>
        <pt x="373" y="6" on="1"/>
        <pt x="351" y="0" on="0"/>
        <pt x="286" y="-8" on="0"/>
        <pt x="258" y="-8" on="1"/>
        <pt x="239" y="-8" on="0"/>
        <pt x="231" y="-7" on="1"/>
        <pt x="193" y="-190" on="1"/>
        <pt x="114" y="-190" on="1"/>
        <pt x="114" y="-185" on="1"/>
        <pt x="173" y="-1" on="1"/>
        <pt x="121" y="11" on="0"/>
        <pt x="69" y="82" on="0"/>
        <pt x="51" y="218" on="0"/>
        <pt x="51" y="344" on="1"/>
        <pt x="51" y="496" on="0"/>
        <pt x="81" y="640" on="0"/>
        <pt x="166" y="696" on="0"/>
        <pt x="258" y="696" on="1"/>
        <pt x="288" y="696" on="0"/>
        <pt x="352" y="688" on="0"/>
        <pt x="371" y="681" on="1"/>
        <pt x="371" y="609" on="1"/>
        <pt x="322" y="618" on="0"/>
        <pt x="276" y="618" on="1"/>
        <pt x="209" y="618" on="0"/>
        <pt x="156" y="583" on="0"/>
        <pt x="139" y="477" on="0"/>
        <pt x="139" y="344" on="1"/>
        <pt x="139" y="211" on="0"/>
        <pt x="156" y="105" on="0"/>
        <pt x="209" y="70" on="0"/>
        <pt x="276" y="70" on="1"/>
      </contour>
    </TTGlyph>
    <TTGlyph name="Ccircumflex" xMin="51" yMin="-8" xMax="373" yMax="888">
      <component glyphName=".ttfautohint" x="51" y="0" flags="0x0"/>
      <component glyphName="C" x="0" y="0" flags="0x0"/>
      <component glyphName="uni0302.case" x="331" y="0" flags="0x0"/>
    </TTGlyph>
    <TTGlyph name="Cdotaccent" xMin="51" yMin="-8" xMax="373" yMax="875">
      <component glyphName=".ttfautohint" x="51" y="0" flags="0x0"/>
      <component glyphName="C" x="0" y="0" flags="0x0"/>
      <component glyphName="uni0307.case" x="257" y="0" flags="0x0"/>
    </TTGlyph>
    <TTGlyph name="D" xMin="67" yMin="0" xMax="452" yMax="688">
      <contour>
        <pt x="67" y="688" on="1"/>
        <pt x="238" y="688" on="1"/>
        <pt x="341" y="688" on="0"/>
        <pt x="428" y="634" on="0"/>
        <pt x="452" y="501" on="0"/>
        <pt x="452" y="344" on="1"/>
        <pt x="452" y="187" on="0"/>
        <pt x="428" y="54" on="0"/>
        <pt x="341" y="0" on="0"/>
        <pt x="238" y="0" on="1"/>
        <pt x="67" y="0" on="1"/>
      </contour>
      <contour>
        <pt x="235" y="78" on="1"/>
        <pt x="300" y="78" on="0"/>
        <pt x="349" y="105" on="0"/>
        <pt x="365" y="208" on="0"/>
        <pt x="365" y="344" on="1"/>
        <pt x="365" y="479" on="0"/>
        <pt x="349" y="583" on="0"/>
        <pt x="300" y="610" on="0"/>
        <pt x="235" y="610" on="1"/>
        <pt x="155" y="610" on="1"/>
        <pt x="155" y="78" on="1"/>
      </contour>
    </TTGlyph>
    <TTGlyph name="Dcaron" xMin="67" yMin="0" xMax="452" yMax="888">
      <component glyphName=".ttfautohint" x="67" y="0" flags="0x0"/>
      <component glyphName="D" x="0" y="0" flags="0x0"/>
      <component glyphName="uni030C.case" x="381" y="0" flags="0x0"/>
    </TTGlyph>
    <TTGlyph name="Dcroat" xMin="12" yMin="0" xMax="452" yMax="688">
      <component glyphName=".ttfautohint" x="12" y="0" flags="0x0"/>
      <component glyphName="Eth" x="0" y="0" flags="0x0"/>
    </TTGlyph>
    <TTGlyph name="E" xMin="67" yMin="0" xMax="399" yMax="688">
      <contour>
        <pt x="67" y="688" on="1"/>
        <pt x="399" y="688" on="1"/>
        <pt x="399" y="610" on="1"/>
        <pt x="155" y="610" on="1"/>
        <pt x="155" y="387" on="1"/>
        <pt x="366" y="387" on="1"/>
        <pt x="366" y="309" on="1"/>
        <pt x="155" y="309" on="1"/>
        <pt x="155" y="78" on="1"/>
        <pt x="399" y="78" on="1"/>
        <pt x="399" y="0" on="1"/>
        <pt x="67" y="0" on="1"/>
      </contour>
    </TTGlyph>
    <TTGlyph name="Eacute" xMin="67" yMin="0" xMax="399" yMax="892">
      <component glyphName=".ttfautohint" x="67" y="0" flags="0x0"/>
      <component glyphName="E" x="0" y="0" flags="0x0"/>
      <component glyphName="acute" x="198" y="149" flags="0x4"/>
    </TTGlyph>
    <TTGlyph name="Ebreve" xMin="67" yMin="0" xMax="399" yMax="888">
      <component glyphName=".ttfautohint" x="67" y="0" flags="0x0"/>
      <component glyphName="E" x="0" y="0" flags="0x0"/>
      <component glyphName="uni0306.case" x="356" y="0" flags="0x0"/>
    </TTGlyph>
    <TTGlyph name="Ecaron" xMin="67" yMin="0" xMax="399" yMax="888">
      <component glyphName=".ttfautohint" x="67" y="0" flags="0x0"/>
      <component glyphName="E" x="0" y="0" flags="0x0"/>
      <component glyphName="uni030C.case" x="361" y="0" flags="0x0"/>
    </TTGlyph>
    <TTGlyph name="Ecircumflex" xMin="67" yMin="0" xMax="399" yMax="887">
      <component glyphName=".ttfautohint" x="67" y="0" flags="0x0"/>
      <component glyphName="E" x="0" y="0" flags="0x0"/>
      <component glyphName="circumflex" x="103" y="144" flags="0x4"/>
    </TTGlyph>
    <TTGlyph name="Edieresis" xMin="67" yMin="0" xMax="399" yMax="859">
      <component glyphName=".ttfautohint" x="67" y="0" flags="0x0"/>
      <component glyphName="E" x="0" y="0" flags="0x0"/>
      <component glyphName="dieresis" x="88" y="129" flags="0x4"/>
    </TTGlyph>
    <TTGlyph name="Edotaccent" xMin="67" yMin="0" xMax="399" yMax="875">
      <component glyphName=".ttfautohint" x="67" y="0" flags="0x0"/>
      <component glyphName="E" x="0" y="0" flags="0x0"/>
      <component glyphName="uni0307.case" x="287" y="0" flags="0x0"/>
    </TTGlyph>
    <TTGlyph name="Egrave" xMin="67" yMin="0" xMax="399" yMax="892">
      <component glyphName=".ttfautohint" x="67" y="0" flags="0x0"/>
      <component glyphName="E" x="0" y="0" flags="0x0"/>
      <component glyphName="grave" x="130" y="149" flags="0x4"/>
    </TTGlyph>
    <TTGlyph name="Emacron" xMin="67" yMin="0" xMax="399" yMax="888">
      <component glyphName=".ttfautohint" x="67" y="0" flags="0x0"/>
      <component glyphName="E" x="0" y="0" flags="0x0"/>
      <component glyphName="uni0304.case" x="387" y="0" flags="0x0"/>
    </TTGlyph>
    <TTGlyph name="Eng" xMin="68" yMin="-193" xMax="468" yMax="688">
      <contour>
        <pt x="468" y="688" on="1"/>
        <pt x="468" y="-45" on="1"/>
        <pt x="468" y="-113" on="0"/>
        <pt x="441" y="-175" on="0"/>
        <pt x="380" y="-193" on="0"/>
        <pt x="315" y="-193" on="1"/>
        <pt x="315" y="-127" on="1"/>
        <pt x="346" y="-127" on="0"/>
        <pt x="375" y="-117" on="0"/>
        <pt x="383" y="-95" on="0"/>
        <pt x="383" y="-72" on="1"/>
        <pt x="383" y="3" on="1"/>
        <pt x="156" y="496" on="1"/>
        <pt x="152" y="496" on="1"/>
        <pt x="152" y="0" on="1"/>
        <pt x="68" y="0" on="1"/>
        <pt x="68" y="688" on="1"/>
        <pt x="159" y="688" on="1"/>
        <pt x="379" y="207" on="1"/>
        <pt x="383" y="207" on="1"/>
        <pt x="383" y="688" on="1"/>
      </contour>
    </TTGlyph>
    <TTGlyph name="Eogonek" xMin="68" yMin="-196" xMax="398" yMax="688">
      <contour>
        <pt x="306" y="-196" on="0"/>
        <pt x="263" y="-154" on="0"/>
        <pt x="263" y="-121" on="1"/>
        <pt x="263" y="-61" on="0"/>
        <pt x="329" y="0" on="1"/>
        <pt x="68" y="0" on="1"/>
        <pt x="68" y="688" on="1"/>
        <pt x="398" y="688" on="1"/>
        <pt x="398" y="610" on="1"/>
        <pt x="155" y="610" on="1"/>
        <pt x="155" y="387" on="1"/>
        <pt x="366" y="387" on="1"/>
        <pt x="366" y="308" on="1"/>
        <pt x="155" y="308" on="1"/>
        <pt x="155" y="78" on="1"/>
        <pt x="398" y="78" on="1"/>
        <pt x="398" y="0" on="1"/>
        <pt x="374" y="-17" on="0"/>
        <pt x="333" y="-77" on="0"/>
        <pt x="333" y="-103" on="1"/>
        <pt x="333" y="-120" on="0"/>
        <pt x="354" y="-142" on="0"/>
        <pt x="376" y="-142" on="1"/>
        <pt x="393" y="-141" on="1"/>
        <pt x="393" y="-194" on="1"/>
        <pt x="369" y="-196" on="0"/>
        <pt x="355" y="-196" on="1"/>
      </contour>
    </TTGlyph>
    <TTGlyph name="Eth" xMin="12" yMin="0" xMax="452" yMax="688">
      <contour>
        <pt x="67" y="311" on="1"/>
        <pt x="12" y="311" on="1"/>
        <pt x="12" y="386" on="1"/>
        <pt x="67" y="386" on="1"/>
        <pt x="67" y="688" on="1"/>
        <pt x="238" y="688" on="1"/>
        <pt x="341" y="688" on="0"/>
        <pt x="428" y="634" on="0"/>
        <pt x="452" y="501" on="0"/>
        <pt x="452" y="344" on="1"/>
        <pt x="452" y="187" on="0"/>
        <pt x="428" y="54" on="0"/>
        <pt x="341" y="0" on="0"/>
        <pt x="238" y="0" on="1"/>
        <pt x="67" y="0" on="1"/>
      </contour>
      <contour>
        <pt x="300" y="78" on="0"/>
        <pt x="349" y="105" on="0"/>
        <pt x="365" y="208" on="0"/>
        <pt x="365" y="344" on="1"/>
        <pt x="365" y="479" on="0"/>
        <pt x="349" y="583" on="0"/>
        <pt x="300" y="610" on="0"/>
        <pt x="235" y="610" on="1"/>
        <pt x="155" y="610" on="1"/>
        <pt x="155" y="386" on="1"/>
        <pt x="249" y="386" on="1"/>
        <pt x="249" y="311" on="1"/>
        <pt x="155" y="311" on="1"/>
        <pt x="155" y="78" on="1"/>
        <pt x="235" y="78" on="1"/>
      </contour>
    </TTGlyph>
    <TTGlyph name="Euro" xMin="33" yMin="-8" xMax="410" yMax="696">
      <contour>
        <pt x="215" y="-8" on="0"/>
        <pt x="133" y="32" on="0"/>
        <pt x="96" y="136" on="0"/>
        <pt x="92" y="241" on="1"/>
        <pt x="33" y="241" on="1"/>
        <pt x="33" y="296" on="1"/>
        <pt x="90" y="296" on="1"/>
        <pt x="90" y="394" on="1"/>
        <pt x="33" y="394" on="1"/>
        <pt x="33" y="449" on="1"/>
        <pt x="92" y="449" on="1"/>
        <pt x="97" y="550" on="0"/>
        <pt x="134" y="654" on="0"/>
        <pt x="217" y="696" on="0"/>
        <pt x="296" y="696" on="1"/>
        <pt x="328" y="696" on="0"/>
        <pt x="392" y="687" on="0"/>
        <pt x="408" y="681" on="1"/>
        <pt x="408" y="609" on="1"/>
        <pt x="352" y="618" on="0"/>
        <pt x="314" y="618" on="1"/>
        <pt x="258" y="618" on="0"/>
        <pt x="205" y="596" on="0"/>
        <pt x="183" y="526" on="0"/>
        <pt x="180" y="449" on="1"/>
        <pt x="370" y="449" on="1"/>
        <pt x="370" y="394" on="1"/>
        <pt x="179" y="394" on="1"/>
        <pt x="179" y="296" on="1"/>
        <pt x="370" y="296" on="1"/>
        <pt x="370" y="241" on="1"/>
        <pt x="180" y="241" on="1"/>
        <pt x="183" y="163" on="0"/>
        <pt x="205" y="93" on="0"/>
        <pt x="258" y="70" on="0"/>
        <pt x="314" y="70" on="1"/>
        <pt x="363" y="70" on="0"/>
        <pt x="410" y="79" on="1"/>
        <pt x="410" y="5" on="1"/>
        <pt x="392" y="0" on="0"/>
        <pt x="327" y="-8" on="0"/>
        <pt x="296" y="-8" on="1"/>
      </contour>
    </TTGlyph>
    <TTGlyph name="F" xMin="67" yMin="0" xMax="383" yMax="688">
      <contour>
        <pt x="67" y="688" on="1"/>
        <pt x="383" y="688" on="1"/>
        <pt x="383" y="610" on="1"/>
        <pt x="155" y="610" on="1"/>
        <pt x="155" y="371" on="1"/>
        <pt x="358" y="371" on="1"/>
        <pt x="358" y="293" on="1"/>
        <pt x="155" y="293" on="1"/>
        <pt x="155" y="0" on="1"/>
        <pt x="67" y="0" on="1"/>
      </contour>
    </TTGlyph>
    <TTGlyph name="G" xMin="51" yMin="-8" xMax="435" yMax="696">
      <contour>
        <pt x="254" y="298" on="1"/>
        <pt x="254" y="374" on="1"/>
        <pt x="435" y="374" on="1"/>
        <pt x="435" y="11" on="1"/>
        <pt x="400" y="3" on="0"/>
        <pt x="306" y="-8" on="0"/>
        <pt x="269" y="-8" on="1"/>
        <pt x="176" y="-8" on="0"/>
        <pt x="86" y="46" on="0"/>
        <pt x="51" y="193" on="0"/>
        <pt x="51" y="344" on="1"/>
        <pt x="51" y="494" on="0"/>
        <pt x="86" y="640" on="0"/>
        <pt x="178" y="696" on="0"/>
        <pt x="272" y="696" on="1"/>
        <pt x="311" y="696" on="0"/>
        <pt x="402" y="684" on="0"/>
        <pt x="433" y="676" on="1"/>
        <pt x="433" y="604" on="1"/>
        <pt x="401" y="610" on="0"/>
        <pt x="327" y="618" on="0"/>
        <pt x="305" y="618" on="1"/>
        <pt x="226" y="618" on="0"/>
        <pt x="163" y="590" on="0"/>
        <pt x="139" y="480" on="0"/>
        <pt x="139" y="344" on="1"/>
        <pt x="139" y="219" on="0"/>
        <pt x="157" y="109" on="0"/>
        <pt x="210" y="68" on="0"/>
        <pt x="270" y="68" on="1"/>
        <pt x="315" y="68" on="0"/>
        <pt x="350" y="76" on="1"/>
        <pt x="350" y="298" on="1"/>
      </contour>
    </TTGlyph>
    <TTGlyph name="G.ss01" xMin="52" yMin="-8" xMax="458" yMax="696">
      <contour>
        <pt x="173" y="-8" on="0"/>
        <pt x="84" y="47" on="0"/>
        <pt x="52" y="191" on="0"/>
        <pt x="52" y="344" on="1"/>
        <pt x="52" y="495" on="0"/>
        <pt x="88" y="641" on="0"/>
        <pt x="182" y="696" on="0"/>
        <pt x="279" y="696" on="1"/>
        <pt x="317" y="696" on="0"/>
        <pt x="408" y="685" on="0"/>
        <pt x="441" y="676" on="1"/>
        <pt x="441" y="603" on="1"/>
        <pt x="357" y="618" on="0"/>
        <pt x="309" y="618" on="1"/>
        <pt x="227" y="618" on="0"/>
        <pt x="163" y="589" on="0"/>
        <pt x="139" y="480" on="0"/>
        <pt x="139" y="344" on="1"/>
        <pt x="139" y="215" on="0"/>
        <pt x="156" y="105" on="0"/>
        <pt x="206" y="70" on="0"/>
        <pt x="265" y="70" on="1"/>
        <pt x="319" y="70" on="0"/>
        <pt x="360" y="94" on="0"/>
        <pt x="371" y="172" on="0"/>
        <pt x="371" y="275" on="1"/>
        <pt x="371" y="306" on="1"/>
        <pt x="269" y="306" on="1"/>
        <pt x="269" y="383" on="1"/>
        <pt x="458" y="383" on="1"/>
        <pt x="458" y="289" on="1"/>
        <pt x="458" y="154" on="0"/>
        <pt x="439" y="42" on="0"/>
        <pt x="361" y="-8" on="0"/>
        <pt x="269" y="-8" on="1"/>
      </contour>
    </TTGlyph>
    <TTGlyph name="G_tilde.loclGUA" xMin="51" yMin="-8" xMax="435" yMax="888">
      <component glyphName=".ttfautohint" x="51" y="0" flags="0x0"/>
      <component glyphName="G" x="0" y="0" flags="0x0"/>
      <component glyphName="tildecomb.case" x="398" y="0" flags="0x0"/>
    </TTGlyph>
    <TTGlyph name="Gbreve" xMin="51" yMin="-8" xMax="435" yMax="888">
      <component glyphName=".ttfautohint" x="51" y="0" flags="0x0"/>
      <component glyphName="G" x="0" y="0" flags="0x0"/>
      <component glyphName="uni0306.case" x="369" y="0" flags="0x0"/>
    </TTGlyph>
    <TTGlyph name="Gbreve.ss01" xMin="52" yMin="-8" xMax="458" yMax="888">
      <component glyphName=".ttfautohint" x="52" y="0" flags="0x0"/>
      <component glyphName="G.ss01" x="0" y="0" flags="0x0"/>
      <component glyphName="uni0306.case" x="377" y="0" flags="0x0"/>
    </TTGlyph>
    <TTGlyph name="Gcaron" xMin="51" yMin="-8" xMax="435" yMax="888">
      <component glyphName=".ttfautohint" x="51" y="0" flags="0x0"/>
      <component glyphName="G" x="0" y="0" flags="0x0"/>
      <component glyphName="uni030C.case" x="374" y="0" flags="0x0"/>
    </TTGlyph>
    <TTGlyph name="Gcaron.ss01" xMin="52" yMin="-8" xMax="458" yMax="888">
      <component glyphName=".ttfautohint" x="52" y="0" flags="0x0"/>
      <component glyphName="G.ss01" x="0" y="0" flags="0x0"/>
      <component glyphName="uni030C.case" x="382" y="0" flags="0x0"/>
    </TTGlyph>
    <TTGlyph name="Gcircumflex" xMin="51" yMin="-8" xMax="435" yMax="888">
      <component glyphName=".ttfautohint" x="51" y="0" flags="0x0"/>
      <component glyphName="G" x="0" y="0" flags="0x0"/>
      <component glyphName="uni0302.case" x="374" y="0" flags="0x0"/>
    </TTGlyph>
    <TTGlyph name="Gcircumflex.ss01" xMin="52" yMin="-8" xMax="458" yMax="888">
      <component glyphName=".ttfautohint" x="52" y="0" flags="0x0"/>
      <component glyphName="G.ss01" x="0" y="0" flags="0x0"/>
      <component glyphName="uni0302.case" x="382" y="0" flags="0x0"/>
    </TTGlyph>
    <TTGlyph name="Gcommaaccent" xMin="51" yMin="-267" xMax="435" yMax="696">
      <component glyphName=".ttfautohint" x="51" y="0" flags="0x0"/>
      <component glyphName="G" x="0" y="0" flags="0x0"/>
      <component glyphName="uni0326" x="346" y="0" flags="0x0"/>
    </TTGlyph>
    <TTGlyph name="Gcommaaccent.ss01" xMin="52" yMin="-267" xMax="458" yMax="696">
      <component glyphName=".ttfautohint" x="52" y="0" flags="0x0"/>
      <component glyphName="G.ss01" x="0" y="0" flags="0x0"/>
      <component glyphName="uni0326" x="354" y="0" flags="0x0"/>
    </TTGlyph>
    <TTGlyph name="Gdotaccent" xMin="51" yMin="-8" xMax="435" yMax="875">
      <component glyphName=".ttfautohint" x="51" y="0" flags="0x0"/>
      <component glyphName="G" x="0" y="0" flags="0x0"/>
      <component glyphName="uni0307.case" x="300" y="0" flags="0x0"/>
    </TTGlyph>
    <TTGlyph name="Gdotaccent.ss01" xMin="52" yMin="-8" xMax="458" yMax="875">
      <component glyphName=".ttfautohint" x="52" y="0" flags="0x0"/>
      <component glyphName="G.ss01" x="0" y="0" flags="0x0"/>
      <component glyphName="uni0307.case" x="308" y="0" flags="0x0"/>
    </TTGlyph>
    <TTGlyph name="Gtilde.loclGUA.ss01" xMin="52" yMin="-8" xMax="458" yMax="888">
      <component glyphName=".ttfautohint" x="52" y="0" flags="0x0"/>
      <component glyphName="G.ss01" x="0" y="0" flags="0x0"/>
      <component glyphName="tildecomb.case" x="406" y="0" flags="0x0"/>
    </TTGlyph>
    <TTGlyph name="H" xMin="68" yMin="0" xMax="467" yMax="688">
      <contour>
        <pt x="379" y="306" on="1"/>
        <pt x="155" y="306" on="1"/>
        <pt x="155" y="0" on="1"/>
        <pt x="68" y="0" on="1"/>
        <pt x="68" y="688" on="1"/>
        <pt x="155" y="688" on="1"/>
        <pt x="155" y="387" on="1"/>
        <pt x="379" y="387" on="1"/>
        <pt x="379" y="688" on="1"/>
        <pt x="467" y="688" on="1"/>
        <pt x="467" y="0" on="1"/>
        <pt x="379" y="0" on="1"/>
      </contour>
    </TTGlyph>
    <TTGlyph name="Hbar" xMin="68" yMin="0" xMax="467" yMax="688">
      <contour>
        <pt x="467" y="688" on="1"/>
        <pt x="467" y="0" on="1"/>
        <pt x="379" y="0" on="1"/>
        <pt x="379" y="274" on="1"/>
        <pt x="155" y="274" on="1"/>
        <pt x="155" y="0" on="1"/>
        <pt x="68" y="0" on="1"/>
        <pt x="68" y="688" on="1"/>
        <pt x="155" y="688" on="1"/>
        <pt x="155" y="556" on="1"/>
        <pt x="379" y="556" on="1"/>
        <pt x="379" y="688" on="1"/>
      </contour>
      <contour>
        <pt x="379" y="355" on="1"/>
        <pt x="379" y="480" on="1"/>
        <pt x="155" y="480" on="1"/>
        <pt x="155" y="355" on="1"/>
      </contour>
    </TTGlyph>
    <TTGlyph name="Hcircumflex" xMin="68" yMin="0" xMax="467" yMax="888">
      <component glyphName=".ttfautohint" x="68" y="0" flags="0x0"/>
      <component glyphName="H" x="0" y="0" flags="0x0"/>
      <component glyphName="uni0302.case" x="396" y="0" flags="0x0"/>
    </TTGlyph>
    <TTGlyph name="I" xMin="70" yMin="0" xMax="158" yMax="688">
      <contour>
        <pt x="70" y="688" on="1"/>
        <pt x="158" y="688" on="1"/>
        <pt x="158" y="0" on="1"/>
        <pt x="70" y="0" on="1"/>
      </contour>
    </TTGlyph>
    <TTGlyph name="IJ" xMin="70" yMin="0" xMax="429" yMax="688">
      <component glyphName=".ttfautohint" x="70" y="0" flags="0x0"/>
      <component glyphName="I" x="0" y="0" flags="0x0"/>
      <component glyphName="J" x="228" y="0" flags="0x0"/>
    </TTGlyph>
    <TTGlyph name="Iacute" xMin="70" yMin="0" xMax="214" yMax="892">
      <component glyphName=".ttfautohint" x="70" y="0" flags="0x0"/>
      <component glyphName="I" x="0" y="0" flags="0x0"/>
      <component glyphName="acute" x="65" y="149" flags="0x4"/>
    </TTGlyph>
    <TTGlyph name="Iacute_J.loclNLD" xMin="70" yMin="0" xMax="487" yMax="888">
      <component glyphName=".ttfautohint" x="70" y="0" flags="0x0"/>
      <component glyphName="I" x="0" y="0" flags="0x0"/>
      <component glyphName="acutecomb.case" x="223" y="0" flags="0x0"/>
      <component glyphName="J" x="228" y="0" flags="0x0"/>
      <component glyphName="acutecomb.case" x="494" y="0" flags="0x0"/>
    </TTGlyph>
    <TTGlyph name="Ibreve" xMin="-3" yMin="0" xMax="231" yMax="888">
      <component glyphName=".ttfautohint" x="0" y="0" flags="0x0"/>
      <component glyphName="I" x="0" y="0" flags="0x0"/>
      <component glyphName="uni0306.case" x="238" y="0" flags="0x0"/>
    </TTGlyph>
    <TTGlyph name="Icircumflex" xMin="-8" yMin="0" xMax="236" yMax="887">
      <component glyphName=".ttfautohint" x="0" y="0" flags="0x0"/>
      <component glyphName="I" x="0" y="0" flags="0x0"/>
      <component glyphName="circumflex" x="-15" y="144" flags="0x4"/>
    </TTGlyph>
    <TTGlyph name="Idieresis" xMin="-13" yMin="0" xMax="242" yMax="859">
      <component glyphName=".ttfautohint" x="0" y="0" flags="0x0"/>
      <component glyphName="I" x="0" y="0" flags="0x0"/>
      <component glyphName="dieresis" x="-31" y="129" flags="0x4"/>
    </TTGlyph>
    <TTGlyph name="Idotaccent" xMin="70" yMin="0" xMax="158" yMax="875">
      <component glyphName=".ttfautohint" x="70" y="0" flags="0x0"/>
      <component glyphName="I" x="0" y="0" flags="0x0"/>
      <component glyphName="uni0307.case" x="168" y="0" flags="0x0"/>
    </TTGlyph>
    <TTGlyph name="Igrave" xMin="16" yMin="0" xMax="158" yMax="892">
      <component glyphName=".ttfautohint" x="16" y="0" flags="0x0"/>
      <component glyphName="I" x="0" y="0" flags="0x0"/>
      <component glyphName="grave" x="9" y="149" flags="0x4"/>
    </TTGlyph>
    <TTGlyph name="Imacron" xMin="14" yMin="0" xMax="213" yMax="888">
      <component glyphName=".ttfautohint" x="14" y="0" flags="0x0"/>
      <component glyphName="I" x="0" y="0" flags="0x0"/>
      <component glyphName="uni0304.case" x="268" y="0" flags="0x0"/>
    </TTGlyph>
    <TTGlyph name="Iogonek" xMin="29" yMin="-196" xMax="159" yMax="688">
      <contour>
        <pt x="29" y="-196" on="0"/>
        <pt x="29" y="-118" on="1"/>
        <pt x="29" y="-89" on="0"/>
        <pt x="61" y="-27" on="0"/>
        <pt x="88" y="0" on="1"/>
        <pt x="70" y="0" on="1"/>
        <pt x="70" y="688" on="1"/>
        <pt x="158" y="688" on="1"/>
        <pt x="158" y="0" on="1"/>
        <pt x="137" y="-17" on="0"/>
        <pt x="99" y="-77" on="0"/>
        <pt x="99" y="-101" on="1"/>
        <pt x="99" y="-142" on="0"/>
        <pt x="143" y="-142" on="1"/>
        <pt x="154" y="-142" on="0"/>
        <pt x="159" y="-141" on="1"/>
        <pt x="159" y="-194" on="1"/>
        <pt x="135" y="-196" on="0"/>
        <pt x="120" y="-196" on="1"/>
      </contour>
    </TTGlyph>
    <TTGlyph name="Itilde" xMin="-32" yMin="0" xMax="259" yMax="888">
      <component glyphName=".ttfautohint" x="0" y="0" flags="0x0"/>
      <component glyphName="I" x="0" y="0" flags="0x0"/>
      <component glyphName="tildecomb.case" x="266" y="0" flags="0x0"/>
    </TTGlyph>
    <TTGlyph name="J" xMin="15" yMin="0" xMax="201" yMax="688">
      <contour>
        <pt x="68" y="76" on="0"/>
        <pt x="104" y="94" on="0"/>
        <pt x="113" y="152" on="0"/>
        <pt x="113" y="239" on="1"/>
        <pt x="113" y="688" on="1"/>
        <pt x="201" y="688" on="1"/>
        <pt x="201" y="268" on="1"/>
        <pt x="201" y="130" on="0"/>
        <pt x="182" y="31" on="0"/>
        <pt x="112" y="1" on="0"/>
        <pt x="15" y="0" on="1"/>
        <pt x="15" y="74" on="1"/>
      </contour>
    </TTGlyph>
    <TTGlyph name="Jcircumflex" xMin="15" yMin="0" xMax="279" yMax="888">
      <component glyphName=".ttfautohint" x="15" y="0" flags="0x0"/>
      <component glyphName="J" x="0" y="0" flags="0x0"/>
      <component glyphName="uni0302.case" x="285" y="0" flags="0x0"/>
    </TTGlyph>
    <TTGlyph name="K" xMin="67" yMin="0" xMax="476" yMax="688">
      <contour>
        <pt x="226" y="310" on="1"/>
        <pt x="155" y="310" on="1"/>
        <pt x="155" y="0" on="1"/>
        <pt x="67" y="0" on="1"/>
        <pt x="67" y="688" on="1"/>
        <pt x="155" y="688" on="1"/>
        <pt x="155" y="388" on="1"/>
        <pt x="226" y="388" on="1"/>
        <pt x="381" y="688" on="1"/>
        <pt x="473" y="688" on="1"/>
        <pt x="298" y="355" on="1"/>
        <pt x="476" y="0" on="1"/>
        <pt x="379" y="0" on="1"/>
      </contour>
    </TTGlyph>
    <TTGlyph name="Kcommaaccent" xMin="67" yMin="-267" xMax="476" yMax="688">
      <component glyphName=".ttfautohint" x="67" y="0" flags="0x0"/>
      <component glyphName="K" x="0" y="0" flags="0x0"/>
      <component glyphName="uni0326" x="346" y="0" flags="0x0"/>
    </TTGlyph>
    <TTGlyph name="L" xMin="67" yMin="0" xMax="371" yMax="688">
      <contour>
        <pt x="67" y="688" on="1"/>
        <pt x="155" y="688" on="1"/>
        <pt x="155" y="80" on="1"/>
        <pt x="371" y="80" on="1"/>
        <pt x="371" y="0" on="1"/>
        <pt x="67" y="0" on="1"/>
      </contour>
    </TTGlyph>
    <TTGlyph name="Lacute" xMin="67" yMin="0" xMax="371" yMax="888">
      <component glyphName=".ttfautohint" x="67" y="0" flags="0x0"/>
      <component glyphName="L" x="0" y="0" flags="0x0"/>
      <component glyphName="acutecomb.case" x="227" y="0" flags="0x0"/>
    </TTGlyph>
    <TTGlyph name="Lcaron" xMin="67" yMin="0" xMax="371" yMax="699">
      <component glyphName=".ttfautohint" x="67" y="0" flags="0x0"/>
      <component glyphName="L" x="0" y="0" flags="0x0"/>
      <component glyphName="caron.loclCSY" x="225" y="11" flags="0x4"/>
    </TTGlyph>
    <TTGlyph name="Lcommaaccent" xMin="67" yMin="-267" xMax="371" yMax="688">
      <component glyphName=".ttfautohint" x="67" y="0" flags="0x0"/>
      <component glyphName="L" x="0" y="0" flags="0x0"/>
      <component glyphName="uni0326" x="305" y="0" flags="0x0"/>
    </TTGlyph>
    <TTGlyph name="Ldot" xMin="67" yMin="0" xMax="371" yMax="688">
      <component glyphName=".ttfautohint" x="67" y="0" flags="0x0"/>
      <component glyphName="L" x="0" y="0" flags="0x0"/>
      <component glyphName="periodcentered" x="214" y="57" flags="0x4"/>
    </TTGlyph>
    <TTGlyph name="Lslash" xMin="19" yMin="0" xMax="371" yMax="688">
      <contour>
        <pt x="371" y="80" on="1"/>
        <pt x="371" y="0" on="1"/>
        <pt x="67" y="0" on="1"/>
        <pt x="67" y="277" on="1"/>
        <pt x="19" y="259" on="1"/>
        <pt x="19" y="331" on="1"/>
        <pt x="67" y="349" on="1"/>
        <pt x="67" y="688" on="1"/>
        <pt x="155" y="688" on="1"/>
        <pt x="155" y="382" on="1"/>
        <pt x="289" y="432" on="1"/>
        <pt x="289" y="359" on="1"/>
        <pt x="155" y="309" on="1"/>
        <pt x="155" y="80" on="1"/>
      </contour>
    </TTGlyph>
    <TTGlyph name="M" xMin="68" yMin="0" xMax="614" yMax="688">
      <contour>
        <pt x="529" y="546" on="1"/>
        <pt x="524" y="546" on="1"/>
        <pt x="380" y="0" on="1"/>
        <pt x="299" y="0" on="1"/>
        <pt x="156" y="546" on="1"/>
        <pt x="151" y="546" on="1"/>
        <pt x="151" y="0" on="1"/>
        <pt x="68" y="0" on="1"/>
        <pt x="68" y="688" on="1"/>
        <pt x="198" y="688" on="1"/>
        <pt x="339" y="147" on="1"/>
        <pt x="345" y="147" on="1"/>
        <pt x="486" y="688" on="1"/>
        <pt x="614" y="688" on="1"/>
        <pt x="614" y="0" on="1"/>
        <pt x="529" y="0" on="1"/>
      </contour>
    </TTGlyph>
    <TTGlyph name="N" xMin="68" yMin="0" xMax="468" yMax="688">
      <contour>
        <pt x="156" y="496" on="1"/>
        <pt x="152" y="496" on="1"/>
        <pt x="152" y="0" on="1"/>
        <pt x="68" y="0" on="1"/>
        <pt x="68" y="688" on="1"/>
        <pt x="159" y="688" on="1"/>
        <pt x="379" y="204" on="1"/>
        <pt x="383" y="204" on="1"/>
        <pt x="383" y="688" on="1"/>
        <pt x="468" y="688" on="1"/>
        <pt x="468" y="0" on="1"/>
        <pt x="382" y="0" on="1"/>
      </contour>
    </TTGlyph>
    <TTGlyph name="Nacute" xMin="68" yMin="0" xMax="468" yMax="888">
      <component glyphName=".ttfautohint" x="68" y="0" flags="0x0"/>
      <component glyphName="N" x="0" y="0" flags="0x0"/>
      <component glyphName="acutecomb.case" x="377" y="0" flags="0x0"/>
    </TTGlyph>
    <TTGlyph name="Nacute.loclPLK" xMin="68" yMin="0" xMax="468" yMax="888">
      <component glyphName=".ttfautohint" x="68" y="0" flags="0x0"/>
      <component glyphName="N" x="0" y="0" flags="0x0"/>
      <component glyphName="acute.case.loclPLK" x="221" y="0" flags="0x0"/>
    </TTGlyph>
    <TTGlyph name="Ncaron" xMin="68" yMin="0" xMax="468" yMax="888">
      <component glyphName=".ttfautohint" x="68" y="0" flags="0x0"/>
      <component glyphName="N" x="0" y="0" flags="0x0"/>
      <component glyphName="uni030C.case" x="397" y="0" flags="0x0"/>
    </TTGlyph>
    <TTGlyph name="Ncommaaccent" xMin="68" yMin="-267" xMax="468" yMax="688">
      <component glyphName=".ttfautohint" x="68" y="0" flags="0x0"/>
      <component glyphName="N" x="0" y="0" flags="0x0"/>
      <component glyphName="uni0326" x="369" y="0" flags="0x0"/>
    </TTGlyph>
    <TTGlyph name="Ntilde" xMin="68" yMin="0" xMax="468" yMax="876">
      <component glyphName=".ttfautohint" x="68" y="0" flags="0x0"/>
      <component glyphName="N" x="0" y="0" flags="0x0"/>
      <component glyphName="tilde" x="116" y="133" flags="0x4"/>
    </TTGlyph>
    <TTGlyph name="O" xMin="51" yMin="-8" xMax="471" yMax="696">
      <contour>
        <pt x="161" y="-8" on="0"/>
        <pt x="75" y="48" on="0"/>
        <pt x="51" y="185" on="0"/>
        <pt x="51" y="344" on="1"/>
        <pt x="51" y="503" on="0"/>
        <pt x="75" y="640" on="0"/>
        <pt x="161" y="696" on="0"/>
        <pt x="261" y="696" on="1"/>
        <pt x="361" y="696" on="0"/>
        <pt x="447" y="640" on="0"/>
        <pt x="471" y="503" on="0"/>
        <pt x="471" y="344" on="1"/>
        <pt x="471" y="185" on="0"/>
        <pt x="447" y="48" on="0"/>
        <pt x="361" y="-8" on="0"/>
        <pt x="261" y="-8" on="1"/>
      </contour>
      <contour>
        <pt x="322" y="70" on="0"/>
        <pt x="369" y="98" on="0"/>
        <pt x="384" y="205" on="0"/>
        <pt x="384" y="344" on="1"/>
        <pt x="384" y="483" on="0"/>
        <pt x="369" y="590" on="0"/>
        <pt x="322" y="618" on="0"/>
        <pt x="261" y="618" on="1"/>
        <pt x="200" y="618" on="0"/>
        <pt x="154" y="590" on="0"/>
        <pt x="139" y="484" on="0"/>
        <pt x="139" y="344" on="1"/>
        <pt x="139" y="204" on="0"/>
        <pt x="154" y="98" on="0"/>
        <pt x="200" y="70" on="0"/>
        <pt x="261" y="70" on="1"/>
      </contour>
    </TTGlyph>
    <TTGlyph name="OE" xMin="51" yMin="0" xMax="706" yMax="688">
      <contour>
        <pt x="161" y="0" on="0"/>
        <pt x="75" y="54" on="0"/>
        <pt x="51" y="188" on="0"/>
        <pt x="51" y="344" on="1"/>
        <pt x="51" y="500" on="0"/>
        <pt x="75" y="634" on="0"/>
        <pt x="161" y="688" on="0"/>
        <pt x="261" y="688" on="1"/>
        <pt x="706" y="688" on="1"/>
        <pt x="706" y="610" on="1"/>
        <pt x="492" y="610" on="1"/>
        <pt x="457" y="610" on="0"/>
        <pt x="434" y="616" on="1"/>
        <pt x="455" y="586" on="0"/>
        <pt x="470" y="479" on="0"/>
        <pt x="471" y="386" on="1"/>
        <pt x="674" y="386" on="1"/>
        <pt x="674" y="308" on="1"/>
        <pt x="471" y="308" on="1"/>
        <pt x="470" y="211" on="0"/>
        <pt x="454" y="102" on="0"/>
        <pt x="433" y="71" on="1"/>
        <pt x="457" y="77" on="0"/>
        <pt x="492" y="77" on="1"/>
        <pt x="706" y="77" on="1"/>
        <pt x="706" y="0" on="1"/>
        <pt x="261" y="0" on="1"/>
      </contour>
      <contour>
        <pt x="322" y="77" on="0"/>
        <pt x="368" y="105" on="0"/>
        <pt x="383" y="209" on="0"/>
        <pt x="383" y="344" on="1"/>
        <pt x="383" y="479" on="0"/>
        <pt x="368" y="583" on="0"/>
        <pt x="322" y="610" on="0"/>
        <pt x="261" y="610" on="1"/>
        <pt x="200" y="610" on="0"/>
        <pt x="154" y="583" on="0"/>
        <pt x="139" y="479" on="0"/>
        <pt x="139" y="344" on="1"/>
        <pt x="139" y="209" on="0"/>
        <pt x="154" y="105" on="0"/>
        <pt x="200" y="77" on="0"/>
        <pt x="261" y="77" on="1"/>
      </contour>
    </TTGlyph>
    <TTGlyph name="Oacute" xMin="51" yMin="-8" xMax="471" yMax="892">
      <component glyphName=".ttfautohint" x="51" y="0" flags="0x0"/>
      <component glyphName="O" x="0" y="0" flags="0x0"/>
      <component glyphName="acute" x="214" y="149" flags="0x4"/>
    </TTGlyph>
    <TTGlyph name="Oacute.loclPLK" xMin="51" yMin="-8" xMax="471" yMax="888">
      <component glyphName=".ttfautohint" x="51" y="0" flags="0x0"/>
      <component glyphName="O" x="0" y="0" flags="0x0"/>
      <component glyphName="acute.case.loclPLK" x="215" y="0" flags="0x0"/>
    </TTGlyph>
    <TTGlyph name="Obreve" xMin="51" yMin="-8" xMax="471" yMax="888">
      <component glyphName=".ttfautohint" x="51" y="0" flags="0x0"/>
      <component glyphName="O" x="0" y="0" flags="0x0"/>
      <component glyphName="uni0306.case" x="385" y="0" flags="0x0"/>
    </TTGlyph>
    <TTGlyph name="Ocircumflex" xMin="51" yMin="-8" xMax="471" yMax="887">
      <component glyphName=".ttfautohint" x="51" y="0" flags="0x0"/>
      <component glyphName="O" x="0" y="0" flags="0x0"/>
      <component glyphName="circumflex" x="133" y="144" flags="0x4"/>
    </TTGlyph>
    <TTGlyph name="Odieresis" xMin="51" yMin="-8" xMax="471" yMax="859">
      <component glyphName=".ttfautohint" x="51" y="0" flags="0x0"/>
      <component glyphName="O" x="0" y="0" flags="0x0"/>
      <component glyphName="dieresis" x="116" y="129" flags="0x4"/>
    </TTGlyph>
    <TTGlyph name="Ograve" xMin="51" yMin="-8" xMax="471" yMax="892">
      <component glyphName=".ttfautohint" x="51" y="0" flags="0x0"/>
      <component glyphName="O" x="0" y="0" flags="0x0"/>
      <component glyphName="grave" x="149" y="149" flags="0x4"/>
    </TTGlyph>
    <TTGlyph name="Ohorn" xMin="51" yMin="-8" xMax="519" yMax="785">
      <contour>
        <pt x="519" y="785" on="1"/>
        <pt x="519" y="749" on="1"/>
        <pt x="519" y="710" on="0"/>
        <pt x="506" y="669" on="0"/>
        <pt x="467" y="649" on="0"/>
        <pt x="428" y="647" on="1"/>
        <pt x="455" y="613" on="0"/>
        <pt x="471" y="481" on="0"/>
        <pt x="471" y="344" on="1"/>
        <pt x="471" y="185" on="0"/>
        <pt x="447" y="48" on="0"/>
        <pt x="361" y="-8" on="0"/>
        <pt x="261" y="-8" on="1"/>
        <pt x="161" y="-8" on="0"/>
        <pt x="75" y="48" on="0"/>
        <pt x="51" y="185" on="0"/>
        <pt x="51" y="344" on="1"/>
        <pt x="51" y="503" on="0"/>
        <pt x="75" y="640" on="0"/>
        <pt x="161" y="696" on="0"/>
        <pt x="261" y="696" on="1"/>
        <pt x="322" y="696" on="0"/>
        <pt x="355" y="688" on="1"/>
        <pt x="401" y="688" on="1"/>
        <pt x="439" y="688" on="0"/>
        <pt x="462" y="707" on="0"/>
        <pt x="462" y="734" on="1"/>
        <pt x="462" y="785" on="1"/>
      </contour>
      <contour>
        <pt x="322" y="70" on="0"/>
        <pt x="369" y="98" on="0"/>
        <pt x="384" y="205" on="0"/>
        <pt x="384" y="344" on="1"/>
        <pt x="384" y="483" on="0"/>
        <pt x="369" y="590" on="0"/>
        <pt x="322" y="618" on="0"/>
        <pt x="261" y="618" on="1"/>
        <pt x="200" y="618" on="0"/>
        <pt x="154" y="590" on="0"/>
        <pt x="139" y="484" on="0"/>
        <pt x="139" y="344" on="1"/>
        <pt x="139" y="204" on="0"/>
        <pt x="154" y="98" on="0"/>
        <pt x="200" y="70" on="0"/>
        <pt x="261" y="70" on="1"/>
      </contour>
    </TTGlyph>
    <TTGlyph name="Ohungarumlaut" xMin="51" yMin="-8" xMax="471" yMax="878">
      <component glyphName=".ttfautohint" x="51" y="0" flags="0x0"/>
      <component glyphName="O" x="0" y="0" flags="0x0"/>
      <component glyphName="uni030B.case" x="445" y="0" flags="0x0"/>
    </TTGlyph>
    <TTGlyph name="Omacron" xMin="51" yMin="-8" xMax="471" yMax="888">
      <component glyphName=".ttfautohint" x="51" y="0" flags="0x0"/>
      <component glyphName="O" x="0" y="0" flags="0x0"/>
      <component glyphName="uni0304.case" x="416" y="0" flags="0x0"/>
    </TTGlyph>
    <TTGlyph name="Oslash" xMin="51" yMin="-55" xMax="471" yMax="743">
      <contour>
        <pt x="456" y="612" on="0"/>
        <pt x="471" y="480" on="0"/>
        <pt x="471" y="344" on="1"/>
        <pt x="471" y="185" on="0"/>
        <pt x="447" y="48" on="0"/>
        <pt x="361" y="-8" on="0"/>
        <pt x="261" y="-8" on="1"/>
        <pt x="189" y="-8" on="0"/>
        <pt x="152" y="4" on="1"/>
        <pt x="127" y="-55" on="1"/>
        <pt x="52" y="-55" on="1"/>
        <pt x="94" y="42" on="1"/>
        <pt x="67" y="76" on="0"/>
        <pt x="51" y="208" on="0"/>
        <pt x="51" y="344" on="1"/>
        <pt x="51" y="503" on="0"/>
        <pt x="75" y="640" on="0"/>
        <pt x="161" y="696" on="0"/>
        <pt x="261" y="696" on="1"/>
        <pt x="333" y="696" on="0"/>
        <pt x="370" y="684" on="1"/>
        <pt x="395" y="743" on="1"/>
        <pt x="471" y="743" on="1"/>
        <pt x="429" y="646" on="1"/>
      </contour>
      <contour>
        <pt x="139" y="209" on="0"/>
        <pt x="145" y="161" on="1"/>
        <pt x="338" y="610" on="1"/>
        <pt x="326" y="615" on="0"/>
        <pt x="293" y="618" on="0"/>
        <pt x="261" y="618" on="1"/>
        <pt x="200" y="618" on="0"/>
        <pt x="154" y="590" on="0"/>
        <pt x="139" y="484" on="0"/>
        <pt x="139" y="344" on="1"/>
      </contour>
      <contour>
        <pt x="322" y="70" on="0"/>
        <pt x="369" y="98" on="0"/>
        <pt x="384" y="205" on="0"/>
        <pt x="384" y="344" on="1"/>
        <pt x="384" y="480" on="0"/>
        <pt x="378" y="528" on="1"/>
        <pt x="184" y="78" on="1"/>
        <pt x="196" y="73" on="0"/>
        <pt x="229" y="70" on="0"/>
        <pt x="261" y="70" on="1"/>
      </contour>
    </TTGlyph>
    <TTGlyph name="Oslashacute" xMin="51" yMin="-55" xMax="471" yMax="888">
      <component glyphName=".ttfautohint" x="51" y="0" flags="0x0"/>
      <component glyphName="Oslash" x="0" y="0" flags="0x0"/>
      <component glyphName="acutecomb.case" x="370" y="0" flags="0x0"/>
    </TTGlyph>
    <TTGlyph name="Otilde" xMin="51" yMin="-8" xMax="471" yMax="876">
      <component glyphName=".ttfautohint" x="51" y="0" flags="0x0"/>
      <component glyphName="O" x="0" y="0" flags="0x0"/>
      <component glyphName="tilde" x="110" y="133" flags="0x4"/>
    </TTGlyph>
    <TTGlyph name="P" xMin="67" yMin="0" xMax="444" yMax="688">
      <contour>
        <pt x="67" y="688" on="1"/>
        <pt x="279" y="688" on="1"/>
        <pt x="349" y="688" on="0"/>
        <pt x="421" y="634" on="0"/>
        <pt x="444" y="542" on="0"/>
        <pt x="444" y="469" on="1"/>
        <pt x="444" y="397" on="0"/>
        <pt x="422" y="305" on="0"/>
        <pt x="349" y="249" on="0"/>
        <pt x="278" y="249" on="1"/>
        <pt x="155" y="249" on="1"/>
        <pt x="155" y="0" on="1"/>
        <pt x="67" y="0" on="1"/>
      </contour>
      <contour>
        <pt x="255" y="326" on="1"/>
        <pt x="301" y="326" on="0"/>
        <pt x="343" y="354" on="0"/>
        <pt x="356" y="412" on="0"/>
        <pt x="356" y="469" on="1"/>
        <pt x="356" y="526" on="0"/>
        <pt x="344" y="582" on="0"/>
        <pt x="302" y="610" on="0"/>
        <pt x="256" y="610" on="1"/>
        <pt x="155" y="610" on="1"/>
        <pt x="155" y="326" on="1"/>
      </contour>
    </TTGlyph>
    <TTGlyph name="Q" xMin="51" yMin="-115" xMax="491" yMax="696">
      <contour>
        <pt x="491" y="-112" on="1"/>
        <pt x="491" y="-115" on="1"/>
        <pt x="397" y="-115" on="1"/>
        <pt x="335" y="-3" on="1"/>
        <pt x="309" y="-8" on="0"/>
        <pt x="261" y="-8" on="1"/>
        <pt x="161" y="-8" on="0"/>
        <pt x="75" y="48" on="0"/>
        <pt x="51" y="185" on="0"/>
        <pt x="51" y="344" on="1"/>
        <pt x="51" y="503" on="0"/>
        <pt x="75" y="640" on="0"/>
        <pt x="161" y="696" on="0"/>
        <pt x="261" y="696" on="1"/>
        <pt x="361" y="696" on="0"/>
        <pt x="447" y="640" on="0"/>
        <pt x="471" y="503" on="0"/>
        <pt x="471" y="344" on="1"/>
        <pt x="471" y="243" on="0"/>
        <pt x="463" y="126" on="0"/>
        <pt x="438" y="47" on="0"/>
        <pt x="412" y="26" on="1"/>
      </contour>
      <contour>
        <pt x="294" y="70" on="1"/>
        <pt x="212" y="218" on="1"/>
        <pt x="301" y="218" on="1"/>
        <pt x="365" y="107" on="1"/>
        <pt x="376" y="132" on="0"/>
        <pt x="384" y="237" on="0"/>
        <pt x="384" y="344" on="1"/>
        <pt x="384" y="483" on="0"/>
        <pt x="369" y="590" on="0"/>
        <pt x="322" y="618" on="0"/>
        <pt x="261" y="618" on="1"/>
        <pt x="200" y="618" on="0"/>
        <pt x="154" y="590" on="0"/>
        <pt x="139" y="484" on="0"/>
        <pt x="139" y="344" on="1"/>
        <pt x="139" y="204" on="0"/>
        <pt x="154" y="98" on="0"/>
        <pt x="200" y="70" on="0"/>
        <pt x="261" y="70" on="1"/>
      </contour>
    </TTGlyph>
    <TTGlyph name="R" xMin="67" yMin="0" xMax="463" yMax="688">
      <contour>
        <pt x="371" y="0" on="1"/>
        <pt x="287" y="269" on="1"/>
        <pt x="281" y="269" on="1"/>
        <pt x="155" y="269" on="1"/>
        <pt x="155" y="0" on="1"/>
        <pt x="67" y="0" on="1"/>
        <pt x="67" y="688" on="1"/>
        <pt x="286" y="688" on="1"/>
        <pt x="357" y="688" on="0"/>
        <pt x="429" y="637" on="0"/>
        <pt x="451" y="549" on="0"/>
        <pt x="451" y="479" on="1"/>
        <pt x="451" y="404" on="0"/>
        <pt x="420" y="306" on="0"/>
        <pt x="371" y="285" on="1"/>
        <pt x="463" y="0" on="1"/>
      </contour>
      <contour>
        <pt x="308" y="346" on="0"/>
        <pt x="350" y="373" on="0"/>
        <pt x="363" y="427" on="0"/>
        <pt x="363" y="479" on="1"/>
        <pt x="363" y="532" on="0"/>
        <pt x="351" y="584" on="0"/>
        <pt x="309" y="610" on="0"/>
        <pt x="263" y="610" on="1"/>
        <pt x="155" y="610" on="1"/>
        <pt x="155" y="346" on="1"/>
        <pt x="263" y="346" on="1"/>
      </contour>
    </TTGlyph>
    <TTGlyph name="R.ss01" xMin="68" yMin="0" xMax="455" yMax="688">
      <contour>
        <pt x="455" y="0" on="1"/>
        <pt x="368" y="0" on="1"/>
        <pt x="360" y="149" on="1"/>
        <pt x="357" y="193" on="0"/>
        <pt x="346" y="240" on="0"/>
        <pt x="307" y="271" on="0"/>
        <pt x="267" y="271" on="1"/>
        <pt x="155" y="271" on="1"/>
        <pt x="155" y="0" on="1"/>
        <pt x="68" y="0" on="1"/>
        <pt x="68" y="688" on="1"/>
        <pt x="293" y="688" on="1"/>
        <pt x="381" y="688" on="0"/>
        <pt x="451" y="598" on="0"/>
        <pt x="451" y="501" on="1"/>
        <pt x="451" y="413" on="0"/>
        <pt x="406" y="333" on="0"/>
        <pt x="358" y="319" on="1"/>
        <pt x="358" y="315" on="1"/>
        <pt x="402" y="302" on="0"/>
        <pt x="442" y="241" on="0"/>
        <pt x="446" y="169" on="1"/>
      </contour>
      <contour>
        <pt x="308" y="349" on="0"/>
        <pt x="348" y="376" on="0"/>
        <pt x="362" y="431" on="0"/>
        <pt x="362" y="479" on="1"/>
        <pt x="362" y="530" on="0"/>
        <pt x="351" y="583" on="0"/>
        <pt x="311" y="610" on="0"/>
        <pt x="268" y="610" on="1"/>
        <pt x="155" y="610" on="1"/>
        <pt x="155" y="349" on="1"/>
        <pt x="267" y="349" on="1"/>
      </contour>
    </TTGlyph>
    <TTGlyph name="Racute" xMin="67" yMin="0" xMax="463" yMax="888">
      <component glyphName=".ttfautohint" x="67" y="0" flags="0x0"/>
      <component glyphName="R" x="0" y="0" flags="0x0"/>
      <component glyphName="acutecomb.case" x="359" y="0" flags="0x0"/>
    </TTGlyph>
    <TTGlyph name="Racute.ss01" xMin="68" yMin="0" xMax="455" yMax="888">
      <component glyphName=".ttfautohint" x="68" y="0" flags="0x0"/>
      <component glyphName="R.ss01" x="0" y="0" flags="0x0"/>
      <component glyphName="acutecomb.case" x="361" y="0" flags="0x0"/>
    </TTGlyph>
    <TTGlyph name="Rcaron" xMin="67" yMin="0" xMax="463" yMax="888">
      <component glyphName=".ttfautohint" x="67" y="0" flags="0x0"/>
      <component glyphName="R" x="0" y="0" flags="0x0"/>
      <component glyphName="uni030C.case" x="379" y="0" flags="0x0"/>
    </TTGlyph>
    <TTGlyph name="Rcaron.ss01" xMin="68" yMin="0" xMax="455" yMax="888">
      <component glyphName=".ttfautohint" x="68" y="0" flags="0x0"/>
      <component glyphName="R.ss01" x="0" y="0" flags="0x0"/>
      <component glyphName="uni030C.case" x="381" y="0" flags="0x0"/>
    </TTGlyph>
    <TTGlyph name="Rcommaaccent" xMin="67" yMin="-267" xMax="463" yMax="688">
      <component glyphName=".ttfautohint" x="67" y="0" flags="0x0"/>
      <component glyphName="R" x="0" y="0" flags="0x0"/>
      <component glyphName="uni0326" x="351" y="0" flags="0x0"/>
    </TTGlyph>
    <TTGlyph name="Rcommaaccent.ss01" xMin="68" yMin="-267" xMax="455" yMax="688">
      <component glyphName=".ttfautohint" x="68" y="0" flags="0x0"/>
      <component glyphName="R.ss01" x="0" y="0" flags="0x0"/>
      <component glyphName="uni0326" x="353" y="0" flags="0x0"/>
    </TTGlyph>
    <TTGlyph name="S" xMin="38" yMin="-8" xMax="410" yMax="696">
      <contour>
        <pt x="187" y="-8" on="0"/>
        <pt x="90" y="0" on="0"/>
        <pt x="53" y="6" on="1"/>
        <pt x="53" y="81" on="1"/>
        <pt x="141" y="70" on="0"/>
        <pt x="202" y="70" on="1"/>
        <pt x="241" y="70" on="0"/>
        <pt x="288" y="82" on="0"/>
        <pt x="302" y="95" on="1"/>
        <pt x="314" y="107" on="0"/>
        <pt x="322" y="151" on="0"/>
        <pt x="322" y="190" on="1"/>
        <pt x="322" y="240" on="0"/>
        <pt x="313" y="281" on="0"/>
        <pt x="284" y="299" on="0"/>
        <pt x="247" y="305" on="1"/>
        <pt x="134" y="323" on="1"/>
        <pt x="76" y="332" on="0"/>
        <pt x="38" y="417" on="0"/>
        <pt x="38" y="502" on="1"/>
        <pt x="38" y="610" on="0"/>
        <pt x="131" y="696" on="0"/>
        <pt x="229" y="696" on="1"/>
        <pt x="271" y="696" on="0"/>
        <pt x="357" y="687" on="0"/>
        <pt x="384" y="680" on="1"/>
        <pt x="384" y="607" on="1"/>
        <pt x="326" y="618" on="0"/>
        <pt x="251" y="618" on="1"/>
        <pt x="209" y="618" on="0"/>
        <pt x="160" y="606" on="0"/>
        <pt x="147" y="592" on="1"/>
        <pt x="134" y="579" on="0"/>
        <pt x="126" y="538" on="0"/>
        <pt x="126" y="504" on="1"/>
        <pt x="126" y="461" on="0"/>
        <pt x="134" y="424" on="0"/>
        <pt x="158" y="408" on="0"/>
        <pt x="185" y="404" on="1"/>
        <pt x="294" y="386" on="1"/>
        <pt x="335" y="379" on="0"/>
        <pt x="384" y="349" on="0"/>
        <pt x="397" y="313" on="1"/>
        <pt x="410" y="278" on="0"/>
        <pt x="410" y="199" on="1"/>
        <pt x="410" y="119" on="0"/>
        <pt x="373" y="29" on="0"/>
        <pt x="295" y="-8" on="0"/>
        <pt x="228" y="-8" on="1"/>
      </contour>
    </TTGlyph>
    <TTGlyph name="Sacute" xMin="38" yMin="-8" xMax="410" yMax="888">
      <component glyphName=".ttfautohint" x="38" y="0" flags="0x0"/>
      <component glyphName="S" x="0" y="0" flags="0x0"/>
      <component glyphName="acutecomb.case" x="334" y="0" flags="0x0"/>
    </TTGlyph>
    <TTGlyph name="Sacute.loclPLK" xMin="38" yMin="-8" xMax="410" yMax="888">
      <component glyphName=".ttfautohint" x="38" y="0" flags="0x0"/>
      <component glyphName="S" x="0" y="0" flags="0x0"/>
      <component glyphName="acute.case.loclPLK" x="178" y="0" flags="0x0"/>
    </TTGlyph>
    <TTGlyph name="Scaron" xMin="38" yMin="-8" xMax="410" yMax="887">
      <component glyphName=".ttfautohint" x="38" y="0" flags="0x0"/>
      <component glyphName="S" x="0" y="0" flags="0x0"/>
      <component glyphName="caron" x="101" y="144" flags="0x4"/>
    </TTGlyph>
    <TTGlyph name="Scedilla" xMin="38" yMin="-190" xMax="410" yMax="696">
      <contour>
        <pt x="410" y="124" on="0"/>
        <pt x="378" y="37" on="0"/>
        <pt x="310" y="-4" on="0"/>
        <pt x="253" y="-7" on="1"/>
        <pt x="215" y="-190" on="1"/>
        <pt x="136" y="-190" on="1"/>
        <pt x="136" y="-185" on="1"/>
        <pt x="193" y="-7" on="1"/>
        <pt x="117" y="-5" on="0"/>
        <pt x="53" y="6" on="1"/>
        <pt x="53" y="81" on="1"/>
        <pt x="141" y="70" on="0"/>
        <pt x="202" y="70" on="1"/>
        <pt x="241" y="70" on="0"/>
        <pt x="288" y="82" on="0"/>
        <pt x="302" y="95" on="1"/>
        <pt x="314" y="107" on="0"/>
        <pt x="322" y="151" on="0"/>
        <pt x="322" y="190" on="1"/>
        <pt x="322" y="240" on="0"/>
        <pt x="313" y="281" on="0"/>
        <pt x="284" y="299" on="0"/>
        <pt x="247" y="305" on="1"/>
        <pt x="134" y="323" on="1"/>
        <pt x="76" y="332" on="0"/>
        <pt x="38" y="417" on="0"/>
        <pt x="38" y="502" on="1"/>
        <pt x="38" y="610" on="0"/>
        <pt x="131" y="696" on="0"/>
        <pt x="229" y="696" on="1"/>
        <pt x="271" y="696" on="0"/>
        <pt x="357" y="687" on="0"/>
        <pt x="384" y="680" on="1"/>
        <pt x="384" y="607" on="1"/>
        <pt x="326" y="618" on="0"/>
        <pt x="251" y="618" on="1"/>
        <pt x="209" y="618" on="0"/>
        <pt x="160" y="606" on="0"/>
        <pt x="147" y="592" on="1"/>
        <pt x="134" y="579" on="0"/>
        <pt x="126" y="538" on="0"/>
        <pt x="126" y="504" on="1"/>
        <pt x="126" y="461" on="0"/>
        <pt x="134" y="424" on="0"/>
        <pt x="158" y="408" on="0"/>
        <pt x="185" y="404" on="1"/>
        <pt x="294" y="386" on="1"/>
        <pt x="335" y="379" on="0"/>
        <pt x="384" y="349" on="0"/>
        <pt x="397" y="313" on="1"/>
        <pt x="410" y="278" on="0"/>
        <pt x="410" y="199" on="1"/>
      </contour>
    </TTGlyph>
    <TTGlyph name="Scircumflex" xMin="38" yMin="-8" xMax="410" yMax="888">
      <component glyphName=".ttfautohint" x="38" y="0" flags="0x0"/>
      <component glyphName="S" x="0" y="0" flags="0x0"/>
      <component glyphName="uni0302.case" x="353" y="0" flags="0x0"/>
    </TTGlyph>
    <TTGlyph name="Scommaaccent" xMin="38" yMin="-267" xMax="410" yMax="696">
      <component glyphName=".ttfautohint" x="38" y="0" flags="0x0"/>
      <component glyphName="S" x="0" y="0" flags="0x0"/>
      <component glyphName="uni0326" x="325" y="0" flags="0x0"/>
    </TTGlyph>
    <TTGlyph name="T" xMin="15" yMin="0" xMax="404" yMax="688">
      <contour>
        <pt x="166" y="608" on="1"/>
        <pt x="15" y="608" on="1"/>
        <pt x="15" y="688" on="1"/>
        <pt x="404" y="688" on="1"/>
        <pt x="404" y="608" on="1"/>
        <pt x="254" y="608" on="1"/>
        <pt x="254" y="0" on="1"/>
        <pt x="166" y="0" on="1"/>
      </contour>
    </TTGlyph>
    <TTGlyph name="Tbar" xMin="15" yMin="0" xMax="404" yMax="688">
      <contour>
        <pt x="254" y="608" on="1"/>
        <pt x="254" y="377" on="1"/>
        <pt x="382" y="377" on="1"/>
        <pt x="382" y="305" on="1"/>
        <pt x="254" y="305" on="1"/>
        <pt x="254" y="0" on="1"/>
        <pt x="166" y="0" on="1"/>
        <pt x="166" y="305" on="1"/>
        <pt x="38" y="305" on="1"/>
        <pt x="38" y="377" on="1"/>
        <pt x="166" y="377" on="1"/>
        <pt x="166" y="608" on="1"/>
        <pt x="15" y="608" on="1"/>
        <pt x="15" y="688" on="1"/>
        <pt x="404" y="688" on="1"/>
        <pt x="404" y="608" on="1"/>
      </contour>
    </TTGlyph>
    <TTGlyph name="Tcaron" xMin="15" yMin="0" xMax="404" yMax="888">
      <component glyphName=".ttfautohint" x="15" y="0" flags="0x0"/>
      <component glyphName="T" x="0" y="0" flags="0x0"/>
      <component glyphName="uni030C.case" x="338" y="0" flags="0x0"/>
    </TTGlyph>
    <TTGlyph name="Thorn" xMin="67" yMin="0" xMax="444" yMax="688">
      <contour>
        <pt x="67" y="688" on="1"/>
        <pt x="155" y="688" on="1"/>
        <pt x="155" y="570" on="1"/>
        <pt x="279" y="570" on="1"/>
        <pt x="349" y="570" on="0"/>
        <pt x="421" y="516" on="0"/>
        <pt x="444" y="424" on="0"/>
        <pt x="444" y="351" on="1"/>
        <pt x="444" y="280" on="0"/>
        <pt x="421" y="187" on="0"/>
        <pt x="349" y="131" on="0"/>
        <pt x="278" y="131" on="1"/>
        <pt x="155" y="131" on="1"/>
        <pt x="155" y="0" on="1"/>
        <pt x="67" y="0" on="1"/>
      </contour>
      <contour>
        <pt x="255" y="209" on="1"/>
        <pt x="301" y="209" on="0"/>
        <pt x="343" y="237" on="0"/>
        <pt x="356" y="294" on="0"/>
        <pt x="356" y="351" on="1"/>
        <pt x="356" y="408" on="0"/>
        <pt x="344" y="464" on="0"/>
        <pt x="302" y="492" on="0"/>
        <pt x="256" y="492" on="1"/>
        <pt x="155" y="492" on="1"/>
        <pt x="155" y="209" on="1"/>
      </contour>
    </TTGlyph>
    <TTGlyph name="U" xMin="63" yMin="-8" xMax="458" yMax="688">
      <contour>
        <pt x="458" y="688" on="1"/>
        <pt x="458" y="300" on="1"/>
        <pt x="458" y="166" on="0"/>
        <pt x="434" y="44" on="0"/>
        <pt x="352" y="-8" on="0"/>
        <pt x="261" y="-8" on="1"/>
        <pt x="169" y="-8" on="0"/>
        <pt x="87" y="44" on="0"/>
        <pt x="63" y="166" on="0"/>
        <pt x="63" y="300" on="1"/>
        <pt x="63" y="688" on="1"/>
        <pt x="150" y="688" on="1"/>
        <pt x="150" y="263" on="1"/>
        <pt x="150" y="173" on="0"/>
        <pt x="162" y="99" on="0"/>
        <pt x="207" y="70" on="0"/>
        <pt x="261" y="70" on="1"/>
        <pt x="314" y="70" on="0"/>
        <pt x="358" y="98" on="0"/>
        <pt x="370" y="173" on="0"/>
        <pt x="370" y="263" on="1"/>
        <pt x="370" y="688" on="1"/>
      </contour>
    </TTGlyph>
    <TTGlyph name="Uacute" xMin="63" yMin="-8" xMax="458" yMax="892">
      <component glyphName=".ttfautohint" x="63" y="0" flags="0x0"/>
      <component glyphName="U" x="0" y="0" flags="0x0"/>
      <component glyphName="acute" x="220" y="149" flags="0x4"/>
    </TTGlyph>
    <TTGlyph name="Ubreve" xMin="63" yMin="-8" xMax="458" yMax="888">
      <component glyphName=".ttfautohint" x="63" y="0" flags="0x0"/>
      <component glyphName="U" x="0" y="0" flags="0x0"/>
      <component glyphName="uni0306.case" x="384" y="0" flags="0x0"/>
    </TTGlyph>
    <TTGlyph name="Ucircumflex" xMin="63" yMin="-8" xMax="458" yMax="887">
      <component glyphName=".ttfautohint" x="63" y="0" flags="0x0"/>
      <component glyphName="U" x="0" y="0" flags="0x0"/>
      <component glyphName="circumflex" x="132" y="144" flags="0x4"/>
    </TTGlyph>
    <TTGlyph name="Udieresis" xMin="63" yMin="-8" xMax="458" yMax="859">
      <component glyphName=".ttfautohint" x="63" y="0" flags="0x0"/>
      <component glyphName="U" x="0" y="0" flags="0x0"/>
      <component glyphName="dieresis" x="115" y="129" flags="0x4"/>
    </TTGlyph>
    <TTGlyph name="Ugrave" xMin="63" yMin="-8" xMax="458" yMax="892">
      <component glyphName=".ttfautohint" x="63" y="0" flags="0x0"/>
      <component glyphName="U" x="0" y="0" flags="0x0"/>
      <component glyphName="grave" x="153" y="149" flags="0x4"/>
    </TTGlyph>
    <TTGlyph name="Uhorn" xMin="63" yMin="-8" xMax="546" yMax="785">
      <contour>
        <pt x="546" y="785" on="1"/>
        <pt x="546" y="749" on="1"/>
        <pt x="546" y="710" on="0"/>
        <pt x="533" y="669" on="0"/>
        <pt x="496" y="649" on="0"/>
        <pt x="458" y="647" on="1"/>
        <pt x="458" y="300" on="1"/>
        <pt x="458" y="166" on="0"/>
        <pt x="434" y="44" on="0"/>
        <pt x="352" y="-8" on="0"/>
        <pt x="261" y="-8" on="1"/>
        <pt x="169" y="-8" on="0"/>
        <pt x="87" y="44" on="0"/>
        <pt x="63" y="166" on="0"/>
        <pt x="63" y="300" on="1"/>
        <pt x="63" y="688" on="1"/>
        <pt x="150" y="688" on="1"/>
        <pt x="150" y="263" on="1"/>
        <pt x="150" y="173" on="0"/>
        <pt x="162" y="99" on="0"/>
        <pt x="207" y="70" on="0"/>
        <pt x="261" y="70" on="1"/>
        <pt x="314" y="70" on="0"/>
        <pt x="358" y="98" on="0"/>
        <pt x="370" y="173" on="0"/>
        <pt x="370" y="263" on="1"/>
        <pt x="370" y="688" on="1"/>
        <pt x="428" y="688" on="1"/>
        <pt x="466" y="688" on="0"/>
        <pt x="489" y="707" on="0"/>
        <pt x="489" y="734" on="1"/>
        <pt x="489" y="785" on="1"/>
      </contour>
    </TTGlyph>
    <TTGlyph name="Uhungarumlaut" xMin="63" yMin="-8" xMax="458" yMax="878">
      <component glyphName=".ttfautohint" x="63" y="0" flags="0x0"/>
      <component glyphName="U" x="0" y="0" flags="0x0"/>
      <component glyphName="uni030B.case" x="443" y="0" flags="0x0"/>
    </TTGlyph>
    <TTGlyph name="Umacron" xMin="63" yMin="-8" xMax="458" yMax="888">
      <component glyphName=".ttfautohint" x="63" y="0" flags="0x0"/>
      <component glyphName="U" x="0" y="0" flags="0x0"/>
      <component glyphName="uni0304.case" x="415" y="0" flags="0x0"/>
    </TTGlyph>
    <TTGlyph name="Uogonek" xMin="63" yMin="-196" xMax="458" yMax="688">
      <contour>
        <pt x="458" y="688" on="1"/>
        <pt x="458" y="300" on="1"/>
        <pt x="458" y="211" on="0"/>
        <pt x="449" y="106" on="0"/>
        <pt x="422" y="38" on="0"/>
        <pt x="395" y="19" on="1"/>
        <pt x="359" y="-5" on="0"/>
        <pt x="317" y="-67" on="0"/>
        <pt x="317" y="-101" on="1"/>
        <pt x="317" y="-142" on="0"/>
        <pt x="361" y="-142" on="1"/>
        <pt x="377" y="-141" on="1"/>
        <pt x="377" y="-194" on="1"/>
        <pt x="345" y="-196" on="0"/>
        <pt x="338" y="-196" on="1"/>
        <pt x="247" y="-196" on="0"/>
        <pt x="247" y="-118" on="1"/>
        <pt x="247" y="-92" on="0"/>
        <pt x="275" y="-33" on="0"/>
        <pt x="300" y="-6" on="1"/>
        <pt x="287" y="-8" on="0"/>
        <pt x="261" y="-8" on="1"/>
        <pt x="169" y="-8" on="0"/>
        <pt x="87" y="44" on="0"/>
        <pt x="63" y="166" on="0"/>
        <pt x="63" y="300" on="1"/>
        <pt x="63" y="688" on="1"/>
        <pt x="150" y="688" on="1"/>
        <pt x="150" y="263" on="1"/>
        <pt x="150" y="173" on="0"/>
        <pt x="162" y="99" on="0"/>
        <pt x="207" y="70" on="0"/>
        <pt x="261" y="70" on="1"/>
        <pt x="314" y="70" on="0"/>
        <pt x="358" y="98" on="0"/>
        <pt x="370" y="173" on="0"/>
        <pt x="370" y="263" on="1"/>
        <pt x="370" y="688" on="1"/>
      </contour>
    </TTGlyph>
    <TTGlyph name="Uring" xMin="63" yMin="-8" xMax="458" yMax="925">
      <component glyphName=".ttfautohint" x="63" y="0" flags="0x0"/>
      <component glyphName="U" x="0" y="0" flags="0x0"/>
      <component glyphName="uni030A.case" x="377" y="0" flags="0x0"/>
    </TTGlyph>
    <TTGlyph name="Utilde" xMin="63" yMin="-8" xMax="458" yMax="888">
      <component glyphName=".ttfautohint" x="63" y="0" flags="0x0"/>
      <component glyphName="U" x="0" y="0" flags="0x0"/>
      <component glyphName="tildecomb.case" x="413" y="0" flags="0x0"/>
    </TTGlyph>
    <TTGlyph name="V" xMin="11" yMin="0" xMax="463" yMax="688">
      <contour>
        <pt x="11" y="688" on="1"/>
        <pt x="101" y="688" on="1"/>
        <pt x="235" y="107" on="1"/>
        <pt x="241" y="107" on="1"/>
        <pt x="375" y="688" on="1"/>
        <pt x="463" y="688" on="1"/>
        <pt x="297" y="0" on="1"/>
        <pt x="177" y="0" on="1"/>
      </contour>
    </TTGlyph>
    <TTGlyph name="W" xMin="16" yMin="0" xMax="701" yMax="688">
      <contour>
        <pt x="361" y="544" on="1"/>
        <pt x="356" y="544" on="1"/>
        <pt x="254" y="0" on="1"/>
        <pt x="140" y="0" on="1"/>
        <pt x="16" y="688" on="1"/>
        <pt x="105" y="688" on="1"/>
        <pt x="198" y="117" on="1"/>
        <pt x="204" y="117" on="1"/>
        <pt x="310" y="688" on="1"/>
        <pt x="411" y="688" on="1"/>
        <pt x="518" y="117" on="1"/>
        <pt x="523" y="117" on="1"/>
        <pt x="614" y="688" on="1"/>
        <pt x="701" y="688" on="1"/>
        <pt x="577" y="0" on="1"/>
        <pt x="464" y="0" on="1"/>
      </contour>
    </TTGlyph>
    <TTGlyph name="Wacute" xMin="16" yMin="0" xMax="701" yMax="888">
      <component glyphName=".ttfautohint" x="16" y="0" flags="0x0"/>
      <component glyphName="W" x="0" y="0" flags="0x0"/>
      <component glyphName="acutecomb.case" x="467" y="0" flags="0x0"/>
    </TTGlyph>
    <TTGlyph name="Wcircumflex" xMin="16" yMin="0" xMax="701" yMax="888">
      <component glyphName=".ttfautohint" x="16" y="0" flags="0x0"/>
      <component glyphName="W" x="0" y="0" flags="0x0"/>
      <component glyphName="uni0302.case" x="487" y="0" flags="0x0"/>
    </TTGlyph>
    <TTGlyph name="Wdieresis" xMin="16" yMin="0" xMax="701" yMax="875">
      <component glyphName=".ttfautohint" x="16" y="0" flags="0x0"/>
      <component glyphName="W" x="0" y="0" flags="0x0"/>
      <component glyphName="uni0308.case" x="503" y="0" flags="0x0"/>
    </TTGlyph>
    <TTGlyph name="Wgrave" xMin="16" yMin="0" xMax="701" yMax="888">
      <component glyphName=".ttfautohint" x="16" y="0" flags="0x0"/>
      <component glyphName="W" x="0" y="0" flags="0x0"/>
      <component glyphName="gravecomb.case" x="403" y="0" flags="0x0"/>
    </TTGlyph>
    <TTGlyph name="X" xMin="16" yMin="0" xMax="478" yMax="688">
      <contour>
        <pt x="249" y="275" on="1"/>
        <pt x="242" y="275" on="1"/>
        <pt x="111" y="0" on="1"/>
        <pt x="16" y="0" on="1"/>
        <pt x="190" y="346" on="1"/>
        <pt x="19" y="688" on="1"/>
        <pt x="116" y="688" on="1"/>
        <pt x="246" y="420" on="1"/>
        <pt x="252" y="420" on="1"/>
        <pt x="381" y="688" on="1"/>
        <pt x="476" y="688" on="1"/>
        <pt x="305" y="348" on="1"/>
        <pt x="478" y="0" on="1"/>
        <pt x="381" y="0" on="1"/>
      </contour>
    </TTGlyph>
    <TTGlyph name="Y" xMin="2" yMin="0" xMax="443" yMax="688">
      <contour>
        <pt x="179" y="258" on="1"/>
        <pt x="2" y="688" on="1"/>
        <pt x="94" y="688" on="1"/>
        <pt x="222" y="363" on="1"/>
        <pt x="229" y="363" on="1"/>
        <pt x="355" y="688" on="1"/>
        <pt x="443" y="688" on="1"/>
        <pt x="266" y="258" on="1"/>
        <pt x="266" y="0" on="1"/>
        <pt x="179" y="0" on="1"/>
      </contour>
    </TTGlyph>
    <TTGlyph name="Y.loclGUA" xMin="26" yMin="0" xMax="422" yMax="688">
      <contour>
        <pt x="422" y="688" on="1"/>
        <pt x="422" y="504" on="1"/>
        <pt x="422" y="381" on="0"/>
        <pt x="402" y="261" on="0"/>
        <pt x="337" y="202" on="0"/>
        <pt x="266" y="197" on="1"/>
        <pt x="266" y="0" on="1"/>
        <pt x="179" y="0" on="1"/>
        <pt x="179" y="197" on="1"/>
        <pt x="110" y="203" on="0"/>
        <pt x="46" y="262" on="0"/>
        <pt x="26" y="382" on="0"/>
        <pt x="26" y="504" on="1"/>
        <pt x="26" y="688" on="1"/>
        <pt x="114" y="688" on="1"/>
        <pt x="114" y="467" on="1"/>
        <pt x="114" y="377" on="0"/>
        <pt x="126" y="303" on="0"/>
        <pt x="171" y="274" on="0"/>
        <pt x="224" y="274" on="1"/>
        <pt x="278" y="274" on="0"/>
        <pt x="322" y="302" on="0"/>
        <pt x="334" y="377" on="0"/>
        <pt x="334" y="467" on="1"/>
        <pt x="334" y="688" on="1"/>
      </contour>
    </TTGlyph>
    <TTGlyph name="Yacute" xMin="2" yMin="0" xMax="443" yMax="892">
      <component glyphName=".ttfautohint" x="2" y="0" flags="0x0"/>
      <component glyphName="Y" x="0" y="0" flags="0x0"/>
      <component glyphName="acute" x="185" y="149" flags="0x4"/>
    </TTGlyph>
    <TTGlyph name="Yacute.loclGUA" xMin="26" yMin="0" xMax="422" yMax="888">
      <component glyphName=".ttfautohint" x="26" y="0" flags="0x0"/>
      <component glyphName="Y.loclGUA" x="0" y="0" flags="0x0"/>
      <component glyphName="acutecomb.case" x="333" y="0" flags="0x0"/>
    </TTGlyph>
    <TTGlyph name="Ycircumflex" xMin="2" yMin="0" xMax="443" yMax="888">
      <component glyphName=".ttfautohint" x="2" y="0" flags="0x0"/>
      <component glyphName="Y" x="0" y="0" flags="0x0"/>
      <component glyphName="uni0302.case" x="351" y="0" flags="0x0"/>
    </TTGlyph>
    <TTGlyph name="Ycircumflex.loclGUA" xMin="26" yMin="0" xMax="422" yMax="888">
      <component glyphName=".ttfautohint" x="26" y="0" flags="0x0"/>
      <component glyphName="Y.loclGUA" x="0" y="0" flags="0x0"/>
      <component glyphName="uni0302.case" x="352" y="0" flags="0x0"/>
    </TTGlyph>
    <TTGlyph name="Ydieresis" xMin="2" yMin="0" xMax="443" yMax="859">
      <component glyphName=".ttfautohint" x="2" y="0" flags="0x0"/>
      <component glyphName="Y" x="0" y="0" flags="0x0"/>
      <component glyphName="dieresis" x="81" y="129" flags="0x4"/>
    </TTGlyph>
    <TTGlyph name="Ydieresis.loclGUA" xMin="26" yMin="0" xMax="422" yMax="875">
      <component glyphName=".ttfautohint" x="26" y="0" flags="0x0"/>
      <component glyphName="Y.loclGUA" x="0" y="0" flags="0x0"/>
      <component glyphName="uni0308.case" x="368" y="0" flags="0x0"/>
    </TTGlyph>
    <TTGlyph name="Ygrave" xMin="2" yMin="0" xMax="443" yMax="888">
      <component glyphName=".ttfautohint" x="2" y="0" flags="0x0"/>
      <component glyphName="Y" x="0" y="0" flags="0x0"/>
      <component glyphName="gravecomb.case" x="267" y="0" flags="0x0"/>
    </TTGlyph>
    <TTGlyph name="Ygrave.loclGUA" xMin="26" yMin="0" xMax="422" yMax="888">
      <component glyphName=".ttfautohint" x="26" y="0" flags="0x0"/>
      <component glyphName="Y.loclGUA" x="0" y="0" flags="0x0"/>
      <component glyphName="gravecomb.case" x="268" y="0" flags="0x0"/>
    </TTGlyph>
    <TTGlyph name="Z" xMin="30" yMin="0" xMax="404" yMax="688">
      <contour>
        <pt x="30" y="74" on="1"/>
        <pt x="298" y="610" on="1"/>
        <pt x="38" y="610" on="1"/>
        <pt x="38" y="688" on="1"/>
        <pt x="400" y="688" on="1"/>
        <pt x="400" y="615" on="1"/>
        <pt x="132" y="77" on="1"/>
        <pt x="404" y="77" on="1"/>
        <pt x="404" y="0" on="1"/>
        <pt x="30" y="0" on="1"/>
      </contour>
    </TTGlyph>
    <TTGlyph name="Zacute" xMin="30" yMin="0" xMax="404" yMax="888">
      <component glyphName=".ttfautohint" x="30" y="0" flags="0x0"/>
      <component glyphName="Z" x="0" y="0" flags="0x0"/>
      <component glyphName="acutecomb.case" x="326" y="0" flags="0x0"/>
    </TTGlyph>
    <TTGlyph name="Zacute.loclPLK" xMin="30" yMin="0" xMax="404" yMax="888">
      <component glyphName=".ttfautohint" x="30" y="0" flags="0x0"/>
      <component glyphName="Z" x="0" y="0" flags="0x0"/>
      <component glyphName="acute.case.loclPLK" x="170" y="0" flags="0x0"/>
    </TTGlyph>
    <TTGlyph name="Zcaron" xMin="30" yMin="0" xMax="404" yMax="887">
      <component glyphName=".ttfautohint" x="30" y="0" flags="0x0"/>
      <component glyphName="Z" x="0" y="0" flags="0x0"/>
      <component glyphName="caron" x="97" y="144" flags="0x4"/>
    </TTGlyph>
    <TTGlyph name="Zdotaccent" xMin="30" yMin="0" xMax="404" yMax="875">
      <component glyphName=".ttfautohint" x="30" y="0" flags="0x0"/>
      <component glyphName="Z" x="0" y="0" flags="0x0"/>
      <component glyphName="uni0307.case" x="271" y="0" flags="0x0"/>
    </TTGlyph>
    <TTGlyph name="a" xMin="34" yMin="-8" xMax="372" yMax="518">
      <contour>
        <pt x="94" y="-8" on="0"/>
        <pt x="34" y="60" on="0"/>
        <pt x="34" y="142" on="1"/>
        <pt x="34" y="200" on="0"/>
        <pt x="58" y="266" on="0"/>
        <pt x="113" y="296" on="0"/>
        <pt x="163" y="296" on="1"/>
        <pt x="211" y="296" on="0"/>
        <pt x="289" y="291" on="1"/>
        <pt x="289" y="322" on="1"/>
        <pt x="289" y="380" on="0"/>
        <pt x="272" y="430" on="0"/>
        <pt x="229" y="445" on="0"/>
        <pt x="179" y="445" on="1"/>
        <pt x="133" y="445" on="0"/>
        <pt x="59" y="436" on="1"/>
        <pt x="59" y="503" on="1"/>
        <pt x="127" y="518" on="0"/>
        <pt x="203" y="518" on="1"/>
        <pt x="273" y="518" on="0"/>
        <pt x="345" y="482" on="0"/>
        <pt x="372" y="399" on="0"/>
        <pt x="372" y="320" on="1"/>
        <pt x="372" y="0" on="1"/>
        <pt x="297" y="0" on="1"/>
        <pt x="293" y="67" on="1"/>
        <pt x="287" y="67" on="1"/>
        <pt x="273" y="23" on="0"/>
        <pt x="205" y="-8" on="0"/>
        <pt x="161" y="-8" on="1"/>
      </contour>
      <contour>
        <pt x="222" y="67" on="0"/>
        <pt x="260" y="81" on="0"/>
        <pt x="272" y="102" on="1"/>
        <pt x="289" y="134" on="0"/>
        <pt x="289" y="202" on="1"/>
        <pt x="289" y="230" on="1"/>
        <pt x="184" y="230" on="1"/>
        <pt x="155" y="230" on="0"/>
        <pt x="128" y="218" on="0"/>
        <pt x="117" y="184" on="0"/>
        <pt x="117" y="148" on="1"/>
        <pt x="117" y="113" on="0"/>
        <pt x="129" y="80" on="0"/>
        <pt x="160" y="67" on="0"/>
        <pt x="193" y="67" on="1"/>
      </contour>
    </TTGlyph>
    <TTGlyph name="aacute" xMin="34" yMin="-8" xMax="372" yMax="743">
      <component glyphName=".ttfautohint" x="34" y="0" flags="0x0"/>
      <component glyphName="a" x="0" y="0" flags="0x0"/>
      <component glyphName="acute" x="168" y="0" flags="0x0"/>
    </TTGlyph>
    <TTGlyph name="abreve" xMin="34" yMin="-8" xMax="372" yMax="743">
      <component glyphName=".ttfautohint" x="34" y="0" flags="0x0"/>
      <component glyphName="a" x="0" y="0" flags="0x0"/>
      <component glyphName="uni0306" x="339" y="0" flags="0x0"/>
    </TTGlyph>
    <TTGlyph name="acircumflex" xMin="34" yMin="-8" xMax="372" yMax="743">
      <component glyphName=".ttfautohint" x="34" y="0" flags="0x0"/>
      <component glyphName="a" x="0" y="0" flags="0x0"/>
      <component glyphName="circumflex" x="86" y="0" flags="0x0"/>
    </TTGlyph>
    <TTGlyph name="acute" xMin="7" yMin="601" xMax="149" yMax="743">
      <contour>
        <pt x="7" y="606" on="1"/>
        <pt x="62" y="743" on="1"/>
        <pt x="149" y="743" on="1"/>
        <pt x="149" y="738" on="1"/>
        <pt x="70" y="601" on="1"/>
        <pt x="7" y="601" on="1"/>
      </contour>
    </TTGlyph>
    <TTGlyph name="acute.case.loclPLK" xMin="7" yMin="746" xMax="119" yMax="888">
      <contour>
        <pt x="7" y="751" on="1"/>
        <pt x="32" y="888" on="1"/>
        <pt x="119" y="888" on="1"/>
        <pt x="119" y="883" on="1"/>
        <pt x="70" y="746" on="1"/>
        <pt x="7" y="746" on="1"/>
      </contour>
    </TTGlyph>
    <TTGlyph name="acute.loclPLK" xMin="7" yMin="601" xMax="119" yMax="743">
      <contour>
        <pt x="7" y="606" on="1"/>
        <pt x="32" y="743" on="1"/>
        <pt x="119" y="743" on="1"/>
        <pt x="119" y="738" on="1"/>
        <pt x="70" y="601" on="1"/>
        <pt x="7" y="601" on="1"/>
      </contour>
    </TTGlyph>
    <TTGlyph name="acutecomb" xMin="-149" yMin="601" xMax="-7" yMax="743">
      <contour>
        <pt x="-149" y="606" on="1"/>
        <pt x="-94" y="743" on="1"/>
        <pt x="-7" y="743" on="1"/>
        <pt x="-7" y="738" on="1"/>
        <pt x="-86" y="601" on="1"/>
        <pt x="-149" y="601" on="1"/>
      </contour>
    </TTGlyph>
    <TTGlyph name="acutecomb.case" xMin="-149" yMin="746" xMax="-7" yMax="888">
      <contour>
        <pt x="-149" y="751" on="1"/>
        <pt x="-94" y="888" on="1"/>
        <pt x="-7" y="888" on="1"/>
        <pt x="-7" y="883" on="1"/>
        <pt x="-86" y="746" on="1"/>
        <pt x="-149" y="746" on="1"/>
      </contour>
    </TTGlyph>
    <TTGlyph name="adieresis" xMin="34" yMin="-8" xMax="372" yMax="726">
      <component glyphName=".ttfautohint" x="34" y="0" flags="0x0"/>
      <component glyphName="a" x="0" y="0" flags="0x0"/>
      <component glyphName="dieresis" x="70" y="-4" flags="0x4"/>
    </TTGlyph>
    <TTGlyph name="ae" xMin="34" yMin="-8" xMax="629" yMax="518">
      <contour>
        <pt x="629" y="227" on="1"/>
        <pt x="371" y="227" on="1"/>
        <pt x="371" y="152" on="0"/>
        <pt x="384" y="89" on="0"/>
        <pt x="432" y="65" on="0"/>
        <pt x="488" y="65" on="1"/>
        <pt x="542" y="65" on="0"/>
        <pt x="615" y="75" on="1"/>
        <pt x="615" y="6" on="1"/>
        <pt x="590" y="0" on="0"/>
        <pt x="509" y="-8" on="0"/>
        <pt x="472" y="-8" on="1"/>
        <pt x="410" y="-8" on="0"/>
        <pt x="340" y="22" on="0"/>
        <pt x="322" y="58" on="1"/>
        <pt x="301" y="18" on="0"/>
        <pt x="226" y="-7" on="0"/>
        <pt x="176" y="-7" on="1"/>
        <pt x="99" y="-7" on="0"/>
        <pt x="34" y="59" on="0"/>
        <pt x="34" y="141" on="1"/>
        <pt x="34" y="199" on="0"/>
        <pt x="58" y="265" on="0"/>
        <pt x="113" y="294" on="0"/>
        <pt x="163" y="294" on="1"/>
        <pt x="210" y="294" on="0"/>
        <pt x="288" y="292" on="1"/>
        <pt x="288" y="322" on="1"/>
        <pt x="288" y="381" on="0"/>
        <pt x="272" y="430" on="0"/>
        <pt x="229" y="445" on="0"/>
        <pt x="178" y="445" on="1"/>
        <pt x="157" y="445" on="0"/>
        <pt x="87" y="439" on="0"/>
        <pt x="58" y="435" on="1"/>
        <pt x="58" y="503" on="1"/>
        <pt x="135" y="518" on="0"/>
        <pt x="202" y="518" on="1"/>
        <pt x="252" y="518" on="0"/>
        <pt x="314" y="496" on="0"/>
        <pt x="332" y="470" on="1"/>
        <pt x="351" y="495" on="0"/>
        <pt x="416" y="518" on="0"/>
        <pt x="466" y="518" on="1"/>
        <pt x="543" y="518" on="0"/>
        <pt x="611" y="469" on="0"/>
        <pt x="629" y="366" on="0"/>
        <pt x="629" y="256" on="1"/>
      </contour>
      <contour>
        <pt x="421" y="445" on="0"/>
        <pt x="384" y="423" on="0"/>
        <pt x="372" y="362" on="0"/>
        <pt x="371" y="292" on="1"/>
        <pt x="548" y="292" on="1"/>
        <pt x="548" y="297" on="1"/>
        <pt x="548" y="365" on="0"/>
        <pt x="534" y="426" on="0"/>
        <pt x="501" y="445" on="0"/>
        <pt x="464" y="445" on="1"/>
      </contour>
      <contour>
        <pt x="288" y="228" on="1"/>
        <pt x="182" y="228" on="1"/>
        <pt x="153" y="228" on="0"/>
        <pt x="125" y="216" on="0"/>
        <pt x="114" y="183" on="0"/>
        <pt x="114" y="147" on="1"/>
        <pt x="114" y="112" on="0"/>
        <pt x="126" y="78" on="0"/>
        <pt x="159" y="65" on="0"/>
        <pt x="192" y="65" on="1"/>
        <pt x="224" y="65" on="0"/>
        <pt x="264" y="82" on="0"/>
        <pt x="274" y="108" on="1"/>
        <pt x="288" y="140" on="0"/>
        <pt x="288" y="200" on="1"/>
      </contour>
    </TTGlyph>
    <TTGlyph name="aeacute" xMin="34" yMin="-8" xMax="629" yMax="743">
      <component glyphName=".ttfautohint" x="34" y="0" flags="0x0"/>
      <component glyphName="ae" x="0" y="0" flags="0x0"/>
      <component glyphName="acutecomb" x="448" y="0" flags="0x0"/>
    </TTGlyph>
    <TTGlyph name="agrave" xMin="34" yMin="-8" xMax="372" yMax="743">
      <component glyphName=".ttfautohint" x="34" y="0" flags="0x0"/>
      <component glyphName="a" x="0" y="0" flags="0x0"/>
      <component glyphName="grave" x="105" y="0" flags="0x0"/>
    </TTGlyph>
    <TTGlyph name="amacron" xMin="34" yMin="-8" xMax="372" yMax="743">
      <component glyphName=".ttfautohint" x="34" y="0" flags="0x0"/>
      <component glyphName="a" x="0" y="0" flags="0x0"/>
      <component glyphName="uni0304" x="370" y="0" flags="0x0"/>
    </TTGlyph>
    <TTGlyph name="ampersand" xMin="49" yMin="-8" xMax="522" yMax="696">
      <contour>
        <pt x="522" y="385" on="1"/>
        <pt x="522" y="311" on="1"/>
        <pt x="437" y="311" on="1"/>
        <pt x="437" y="9" on="1"/>
        <pt x="400" y="2" on="0"/>
        <pt x="306" y="-8" on="0"/>
        <pt x="269" y="-8" on="1"/>
        <pt x="179" y="-8" on="0"/>
        <pt x="84" y="35" on="0"/>
        <pt x="49" y="116" on="0"/>
        <pt x="49" y="183" on="1"/>
        <pt x="49" y="263" on="0"/>
        <pt x="95" y="334" on="0"/>
        <pt x="146" y="349" on="1"/>
        <pt x="146" y="353" on="1"/>
        <pt x="98" y="367" on="0"/>
        <pt x="54" y="442" on="0"/>
        <pt x="54" y="515" on="1"/>
        <pt x="54" y="576" on="0"/>
        <pt x="92" y="655" on="0"/>
        <pt x="186" y="696" on="0"/>
        <pt x="270" y="696" on="1"/>
        <pt x="306" y="696" on="0"/>
        <pt x="399" y="686" on="0"/>
        <pt x="436" y="678" on="1"/>
        <pt x="436" y="610" on="1"/>
        <pt x="354" y="623" on="0"/>
        <pt x="295" y="623" on="1"/>
        <pt x="226" y="623" on="0"/>
        <pt x="160" y="601" on="0"/>
        <pt x="138" y="551" on="0"/>
        <pt x="138" y="502" on="1"/>
        <pt x="138" y="444" on="0"/>
        <pt x="174" y="385" on="0"/>
        <pt x="232" y="385" on="1"/>
        <pt x="288" y="385" on="1"/>
        <pt x="288" y="311" on="1"/>
        <pt x="232" y="311" on="1"/>
        <pt x="190" y="311" on="0"/>
        <pt x="147" y="285" on="0"/>
        <pt x="133" y="233" on="0"/>
        <pt x="133" y="187" on="1"/>
        <pt x="133" y="134" on="0"/>
        <pt x="162" y="82" on="0"/>
        <pt x="222" y="64" on="0"/>
        <pt x="276" y="64" on="1"/>
        <pt x="319" y="64" on="0"/>
        <pt x="355" y="71" on="1"/>
        <pt x="355" y="385" on="1"/>
      </contour>
    </TTGlyph>
    <TTGlyph name="aogonek" xMin="33" yMin="-196" xMax="374" yMax="518">
      <contour>
        <pt x="374" y="-141" on="1"/>
        <pt x="374" y="-194" on="1"/>
        <pt x="342" y="-196" on="0"/>
        <pt x="336" y="-196" on="1"/>
        <pt x="287" y="-196" on="0"/>
        <pt x="244" y="-154" on="0"/>
        <pt x="244" y="-120" on="1"/>
        <pt x="244" y="-89" on="0"/>
        <pt x="276" y="-27" on="0"/>
        <pt x="303" y="0" on="1"/>
        <pt x="296" y="0" on="1"/>
        <pt x="292" y="67" on="1"/>
        <pt x="287" y="67" on="1"/>
        <pt x="272" y="23" on="0"/>
        <pt x="205" y="-8" on="0"/>
        <pt x="161" y="-8" on="1"/>
        <pt x="93" y="-8" on="0"/>
        <pt x="33" y="59" on="0"/>
        <pt x="33" y="142" on="1"/>
        <pt x="33" y="200" on="0"/>
        <pt x="57" y="266" on="0"/>
        <pt x="112" y="295" on="0"/>
        <pt x="162" y="295" on="1"/>
        <pt x="188" y="295" on="0"/>
        <pt x="288" y="290" on="1"/>
        <pt x="288" y="322" on="1"/>
        <pt x="288" y="381" on="0"/>
        <pt x="272" y="431" on="0"/>
        <pt x="228" y="446" on="0"/>
        <pt x="178" y="446" on="1"/>
        <pt x="157" y="446" on="0"/>
        <pt x="83" y="440" on="0"/>
        <pt x="58" y="436" on="1"/>
        <pt x="58" y="504" on="1"/>
        <pt x="131" y="518" on="0"/>
        <pt x="202" y="518" on="1"/>
        <pt x="273" y="518" on="0"/>
        <pt x="345" y="482" on="0"/>
        <pt x="371" y="400" on="0"/>
        <pt x="371" y="321" on="1"/>
        <pt x="371" y="0" on="1"/>
        <pt x="351" y="-16" on="0"/>
        <pt x="314" y="-77" on="0"/>
        <pt x="314" y="-103" on="1"/>
        <pt x="314" y="-120" on="0"/>
        <pt x="335" y="-142" on="0"/>
        <pt x="358" y="-142" on="1"/>
      </contour>
      <contour>
        <pt x="288" y="232" on="1"/>
        <pt x="184" y="232" on="1"/>
        <pt x="155" y="232" on="0"/>
        <pt x="127" y="220" on="0"/>
        <pt x="116" y="185" on="0"/>
        <pt x="116" y="148" on="1"/>
        <pt x="116" y="113" on="0"/>
        <pt x="128" y="79" on="0"/>
        <pt x="160" y="66" on="0"/>
        <pt x="193" y="66" on="1"/>
        <pt x="223" y="66" on="0"/>
        <pt x="262" y="80" on="0"/>
        <pt x="273" y="102" on="1"/>
        <pt x="288" y="137" on="0"/>
        <pt x="288" y="202" on="1"/>
      </contour>
    </TTGlyph>
    <TTGlyph name="approxequal" xMin="58" yMin="103" xMax="386" yMax="402">
      <contour>
        <pt x="58" y="322" on="0"/>
        <pt x="67" y="368" on="0"/>
        <pt x="99" y="392" on="0"/>
        <pt x="132" y="392" on="1"/>
        <pt x="155" y="392" on="0"/>
        <pt x="199" y="381" on="0"/>
        <pt x="234" y="369" on="1"/>
        <pt x="242" y="366" on="0"/>
        <pt x="289" y="351" on="0"/>
        <pt x="306" y="351" on="1"/>
        <pt x="325" y="351" on="0"/>
        <pt x="336" y="372" on="0"/>
        <pt x="336" y="402" on="1"/>
        <pt x="386" y="402" on="1"/>
        <pt x="386" y="359" on="0"/>
        <pt x="377" y="313" on="0"/>
        <pt x="346" y="289" on="0"/>
        <pt x="313" y="289" on="1"/>
        <pt x="290" y="289" on="0"/>
        <pt x="243" y="300" on="0"/>
        <pt x="211" y="311" on="1"/>
        <pt x="192" y="318" on="0"/>
        <pt x="153" y="329" on="0"/>
        <pt x="138" y="329" on="1"/>
        <pt x="119" y="329" on="0"/>
        <pt x="109" y="308" on="0"/>
        <pt x="109" y="278" on="1"/>
        <pt x="58" y="278" on="1"/>
      </contour>
      <contour>
        <pt x="58" y="147" on="0"/>
        <pt x="67" y="194" on="0"/>
        <pt x="99" y="218" on="0"/>
        <pt x="132" y="218" on="1"/>
        <pt x="155" y="218" on="0"/>
        <pt x="199" y="207" on="0"/>
        <pt x="234" y="195" on="1"/>
        <pt x="240" y="193" on="0"/>
        <pt x="288" y="178" on="0"/>
        <pt x="306" y="178" on="1"/>
        <pt x="325" y="178" on="0"/>
        <pt x="336" y="199" on="0"/>
        <pt x="336" y="229" on="1"/>
        <pt x="386" y="229" on="1"/>
        <pt x="386" y="185" on="0"/>
        <pt x="377" y="138" on="0"/>
        <pt x="346" y="114" on="0"/>
        <pt x="313" y="114" on="1"/>
        <pt x="290" y="114" on="0"/>
        <pt x="246" y="125" on="0"/>
        <pt x="211" y="137" on="1"/>
        <pt x="192" y="144" on="0"/>
        <pt x="153" y="155" on="0"/>
        <pt x="138" y="155" on="1"/>
        <pt x="119" y="155" on="0"/>
        <pt x="109" y="134" on="0"/>
        <pt x="109" y="103" on="1"/>
        <pt x="58" y="103" on="1"/>
      </contour>
    </TTGlyph>
    <TTGlyph name="aring" xMin="34" yMin="-8" xMax="372" yMax="796">
      <component glyphName=".ttfautohint" x="34" y="0" flags="0x0"/>
      <component glyphName="a" x="0" y="0" flags="0x0"/>
      <component glyphName="ring" x="98" y="-14" flags="0x4"/>
    </TTGlyph>
    <TTGlyph name="aringacute" xMin="34" yMin="-8" xMax="372" yMax="983">
      <component glyphName=".ttfautohint" x="34" y="0" flags="0x0"/>
      <component glyphName="a" x="0" y="0" flags="0x0"/>
      <component glyphName="uni030A" x="332" y="0" flags="0x0"/>
      <component glyphName="acutecomb" x="328" y="240" flags="0x4"/>
    </TTGlyph>
    <TTGlyph name="arrowboth" xMin="55" yMin="173" xMax="828" yMax="436">
      <contour>
        <pt x="55" y="304" on="1"/>
        <pt x="329" y="436" on="1"/>
        <pt x="293" y="339" on="1"/>
        <pt x="590" y="339" on="1"/>
        <pt x="554" y="436" on="1"/>
        <pt x="828" y="304" on="1"/>
        <pt x="554" y="173" on="1"/>
        <pt x="590" y="269" on="1"/>
        <pt x="293" y="269" on="1"/>
        <pt x="329" y="173" on="1"/>
      </contour>
    </TTGlyph>
    <TTGlyph name="arrowdown" xMin="66" yMin="-85" xMax="329" yMax="688">
      <contour>
        <pt x="66" y="189" on="1"/>
        <pt x="163" y="153" on="1"/>
        <pt x="163" y="688" on="1"/>
        <pt x="233" y="688" on="1"/>
        <pt x="233" y="153" on="1"/>
        <pt x="329" y="189" on="1"/>
        <pt x="198" y="-85" on="1"/>
      </contour>
    </TTGlyph>
    <TTGlyph name="arrowdown.ss01" xMin="30" yMin="171" xMax="315" yMax="456">
      <contour>
        <pt x="30" y="456" on="1"/>
        <pt x="315" y="456" on="1"/>
        <pt x="173" y="171" on="1"/>
      </contour>
    </TTGlyph>
    <TTGlyph name="arrowleft" xMin="55" yMin="173" xMax="828" yMax="436">
      <contour>
        <pt x="326" y="173" on="1"/>
        <pt x="55" y="304" on="1"/>
        <pt x="326" y="436" on="1"/>
        <pt x="289" y="339" on="1"/>
        <pt x="828" y="339" on="1"/>
        <pt x="828" y="269" on="1"/>
        <pt x="289" y="269" on="1"/>
      </contour>
    </TTGlyph>
    <TTGlyph name="arrowleft.ss01" xMin="30" yMin="201" xMax="315" yMax="486">
      <contour>
        <pt x="30" y="343" on="1"/>
        <pt x="315" y="486" on="1"/>
        <pt x="315" y="201" on="1"/>
      </contour>
    </TTGlyph>
    <TTGlyph name="arrowright" xMin="55" yMin="173" xMax="828" yMax="436">
      <contour>
        <pt x="590" y="269" on="1"/>
        <pt x="55" y="269" on="1"/>
        <pt x="55" y="339" on="1"/>
        <pt x="590" y="339" on="1"/>
        <pt x="554" y="436" on="1"/>
        <pt x="828" y="304" on="1"/>
        <pt x="554" y="173" on="1"/>
      </contour>
    </TTGlyph>
    <TTGlyph name="arrowright.ss01" xMin="48" yMin="201" xMax="333" yMax="486">
      <contour>
        <pt x="48" y="486" on="1"/>
        <pt x="333" y="343" on="1"/>
        <pt x="48" y="201" on="1"/>
      </contour>
    </TTGlyph>
    <TTGlyph name="arrowup" xMin="66" yMin="-82" xMax="329" yMax="691">
      <contour>
        <pt x="163" y="453" on="1"/>
        <pt x="66" y="417" on="1"/>
        <pt x="198" y="691" on="1"/>
        <pt x="329" y="417" on="1"/>
        <pt x="233" y="453" on="1"/>
        <pt x="233" y="-82" on="1"/>
        <pt x="163" y="-82" on="1"/>
      </contour>
    </TTGlyph>
    <TTGlyph name="arrowup.ss01" xMin="30" yMin="231" xMax="315" yMax="516">
      <contour>
        <pt x="173" y="516" on="1"/>
        <pt x="315" y="231" on="1"/>
        <pt x="30" y="231" on="1"/>
      </contour>
    </TTGlyph>
    <TTGlyph name="arrowupdn" xMin="66" yMin="-85" xMax="329" yMax="696">
      <contour>
        <pt x="66" y="189" on="1"/>
        <pt x="163" y="153" on="1"/>
        <pt x="163" y="458" on="1"/>
        <pt x="66" y="422" on="1"/>
        <pt x="198" y="696" on="1"/>
        <pt x="329" y="422" on="1"/>
        <pt x="233" y="458" on="1"/>
        <pt x="233" y="153" on="1"/>
        <pt x="329" y="189" on="1"/>
        <pt x="198" y="-85" on="1"/>
      </contour>
    </TTGlyph>
    <TTGlyph name="arrowupdnbse" xMin="55" yMin="-188" xMax="340" yMax="696">
      <contour>
        <pt x="66" y="189" on="1"/>
        <pt x="163" y="153" on="1"/>
        <pt x="163" y="458" on="1"/>
        <pt x="66" y="422" on="1"/>
        <pt x="198" y="696" on="1"/>
        <pt x="329" y="422" on="1"/>
        <pt x="233" y="458" on="1"/>
        <pt x="233" y="153" on="1"/>
        <pt x="329" y="189" on="1"/>
        <pt x="198" y="-85" on="1"/>
      </contour>
      <contour>
        <pt x="55" y="-123" on="1"/>
        <pt x="340" y="-123" on="1"/>
        <pt x="340" y="-188" on="1"/>
        <pt x="55" y="-188" on="1"/>
      </contour>
    </TTGlyph>
    <TTGlyph name="asciicircum" xMin="39" yMin="474" xMax="368" yMax="750">
      <contour>
        <pt x="204" y="686" on="1"/>
        <pt x="111" y="474" on="1"/>
        <pt x="39" y="474" on="1"/>
        <pt x="166" y="750" on="1"/>
        <pt x="243" y="750" on="1"/>
        <pt x="368" y="474" on="1"/>
        <pt x="297" y="474" on="1"/>
      </contour>
    </TTGlyph>
    <TTGlyph name="asciitilde" xMin="58" yMin="240" xMax="386" yMax="365">
      <contour>
        <pt x="386" y="321" on="0"/>
        <pt x="377" y="275" on="0"/>
        <pt x="346" y="251" on="0"/>
        <pt x="313" y="251" on="1"/>
        <pt x="274" y="251" on="0"/>
        <pt x="211" y="274" on="1"/>
        <pt x="206" y="276" on="0"/>
        <pt x="157" y="291" on="0"/>
        <pt x="138" y="291" on="1"/>
        <pt x="119" y="291" on="0"/>
        <pt x="109" y="271" on="0"/>
        <pt x="109" y="240" on="1"/>
        <pt x="58" y="240" on="1"/>
        <pt x="58" y="284" on="0"/>
        <pt x="67" y="330" on="0"/>
        <pt x="99" y="354" on="0"/>
        <pt x="132" y="354" on="1"/>
        <pt x="155" y="354" on="0"/>
        <pt x="199" y="343" on="0"/>
        <pt x="234" y="331" on="1"/>
        <pt x="240" y="329" on="0"/>
        <pt x="288" y="314" on="0"/>
        <pt x="306" y="314" on="1"/>
        <pt x="325" y="314" on="0"/>
        <pt x="336" y="335" on="0"/>
        <pt x="336" y="365" on="1"/>
        <pt x="386" y="365" on="1"/>
      </contour>
    </TTGlyph>
    <TTGlyph name="asterisk" xMin="46" yMin="358" xMax="361" yMax="688">
      <contour>
        <pt x="232" y="358" on="1"/>
        <pt x="175" y="358" on="1"/>
        <pt x="183" y="487" on="1"/>
        <pt x="75" y="415" on="1"/>
        <pt x="46" y="465" on="1"/>
        <pt x="163" y="522" on="1"/>
        <pt x="46" y="580" on="1"/>
        <pt x="75" y="630" on="1"/>
        <pt x="183" y="557" on="1"/>
        <pt x="175" y="688" on="1"/>
        <pt x="232" y="688" on="1"/>
        <pt x="223" y="558" on="1"/>
        <pt x="332" y="631" on="1"/>
        <pt x="361" y="580" on="1"/>
        <pt x="244" y="523" on="1"/>
        <pt x="361" y="465" on="1"/>
        <pt x="332" y="415" on="1"/>
        <pt x="223" y="487" on="1"/>
      </contour>
    </TTGlyph>
    <TTGlyph name="asterisk.ss02" xMin="35" yMin="-14" xMax="782" yMax="705">
      <contour>
        <pt x="269" y="262" on="1"/>
        <pt x="35" y="436" on="1"/>
        <pt x="322" y="436" on="1"/>
        <pt x="409" y="705" on="1"/>
        <pt x="494" y="436" on="1"/>
        <pt x="782" y="436" on="1"/>
        <pt x="550" y="262" on="1"/>
        <pt x="640" y="-14" on="1"/>
        <pt x="409" y="156" on="1"/>
        <pt x="178" y="-14" on="1"/>
      </contour>
    </TTGlyph>
    <TTGlyph name="at" xMin="61" yMin="-108" xMax="637" yMax="696">
      <contour>
        <pt x="203" y="-108" on="0"/>
        <pt x="90" y="-53" on="0"/>
        <pt x="61" y="97" on="0"/>
        <pt x="61" y="294" on="1"/>
        <pt x="61" y="491" on="0"/>
        <pt x="90" y="641" on="0"/>
        <pt x="203" y="696" on="0"/>
        <pt x="349" y="696" on="1"/>
        <pt x="495" y="696" on="0"/>
        <pt x="608" y="642" on="0"/>
        <pt x="637" y="492" on="0"/>
        <pt x="637" y="294" on="1"/>
        <pt x="637" y="189" on="0"/>
        <pt x="618" y="97" on="0"/>
        <pt x="579" y="75" on="0"/>
        <pt x="536" y="75" on="1"/>
        <pt x="421" y="75" on="1"/>
        <pt x="417" y="130" on="1"/>
        <pt x="412" y="130" on="1"/>
        <pt x="400" y="93" on="0"/>
        <pt x="349" y="68" on="0"/>
        <pt x="314" y="68" on="1"/>
        <pt x="257" y="68" on="0"/>
        <pt x="208" y="125" on="0"/>
        <pt x="208" y="196" on="1"/>
        <pt x="208" y="246" on="0"/>
        <pt x="226" y="302" on="0"/>
        <pt x="271" y="327" on="0"/>
        <pt x="312" y="327" on="1"/>
        <pt x="348" y="327" on="0"/>
        <pt x="414" y="323" on="1"/>
        <pt x="414" y="350" on="1"/>
        <pt x="414" y="399" on="0"/>
        <pt x="402" y="441" on="0"/>
        <pt x="369" y="453" on="0"/>
        <pt x="329" y="453" on="1"/>
        <pt x="304" y="453" on="0"/>
        <pt x="242" y="448" on="0"/>
        <pt x="230" y="446" on="1"/>
        <pt x="230" y="506" on="1"/>
        <pt x="290" y="518" on="0"/>
        <pt x="350" y="518" on="1"/>
        <pt x="409" y="518" on="0"/>
        <pt x="468" y="486" on="0"/>
        <pt x="489" y="416" on="0"/>
        <pt x="489" y="349" on="1"/>
        <pt x="489" y="119" on="1"/>
        <pt x="543" y="119" on="1"/>
        <pt x="563" y="119" on="0"/>
        <pt x="581" y="136" on="0"/>
        <pt x="589" y="208" on="0"/>
        <pt x="589" y="294" on="1"/>
        <pt x="589" y="447" on="0"/>
        <pt x="578" y="575" on="0"/>
        <pt x="532" y="636" on="0"/>
        <pt x="476" y="645" on="1"/>
        <pt x="436" y="651" on="0"/>
        <pt x="348" y="651" on="1"/>
        <pt x="262" y="651" on="0"/>
        <pt x="229" y="647" on="1"/>
        <pt x="170" y="639" on="0"/>
        <pt x="121" y="579" on="0"/>
        <pt x="109" y="450" on="0"/>
        <pt x="109" y="294" on="1"/>
        <pt x="109" y="129" on="0"/>
        <pt x="124" y="-1" on="0"/>
        <pt x="185" y="-56" on="0"/>
        <pt x="261" y="-61" on="1"/>
        <pt x="284" y="-63" on="0"/>
        <pt x="349" y="-63" on="1"/>
        <pt x="462" y="-63" on="0"/>
        <pt x="489" y="-59" on="1"/>
        <pt x="489" y="-106" on="1"/>
        <pt x="455" y="-108" on="0"/>
        <pt x="349" y="-108" on="1"/>
      </contour>
      <contour>
        <pt x="370" y="132" on="0"/>
        <pt x="401" y="151" on="0"/>
        <pt x="414" y="198" on="0"/>
        <pt x="414" y="243" on="1"/>
        <pt x="414" y="273" on="1"/>
        <pt x="331" y="273" on="1"/>
        <pt x="309" y="273" on="0"/>
        <pt x="288" y="263" on="0"/>
        <pt x="280" y="234" on="0"/>
        <pt x="280" y="202" on="1"/>
        <pt x="280" y="172" on="0"/>
        <pt x="289" y="143" on="0"/>
        <pt x="313" y="132" on="0"/>
        <pt x="339" y="132" on="1"/>
      </contour>
    </TTGlyph>
    <TTGlyph name="atilde" xMin="34" yMin="-8" xMax="372" yMax="743">
      <component glyphName=".ttfautohint" x="34" y="0" flags="0x0"/>
      <component glyphName="a" x="0" y="0" flags="0x0"/>
      <component glyphName="tilde" x="63" y="0" flags="0x0"/>
    </TTGlyph>
    <TTGlyph name="b" xMin="61" yMin="-8" xMax="408" yMax="743">
      <contour>
        <pt x="221" y="-8" on="0"/>
        <pt x="159" y="24" on="0"/>
        <pt x="145" y="68" on="1"/>
        <pt x="139" y="68" on="1"/>
        <pt x="135" y="0" on="1"/>
        <pt x="61" y="0" on="1"/>
        <pt x="61" y="743" on="1"/>
        <pt x="144" y="743" on="1"/>
        <pt x="144" y="451" on="1"/>
        <pt x="149" y="451" on="1"/>
        <pt x="163" y="487" on="0"/>
        <pt x="222" y="518" on="0"/>
        <pt x="267" y="518" on="1"/>
        <pt x="324" y="518" on="0"/>
        <pt x="384" y="472" on="0"/>
        <pt x="408" y="360" on="0"/>
        <pt x="408" y="255" on="1"/>
        <pt x="408" y="149" on="0"/>
        <pt x="383" y="37" on="0"/>
        <pt x="322" y="-8" on="0"/>
        <pt x="265" y="-8" on="1"/>
      </contour>
      <contour>
        <pt x="276" y="68" on="0"/>
        <pt x="313" y="92" on="0"/>
        <pt x="325" y="166" on="0"/>
        <pt x="325" y="255" on="1"/>
        <pt x="325" y="343" on="0"/>
        <pt x="313" y="418" on="0"/>
        <pt x="276" y="442" on="0"/>
        <pt x="233" y="442" on="1"/>
        <pt x="200" y="442" on="0"/>
        <pt x="164" y="419" on="0"/>
        <pt x="156" y="392" on="1"/>
        <pt x="149" y="369" on="0"/>
        <pt x="144" y="306" on="0"/>
        <pt x="144" y="255" on="1"/>
        <pt x="144" y="205" on="0"/>
        <pt x="148" y="145" on="0"/>
        <pt x="154" y="122" on="1"/>
        <pt x="162" y="93" on="0"/>
        <pt x="200" y="68" on="0"/>
        <pt x="233" y="68" on="1"/>
      </contour>
    </TTGlyph>
    <TTGlyph name="backslash" xMin="15" yMin="-55" xMax="284" yMax="743">
      <contour>
        <pt x="15" y="743" on="1"/>
        <pt x="91" y="743" on="1"/>
        <pt x="284" y="-55" on="1"/>
        <pt x="209" y="-55" on="1"/>
      </contour>
    </TTGlyph>
    <TTGlyph name="bar" xMin="76" yMin="-161" xMax="153" yMax="743">
      <contour>
        <pt x="76" y="743" on="1"/>
        <pt x="153" y="743" on="1"/>
        <pt x="153" y="-161" on="1"/>
        <pt x="76" y="-161" on="1"/>
      </contour>
    </TTGlyph>
    <TTGlyph name="bar.ss02" xMin="-1" yMin="0" xMax="499" yMax="696">
      <contour>
        <pt x="-1" y="696" on="1"/>
        <pt x="499" y="696" on="1"/>
        <pt x="499" y="0" on="1"/>
        <pt x="-1" y="0" on="1"/>
      </contour>
    </TTGlyph>
    <TTGlyph name="braceleft" xMin="21" yMin="-150" xMax="256" yMax="743">
      <contour>
        <pt x="157" y="-127" on="0"/>
        <pt x="98" y="-25" on="0"/>
        <pt x="98" y="31" on="1"/>
        <pt x="98" y="149" on="1"/>
        <pt x="98" y="271" on="0"/>
        <pt x="21" y="273" on="1"/>
        <pt x="21" y="319" on="1"/>
        <pt x="64" y="320" on="0"/>
        <pt x="98" y="390" on="0"/>
        <pt x="98" y="442" on="1"/>
        <pt x="98" y="561" on="1"/>
        <pt x="98" y="617" on="0"/>
        <pt x="157" y="720" on="0"/>
        <pt x="194" y="743" on="1"/>
        <pt x="256" y="743" on="1"/>
        <pt x="178" y="655" on="0"/>
        <pt x="178" y="564" on="1"/>
        <pt x="178" y="446" on="1"/>
        <pt x="178" y="322" on="0"/>
        <pt x="95" y="300" on="1"/>
        <pt x="95" y="293" on="1"/>
        <pt x="178" y="271" on="0"/>
        <pt x="178" y="146" on="1"/>
        <pt x="178" y="28" on="1"/>
        <pt x="178" y="-62" on="0"/>
        <pt x="256" y="-150" on="1"/>
        <pt x="194" y="-150" on="1"/>
      </contour>
    </TTGlyph>
    <TTGlyph name="braceright" xMin="16" yMin="-150" xMax="251" yMax="743">
      <contour>
        <pt x="94" y="-62" on="0"/>
        <pt x="94" y="28" on="1"/>
        <pt x="94" y="146" on="1"/>
        <pt x="94" y="271" on="0"/>
        <pt x="177" y="293" on="1"/>
        <pt x="177" y="300" on="1"/>
        <pt x="94" y="322" on="0"/>
        <pt x="94" y="446" on="1"/>
        <pt x="94" y="564" on="1"/>
        <pt x="94" y="650" on="0"/>
        <pt x="16" y="743" on="1"/>
        <pt x="78" y="743" on="1"/>
        <pt x="115" y="720" on="0"/>
        <pt x="174" y="617" on="0"/>
        <pt x="174" y="561" on="1"/>
        <pt x="174" y="442" on="1"/>
        <pt x="174" y="321" on="0"/>
        <pt x="251" y="319" on="1"/>
        <pt x="251" y="273" on="1"/>
        <pt x="174" y="271" on="0"/>
        <pt x="174" y="149" on="1"/>
        <pt x="174" y="31" on="1"/>
        <pt x="174" y="-25" on="0"/>
        <pt x="115" y="-127" on="0"/>
        <pt x="78" y="-150" on="1"/>
        <pt x="16" y="-150" on="1"/>
      </contour>
    </TTGlyph>
    <TTGlyph name="bracketleft" xMin="68" yMin="-150" xMax="235" yMax="743">
      <contour>
        <pt x="68" y="743" on="1"/>
        <pt x="235" y="743" on="1"/>
        <pt x="235" y="683" on="1"/>
        <pt x="147" y="679" on="1"/>
        <pt x="147" y="-86" on="1"/>
        <pt x="235" y="-90" on="1"/>
        <pt x="235" y="-150" on="1"/>
        <pt x="68" y="-150" on="1"/>
      </contour>
    </TTGlyph>
    <TTGlyph name="bracketleft.ss02" xMin="45" yMin="0" xMax="397" yMax="696">
      <contour>
        <pt x="45" y="0" on="1"/>
        <pt x="45" y="348" on="1"/>
        <pt x="45" y="449" on="0"/>
        <pt x="135" y="608" on="0"/>
        <pt x="295" y="696" on="0"/>
        <pt x="397" y="696" on="1"/>
        <pt x="397" y="0" on="1"/>
      </contour>
    </TTGlyph>
    <TTGlyph name="bracketright" xMin="30" yMin="-150" xMax="197" yMax="743">
      <contour>
        <pt x="30" y="-90" on="1"/>
        <pt x="118" y="-86" on="1"/>
        <pt x="118" y="679" on="1"/>
        <pt x="30" y="683" on="1"/>
        <pt x="30" y="743" on="1"/>
        <pt x="197" y="743" on="1"/>
        <pt x="197" y="-150" on="1"/>
        <pt x="30" y="-150" on="1"/>
      </contour>
    </TTGlyph>
    <TTGlyph name="bracketright.ss02" xMin="0" yMin="0" xMax="352" yMax="696">
      <contour>
        <pt x="0" y="696" on="1"/>
        <pt x="102" y="696" on="0"/>
        <pt x="262" y="608" on="0"/>
        <pt x="352" y="449" on="0"/>
        <pt x="352" y="348" on="1"/>
        <pt x="352" y="0" on="1"/>
        <pt x="0" y="0" on="1"/>
      </contour>
    </TTGlyph>
    <TTGlyph name="breve" xMin="7" yMin="603" xMax="241" yMax="743">
      <contour>
        <pt x="241" y="695" on="0"/>
        <pt x="226" y="637" on="0"/>
        <pt x="175" y="603" on="0"/>
        <pt x="123" y="603" on="1"/>
        <pt x="71" y="603" on="0"/>
        <pt x="21" y="637" on="0"/>
        <pt x="7" y="694" on="0"/>
        <pt x="7" y="743" on="1"/>
        <pt x="63" y="743" on="1"/>
        <pt x="63" y="708" on="0"/>
        <pt x="69" y="674" on="0"/>
        <pt x="94" y="655" on="0"/>
        <pt x="123" y="655" on="1"/>
        <pt x="152" y="655" on="0"/>
        <pt x="178" y="674" on="0"/>
        <pt x="185" y="709" on="0"/>
        <pt x="185" y="743" on="1"/>
        <pt x="241" y="743" on="1"/>
      </contour>
    </TTGlyph>
    <TTGlyph name="brokenbar" xMin="76" yMin="-161" xMax="153" yMax="743">
      <contour>
        <pt x="76" y="743" on="1"/>
        <pt x="153" y="743" on="1"/>
        <pt x="153" y="390" on="1"/>
        <pt x="76" y="390" on="1"/>
      </contour>
      <contour>
        <pt x="76" y="192" on="1"/>
        <pt x="153" y="192" on="1"/>
        <pt x="153" y="-161" on="1"/>
        <pt x="76" y="-161" on="1"/>
      </contour>
    </TTGlyph>
    <TTGlyph name="bullet" xMin="56" yMin="249" xMax="243" yMax="437">
      <contour>
        <pt x="243" y="298" on="0"/>
        <pt x="233" y="262" on="0"/>
        <pt x="195" y="249" on="0"/>
        <pt x="148" y="249" on="1"/>
        <pt x="103" y="249" on="0"/>
        <pt x="66" y="262" on="0"/>
        <pt x="56" y="298" on="0"/>
        <pt x="56" y="342" on="1"/>
        <pt x="56" y="387" on="0"/>
        <pt x="66" y="424" on="0"/>
        <pt x="103" y="437" on="0"/>
        <pt x="148" y="437" on="1"/>
        <pt x="195" y="437" on="0"/>
        <pt x="233" y="424" on="0"/>
        <pt x="243" y="387" on="0"/>
        <pt x="243" y="342" on="1"/>
      </contour>
    </TTGlyph>
    <TTGlyph name="bullet.ss02" xMin="40" yMin="-8" xMax="743" yMax="696">
      <contour>
        <pt x="343" y="421" on="0"/>
        <pt x="279" y="480" on="0"/>
        <pt x="279" y="533" on="1"/>
        <pt x="279" y="575" on="0"/>
        <pt x="318" y="650" on="0"/>
        <pt x="373" y="696" on="0"/>
        <pt x="392" y="696" on="1"/>
        <pt x="411" y="696" on="0"/>
        <pt x="465" y="650" on="0"/>
        <pt x="504" y="575" on="0"/>
        <pt x="504" y="533" on="1"/>
        <pt x="504" y="480" on="0"/>
        <pt x="441" y="421" on="0"/>
        <pt x="392" y="421" on="1"/>
      </contour>
      <contour>
        <pt x="415" y="481" on="0"/>
        <pt x="444" y="508" on="0"/>
        <pt x="444" y="533" on="1"/>
        <pt x="444" y="560" on="0"/>
        <pt x="426" y="607" on="0"/>
        <pt x="401" y="636" on="0"/>
        <pt x="392" y="636" on="1"/>
        <pt x="383" y="636" on="0"/>
        <pt x="358" y="607" on="0"/>
        <pt x="339" y="560" on="0"/>
        <pt x="339" y="533" on="1"/>
        <pt x="339" y="508" on="0"/>
        <pt x="369" y="481" on="0"/>
        <pt x="392" y="481" on="1"/>
      </contour>
      <contour>
        <pt x="161" y="231" on="0"/>
        <pt x="86" y="270" on="0"/>
        <pt x="40" y="325" on="0"/>
        <pt x="40" y="344" on="1"/>
        <pt x="40" y="363" on="0"/>
        <pt x="86" y="417" on="0"/>
        <pt x="161" y="456" on="0"/>
        <pt x="203" y="456" on="1"/>
        <pt x="256" y="456" on="0"/>
        <pt x="315" y="393" on="0"/>
        <pt x="315" y="344" on="1"/>
        <pt x="315" y="295" on="0"/>
        <pt x="256" y="231" on="0"/>
        <pt x="203" y="231" on="1"/>
      </contour>
      <contour>
        <pt x="527" y="231" on="0"/>
        <pt x="468" y="295" on="0"/>
        <pt x="468" y="344" on="1"/>
        <pt x="468" y="393" on="0"/>
        <pt x="527" y="456" on="0"/>
        <pt x="581" y="456" on="1"/>
        <pt x="622" y="456" on="0"/>
        <pt x="697" y="417" on="0"/>
        <pt x="743" y="363" on="0"/>
        <pt x="743" y="344" on="1"/>
        <pt x="743" y="325" on="0"/>
        <pt x="697" y="270" on="0"/>
        <pt x="623" y="231" on="0"/>
        <pt x="581" y="231" on="1"/>
      </contour>
      <contour>
        <pt x="228" y="291" on="0"/>
        <pt x="255" y="321" on="0"/>
        <pt x="255" y="344" on="1"/>
        <pt x="255" y="367" on="0"/>
        <pt x="228" y="396" on="0"/>
        <pt x="203" y="396" on="1"/>
        <pt x="176" y="396" on="0"/>
        <pt x="129" y="378" on="0"/>
        <pt x="100" y="353" on="0"/>
        <pt x="100" y="344" on="1"/>
        <pt x="100" y="335" on="0"/>
        <pt x="129" y="310" on="0"/>
        <pt x="176" y="291" on="0"/>
        <pt x="203" y="291" on="1"/>
      </contour>
      <contour>
        <pt x="607" y="291" on="0"/>
        <pt x="654" y="310" on="0"/>
        <pt x="683" y="335" on="0"/>
        <pt x="683" y="344" on="1"/>
        <pt x="683" y="353" on="0"/>
        <pt x="654" y="378" on="0"/>
        <pt x="607" y="396" on="0"/>
        <pt x="581" y="396" on="1"/>
        <pt x="556" y="396" on="0"/>
        <pt x="528" y="367" on="0"/>
        <pt x="528" y="344" on="1"/>
        <pt x="528" y="321" on="0"/>
        <pt x="556" y="291" on="0"/>
        <pt x="581" y="291" on="1"/>
      </contour>
      <contour>
        <pt x="373" y="-8" on="0"/>
        <pt x="318" y="38" on="0"/>
        <pt x="279" y="113" on="0"/>
        <pt x="279" y="155" on="1"/>
        <pt x="279" y="208" on="0"/>
        <pt x="343" y="267" on="0"/>
        <pt x="392" y="267" on="1"/>
        <pt x="441" y="267" on="0"/>
        <pt x="504" y="208" on="0"/>
        <pt x="504" y="155" on="1"/>
        <pt x="504" y="113" on="0"/>
        <pt x="465" y="38" on="0"/>
        <pt x="411" y="-8" on="0"/>
        <pt x="392" y="-8" on="1"/>
      </contour>
      <contour>
        <pt x="401" y="52" on="0"/>
        <pt x="426" y="81" on="0"/>
        <pt x="444" y="128" on="0"/>
        <pt x="444" y="155" on="1"/>
        <pt x="444" y="180" on="0"/>
        <pt x="415" y="207" on="0"/>
        <pt x="392" y="207" on="1"/>
        <pt x="369" y="207" on="0"/>
        <pt x="339" y="180" on="0"/>
        <pt x="339" y="155" on="1"/>
        <pt x="339" y="128" on="0"/>
        <pt x="358" y="81" on="0"/>
        <pt x="383" y="52" on="0"/>
        <pt x="392" y="52" on="1"/>
      </contour>
    </TTGlyph>
    <TTGlyph name="c" xMin="45" yMin="-8" xMax="319" yMax="518">
      <contour>
        <pt x="299" y="0" on="0"/>
        <pt x="238" y="-8" on="0"/>
        <pt x="211" y="-8" on="1"/>
        <pt x="137" y="-8" on="0"/>
        <pt x="67" y="46" on="0"/>
        <pt x="45" y="153" on="0"/>
        <pt x="45" y="255" on="1"/>
        <pt x="45" y="357" on="0"/>
        <pt x="70" y="468" on="0"/>
        <pt x="140" y="518" on="0"/>
        <pt x="209" y="518" on="1"/>
        <pt x="238" y="518" on="0"/>
        <pt x="299" y="510" on="0"/>
        <pt x="316" y="504" on="1"/>
        <pt x="316" y="436" on="1"/>
        <pt x="274" y="445" on="0"/>
        <pt x="229" y="445" on="1"/>
        <pt x="183" y="445" on="0"/>
        <pt x="142" y="417" on="0"/>
        <pt x="128" y="340" on="0"/>
        <pt x="128" y="255" on="1"/>
        <pt x="128" y="169" on="0"/>
        <pt x="143" y="92" on="0"/>
        <pt x="184" y="65" on="0"/>
        <pt x="230" y="65" on="1"/>
        <pt x="279" y="65" on="0"/>
        <pt x="319" y="74" on="1"/>
        <pt x="319" y="6" on="1"/>
      </contour>
    </TTGlyph>
    <TTGlyph name="cacute" xMin="45" yMin="-8" xMax="319" yMax="743">
      <component glyphName=".ttfautohint" x="45" y="0" flags="0x0"/>
      <component glyphName="c" x="0" y="0" flags="0x0"/>
      <component glyphName="acutecomb" x="287" y="0" flags="0x0"/>
    </TTGlyph>
    <TTGlyph name="cacute.loclPLK" xMin="45" yMin="-8" xMax="319" yMax="743">
      <component glyphName=".ttfautohint" x="45" y="0" flags="0x0"/>
      <component glyphName="c" x="0" y="0" flags="0x0"/>
      <component glyphName="acute.loclPLK" x="131" y="0" flags="0x0"/>
    </TTGlyph>
    <TTGlyph name="caron" xMin="6" yMin="606" xMax="250" yMax="743">
      <contour>
        <pt x="6" y="737" on="1"/>
        <pt x="6" y="743" on="1"/>
        <pt x="65" y="743" on="1"/>
        <pt x="128" y="651" on="1"/>
        <pt x="192" y="743" on="1"/>
        <pt x="250" y="743" on="1"/>
        <pt x="250" y="737" on="1"/>
        <pt x="173" y="606" on="1"/>
        <pt x="84" y="606" on="1"/>
      </contour>
    </TTGlyph>
    <TTGlyph name="caron.loclCSY" xMin="33" yMin="441" xMax="130" yMax="688">
      <contour>
        <pt x="48" y="616" on="1"/>
        <pt x="48" y="688" on="1"/>
        <pt x="130" y="688" on="1"/>
        <pt x="130" y="616" on="1"/>
        <pt x="92" y="441" on="1"/>
        <pt x="33" y="441" on="1"/>
      </contour>
    </TTGlyph>
    <TTGlyph name="ccaron" xMin="45" yMin="-8" xMax="319" yMax="743">
      <component glyphName=".ttfautohint" x="45" y="0" flags="0x0"/>
      <component glyphName="c" x="0" y="0" flags="0x0"/>
      <component glyphName="uni030C" x="305" y="0" flags="0x0"/>
    </TTGlyph>
    <TTGlyph name="ccedilla" xMin="45" yMin="-190" xMax="319" yMax="518">
      <contour>
        <pt x="279" y="65" on="0"/>
        <pt x="319" y="74" on="1"/>
        <pt x="319" y="6" on="1"/>
        <pt x="299" y="0" on="0"/>
        <pt x="238" y="-8" on="0"/>
        <pt x="211" y="-8" on="1"/>
        <pt x="205" y="-8" on="1"/>
        <pt x="167" y="-190" on="1"/>
        <pt x="88" y="-190" on="1"/>
        <pt x="88" y="-185" on="1"/>
        <pt x="147" y="-1" on="1"/>
        <pt x="103" y="10" on="0"/>
        <pt x="59" y="71" on="0"/>
        <pt x="45" y="170" on="0"/>
        <pt x="45" y="255" on="1"/>
        <pt x="45" y="357" on="0"/>
        <pt x="70" y="468" on="0"/>
        <pt x="140" y="518" on="0"/>
        <pt x="209" y="518" on="1"/>
        <pt x="238" y="518" on="0"/>
        <pt x="299" y="510" on="0"/>
        <pt x="316" y="504" on="1"/>
        <pt x="316" y="436" on="1"/>
        <pt x="274" y="445" on="0"/>
        <pt x="229" y="445" on="1"/>
        <pt x="183" y="445" on="0"/>
        <pt x="142" y="417" on="0"/>
        <pt x="128" y="340" on="0"/>
        <pt x="128" y="255" on="1"/>
        <pt x="128" y="169" on="0"/>
        <pt x="143" y="92" on="0"/>
        <pt x="184" y="65" on="0"/>
        <pt x="230" y="65" on="1"/>
      </contour>
    </TTGlyph>
    <TTGlyph name="ccircumflex" xMin="45" yMin="-8" xMax="319" yMax="743">
      <component glyphName=".ttfautohint" x="45" y="0" flags="0x0"/>
      <component glyphName="c" x="0" y="0" flags="0x0"/>
      <component glyphName="uni0302" x="305" y="0" flags="0x0"/>
    </TTGlyph>
    <TTGlyph name="cdotaccent" xMin="45" yMin="-8" xMax="319" yMax="730">
      <component glyphName=".ttfautohint" x="45" y="0" flags="0x0"/>
      <component glyphName="c" x="0" y="0" flags="0x0"/>
      <component glyphName="uni0307" x="230" y="0" flags="0x0"/>
    </TTGlyph>
    <TTGlyph name="cedilla" xMin="16" yMin="-190" xMax="135" yMax="8">
      <contour>
        <pt x="16" y="-185" on="1"/>
        <pt x="78" y="8" on="1"/>
        <pt x="135" y="8" on="1"/>
        <pt x="135" y="3" on="1"/>
        <pt x="95" y="-190" on="1"/>
        <pt x="16" y="-190" on="1"/>
      </contour>
    </TTGlyph>
    <TTGlyph name="cent" xMin="48" yMin="-8" xMax="331" yMax="696">
      <contour>
        <pt x="185" y="69" on="1"/>
        <pt x="125" y="75" on="0"/>
        <pt x="66" y="137" on="0"/>
        <pt x="48" y="245" on="0"/>
        <pt x="48" y="342" on="1"/>
        <pt x="48" y="441" on="0"/>
        <pt x="70" y="553" on="0"/>
        <pt x="128" y="611" on="0"/>
        <pt x="185" y="617" on="1"/>
        <pt x="185" y="696" on="1"/>
        <pt x="250" y="696" on="1"/>
        <pt x="250" y="618" on="1"/>
        <pt x="298" y="614" on="0"/>
        <pt x="327" y="605" on="1"/>
        <pt x="327" y="534" on="1"/>
        <pt x="280" y="544" on="0"/>
        <pt x="238" y="544" on="1"/>
        <pt x="191" y="544" on="0"/>
        <pt x="149" y="514" on="0"/>
        <pt x="135" y="432" on="0"/>
        <pt x="135" y="343" on="1"/>
        <pt x="135" y="254" on="0"/>
        <pt x="150" y="172" on="0"/>
        <pt x="192" y="142" on="0"/>
        <pt x="239" y="142" on="1"/>
        <pt x="257" y="142" on="0"/>
        <pt x="310" y="148" on="0"/>
        <pt x="331" y="153" on="1"/>
        <pt x="331" y="82" on="1"/>
        <pt x="297" y="72" on="0"/>
        <pt x="250" y="68" on="1"/>
        <pt x="250" y="-8" on="1"/>
        <pt x="185" y="-8" on="1"/>
      </contour>
    </TTGlyph>
    <TTGlyph name="circumflex" xMin="7" yMin="606" xMax="251" yMax="743">
      <contour>
        <pt x="7" y="612" on="1"/>
        <pt x="84" y="743" on="1"/>
        <pt x="173" y="743" on="1"/>
        <pt x="251" y="612" on="1"/>
        <pt x="251" y="606" on="1"/>
        <pt x="192" y="606" on="1"/>
        <pt x="128" y="698" on="1"/>
        <pt x="65" y="606" on="1"/>
        <pt x="7" y="606" on="1"/>
      </contour>
    </TTGlyph>
    <TTGlyph name="colon" xMin="55" yMin="0" xMax="150" yMax="510">
      <contour>
        <pt x="55" y="510" on="1"/>
        <pt x="150" y="510" on="1"/>
        <pt x="150" y="410" on="1"/>
        <pt x="55" y="410" on="1"/>
      </contour>
      <contour>
        <pt x="55" y="100" on="1"/>
        <pt x="150" y="100" on="1"/>
        <pt x="150" y="0" on="1"/>
        <pt x="55" y="0" on="1"/>
      </contour>
    </TTGlyph>
    <TTGlyph name="comma" xMin="39" yMin="-125" xMax="150" yMax="100">
      <contour>
        <pt x="72" y="-84" on="0"/>
        <pt x="91" y="-58" on="0"/>
        <pt x="91" y="-17" on="1"/>
        <pt x="91" y="0" on="1"/>
        <pt x="55" y="0" on="1"/>
        <pt x="55" y="100" on="1"/>
        <pt x="150" y="100" on="1"/>
        <pt x="150" y="16" on="1"/>
        <pt x="150" y="-44" on="0"/>
        <pt x="134" y="-101" on="0"/>
        <pt x="88" y="-125" on="0"/>
        <pt x="39" y="-125" on="1"/>
        <pt x="39" y="-84" on="1"/>
      </contour>
    </TTGlyph>
    <TTGlyph name="copyright" xMin="68" yMin="-8" xMax="512" yMax="696">
      <contour>
        <pt x="179" y="-8" on="0"/>
        <pt x="91" y="41" on="0"/>
        <pt x="68" y="174" on="0"/>
        <pt x="68" y="344" on="1"/>
        <pt x="68" y="514" on="0"/>
        <pt x="91" y="647" on="0"/>
        <pt x="180" y="696" on="0"/>
        <pt x="290" y="696" on="1"/>
        <pt x="400" y="696" on="0"/>
        <pt x="488" y="647" on="0"/>
        <pt x="512" y="513" on="0"/>
        <pt x="512" y="344" on="1"/>
        <pt x="512" y="175" on="0"/>
        <pt x="488" y="41" on="0"/>
        <pt x="400" y="-8" on="0"/>
        <pt x="290" y="-8" on="1"/>
      </contour>
      <contour>
        <pt x="384" y="31" on="0"/>
        <pt x="452" y="65" on="0"/>
        <pt x="471" y="182" on="0"/>
        <pt x="471" y="344" on="1"/>
        <pt x="471" y="506" on="0"/>
        <pt x="452" y="622" on="0"/>
        <pt x="384" y="656" on="0"/>
        <pt x="290" y="656" on="1"/>
        <pt x="196" y="656" on="0"/>
        <pt x="128" y="622" on="0"/>
        <pt x="109" y="505" on="0"/>
        <pt x="109" y="344" on="1"/>
        <pt x="109" y="182" on="0"/>
        <pt x="128" y="65" on="0"/>
        <pt x="196" y="31" on="0"/>
        <pt x="290" y="31" on="1"/>
      </contour>
      <contour>
        <pt x="258" y="154" on="0"/>
        <pt x="213" y="184" on="0"/>
        <pt x="197" y="261" on="0"/>
        <pt x="197" y="343" on="1"/>
        <pt x="197" y="424" on="0"/>
        <pt x="213" y="502" on="0"/>
        <pt x="259" y="533" on="0"/>
        <pt x="308" y="533" on="1"/>
        <pt x="324" y="533" on="0"/>
        <pt x="359" y="528" on="0"/>
        <pt x="369" y="525" on="1"/>
        <pt x="369" y="480" on="1"/>
        <pt x="341" y="484" on="0"/>
        <pt x="318" y="484" on="1"/>
        <pt x="285" y="484" on="0"/>
        <pt x="259" y="467" on="0"/>
        <pt x="251" y="412" on="0"/>
        <pt x="251" y="343" on="1"/>
        <pt x="251" y="274" on="0"/>
        <pt x="259" y="220" on="0"/>
        <pt x="285" y="202" on="0"/>
        <pt x="318" y="202" on="1"/>
        <pt x="348" y="202" on="0"/>
        <pt x="371" y="207" on="1"/>
        <pt x="371" y="161" on="1"/>
        <pt x="345" y="154" on="0"/>
        <pt x="308" y="154" on="1"/>
      </contour>
    </TTGlyph>
    <TTGlyph name="currency" xMin="45" yMin="0" xMax="507" yMax="688">
      <contour>
        <pt x="46" y="49" on="1"/>
        <pt x="124" y="128" on="1"/>
        <pt x="108" y="156" on="0"/>
        <pt x="98" y="254" on="0"/>
        <pt x="98" y="345" on="1"/>
        <pt x="98" y="435" on="0"/>
        <pt x="108" y="531" on="0"/>
        <pt x="124" y="560" on="1"/>
        <pt x="45" y="638" on="1"/>
        <pt x="96" y="688" on="1"/>
        <pt x="181" y="603" on="1"/>
        <pt x="211" y="616" on="0"/>
        <pt x="274" y="616" on="1"/>
        <pt x="340" y="616" on="0"/>
        <pt x="371" y="603" on="1"/>
        <pt x="456" y="688" on="1"/>
        <pt x="507" y="638" on="1"/>
        <pt x="426" y="557" on="1"/>
        <pt x="441" y="529" on="0"/>
        <pt x="451" y="431" on="0"/>
        <pt x="451" y="345" on="1"/>
        <pt x="451" y="258" on="0"/>
        <pt x="441" y="159" on="0"/>
        <pt x="426" y="130" on="1"/>
        <pt x="507" y="50" on="1"/>
        <pt x="456" y="0" on="1"/>
        <pt x="370" y="86" on="1"/>
        <pt x="338" y="72" on="0"/>
        <pt x="274" y="72" on="1"/>
        <pt x="214" y="72" on="0"/>
        <pt x="181" y="85" on="1"/>
        <pt x="96" y="0" on="1"/>
      </contour>
      <contour>
        <pt x="321" y="144" on="0"/>
        <pt x="358" y="171" on="0"/>
        <pt x="368" y="247" on="0"/>
        <pt x="368" y="345" on="1"/>
        <pt x="368" y="442" on="0"/>
        <pt x="358" y="517" on="0"/>
        <pt x="321" y="544" on="0"/>
        <pt x="274" y="544" on="1"/>
        <pt x="227" y="544" on="0"/>
        <pt x="191" y="517" on="0"/>
        <pt x="181" y="442" on="0"/>
        <pt x="181" y="345" on="1"/>
        <pt x="181" y="247" on="0"/>
        <pt x="191" y="171" on="0"/>
        <pt x="227" y="144" on="0"/>
        <pt x="274" y="144" on="1"/>
      </contour>
    </TTGlyph>
    <TTGlyph name="d" xMin="45" yMin="-8" xMax="393" yMax="743">
      <contour>
        <pt x="131" y="-8" on="0"/>
        <pt x="70" y="37" on="0"/>
        <pt x="45" y="148" on="0"/>
        <pt x="45" y="254" on="1"/>
        <pt x="45" y="360" on="0"/>
        <pt x="70" y="472" on="0"/>
        <pt x="130" y="518" on="0"/>
        <pt x="187" y="518" on="1"/>
        <pt x="232" y="518" on="0"/>
        <pt x="290" y="487" on="0"/>
        <pt x="304" y="451" on="1"/>
        <pt x="310" y="451" on="1"/>
        <pt x="310" y="743" on="1"/>
        <pt x="393" y="743" on="1"/>
        <pt x="393" y="0" on="1"/>
        <pt x="318" y="0" on="1"/>
        <pt x="314" y="68" on="1"/>
        <pt x="309" y="68" on="1"/>
        <pt x="295" y="24" on="0"/>
        <pt x="232" y="-8" on="0"/>
        <pt x="188" y="-8" on="1"/>
      </contour>
      <contour>
        <pt x="253" y="68" on="0"/>
        <pt x="292" y="93" on="0"/>
        <pt x="299" y="120" on="1"/>
        <pt x="305" y="144" on="0"/>
        <pt x="310" y="208" on="0"/>
        <pt x="310" y="260" on="1"/>
        <pt x="310" y="337" on="0"/>
        <pt x="302" y="376" on="1"/>
        <pt x="295" y="412" on="0"/>
        <pt x="256" y="442" on="0"/>
        <pt x="219" y="442" on="1"/>
        <pt x="177" y="442" on="0"/>
        <pt x="141" y="418" on="0"/>
        <pt x="129" y="344" on="0"/>
        <pt x="129" y="255" on="1"/>
        <pt x="129" y="166" on="0"/>
        <pt x="141" y="92" on="0"/>
        <pt x="177" y="68" on="0"/>
        <pt x="220" y="68" on="1"/>
      </contour>
    </TTGlyph>
    <TTGlyph name="dagger" xMin="45" yMin="0" xMax="314" yMax="688">
      <contour>
        <pt x="142" y="444" on="1"/>
        <pt x="45" y="452" on="1"/>
        <pt x="45" y="509" on="1"/>
        <pt x="142" y="517" on="1"/>
        <pt x="149" y="688" on="1"/>
        <pt x="206" y="688" on="1"/>
        <pt x="214" y="517" on="1"/>
        <pt x="314" y="509" on="1"/>
        <pt x="314" y="452" on="1"/>
        <pt x="214" y="444" on="1"/>
        <pt x="206" y="0" on="1"/>
        <pt x="149" y="0" on="1"/>
      </contour>
    </TTGlyph>
    <TTGlyph name="daggerdbl" xMin="45" yMin="0" xMax="314" yMax="688">
      <contour>
        <pt x="142" y="171" on="1"/>
        <pt x="45" y="179" on="1"/>
        <pt x="45" y="235" on="1"/>
        <pt x="142" y="243" on="1"/>
        <pt x="142" y="444" on="1"/>
        <pt x="45" y="452" on="1"/>
        <pt x="45" y="509" on="1"/>
        <pt x="142" y="517" on="1"/>
        <pt x="149" y="688" on="1"/>
        <pt x="206" y="688" on="1"/>
        <pt x="214" y="517" on="1"/>
        <pt x="314" y="509" on="1"/>
        <pt x="314" y="452" on="1"/>
        <pt x="214" y="444" on="1"/>
        <pt x="214" y="243" on="1"/>
        <pt x="314" y="235" on="1"/>
        <pt x="314" y="179" on="1"/>
        <pt x="214" y="171" on="1"/>
        <pt x="206" y="0" on="1"/>
        <pt x="149" y="0" on="1"/>
      </contour>
    </TTGlyph>
    <TTGlyph name="dcaron" xMin="45" yMin="-8" xMax="520" yMax="743">
      <component glyphName=".ttfautohint" x="45" y="0" flags="0x0"/>
      <component glyphName="d" x="0" y="0" flags="0x0"/>
      <component glyphName="caron.loclCSY" x="390" y="0" flags="0x0"/>
    </TTGlyph>
    <TTGlyph name="dcroat" xMin="45" yMin="-8" xMax="445" yMax="743">
      <contour>
        <pt x="445" y="616" on="1"/>
        <pt x="393" y="616" on="1"/>
        <pt x="393" y="0" on="1"/>
        <pt x="318" y="0" on="1"/>
        <pt x="314" y="68" on="1"/>
        <pt x="309" y="68" on="1"/>
        <pt x="295" y="24" on="0"/>
        <pt x="232" y="-8" on="0"/>
        <pt x="188" y="-8" on="1"/>
        <pt x="131" y="-8" on="0"/>
        <pt x="70" y="37" on="0"/>
        <pt x="45" y="148" on="0"/>
        <pt x="45" y="254" on="1"/>
        <pt x="45" y="360" on="0"/>
        <pt x="70" y="472" on="0"/>
        <pt x="130" y="518" on="0"/>
        <pt x="187" y="518" on="1"/>
        <pt x="232" y="518" on="0"/>
        <pt x="290" y="487" on="0"/>
        <pt x="304" y="451" on="1"/>
        <pt x="310" y="451" on="1"/>
        <pt x="310" y="616" on="1"/>
        <pt x="201" y="616" on="1"/>
        <pt x="201" y="688" on="1"/>
        <pt x="310" y="688" on="1"/>
        <pt x="310" y="743" on="1"/>
        <pt x="393" y="743" on="1"/>
        <pt x="393" y="688" on="1"/>
        <pt x="445" y="688" on="1"/>
      </contour>
      <contour>
        <pt x="305" y="144" on="0"/>
        <pt x="310" y="208" on="0"/>
        <pt x="310" y="260" on="1"/>
        <pt x="310" y="337" on="0"/>
        <pt x="302" y="376" on="1"/>
        <pt x="295" y="412" on="0"/>
        <pt x="256" y="442" on="0"/>
        <pt x="219" y="442" on="1"/>
        <pt x="177" y="442" on="0"/>
        <pt x="141" y="418" on="0"/>
        <pt x="129" y="344" on="0"/>
        <pt x="129" y="255" on="1"/>
        <pt x="129" y="166" on="0"/>
        <pt x="141" y="92" on="0"/>
        <pt x="177" y="68" on="0"/>
        <pt x="220" y="68" on="1"/>
        <pt x="253" y="68" on="0"/>
        <pt x="292" y="93" on="0"/>
        <pt x="299" y="120" on="1"/>
      </contour>
    </TTGlyph>
    <TTGlyph name="degree" xMin="48" yMin="397" xMax="271" yMax="696">
      <contour>
        <pt x="106" y="397" on="0"/>
        <pt x="60" y="424" on="0"/>
        <pt x="48" y="481" on="0"/>
        <pt x="48" y="546" on="1"/>
        <pt x="48" y="610" on="0"/>
        <pt x="60" y="668" on="0"/>
        <pt x="106" y="696" on="0"/>
        <pt x="159" y="696" on="1"/>
        <pt x="212" y="696" on="0"/>
        <pt x="259" y="668" on="0"/>
        <pt x="271" y="610" on="0"/>
        <pt x="271" y="546" on="1"/>
        <pt x="271" y="482" on="0"/>
        <pt x="259" y="424" on="0"/>
        <pt x="212" y="397" on="0"/>
        <pt x="159" y="397" on="1"/>
      </contour>
      <contour>
        <pt x="185" y="446" on="0"/>
        <pt x="206" y="461" on="0"/>
        <pt x="211" y="498" on="0"/>
        <pt x="211" y="546" on="1"/>
        <pt x="211" y="594" on="0"/>
        <pt x="206" y="631" on="0"/>
        <pt x="185" y="647" on="0"/>
        <pt x="159" y="647" on="1"/>
        <pt x="133" y="647" on="0"/>
        <pt x="112" y="631" on="0"/>
        <pt x="107" y="594" on="0"/>
        <pt x="107" y="546" on="1"/>
        <pt x="107" y="498" on="0"/>
        <pt x="112" y="461" on="0"/>
        <pt x="133" y="446" on="0"/>
        <pt x="159" y="446" on="1"/>
      </contour>
    </TTGlyph>
    <TTGlyph name="dialog" xMin="59" yMin="-212" xMax="746" yMax="688">
      <contour>
        <pt x="306" y="-127" on="1"/>
        <pt x="494" y="60" on="1"/>
        <pt x="686" y="60" on="1"/>
        <pt x="686" y="628" on="1"/>
        <pt x="119" y="628" on="1"/>
        <pt x="119" y="60" on="1"/>
        <pt x="306" y="60" on="1"/>
        <pt x="306" y="0" on="1"/>
        <pt x="59" y="0" on="1"/>
        <pt x="59" y="688" on="1"/>
        <pt x="746" y="688" on="1"/>
        <pt x="746" y="0" on="1"/>
        <pt x="519" y="0" on="1"/>
        <pt x="306" y="-212" on="1"/>
      </contour>
    </TTGlyph>
    <TTGlyph name="dieresis" xMin="18" yMin="647" xMax="273" yMax="730">
      <contour>
        <pt x="18" y="730" on="1"/>
        <pt x="95" y="730" on="1"/>
        <pt x="95" y="647" on="1"/>
        <pt x="18" y="647" on="1"/>
      </contour>
      <contour>
        <pt x="195" y="730" on="1"/>
        <pt x="273" y="730" on="1"/>
        <pt x="273" y="647" on="1"/>
        <pt x="195" y="647" on="1"/>
      </contour>
    </TTGlyph>
    <TTGlyph name="divide" xMin="61" yMin="47" xMax="422" yMax="459">
      <contour>
        <pt x="204" y="459" on="1"/>
        <pt x="279" y="459" on="1"/>
        <pt x="279" y="384" on="1"/>
        <pt x="204" y="384" on="1"/>
      </contour>
      <contour>
        <pt x="61" y="288" on="1"/>
        <pt x="422" y="288" on="1"/>
        <pt x="422" y="217" on="1"/>
        <pt x="61" y="217" on="1"/>
      </contour>
      <contour>
        <pt x="204" y="121" on="1"/>
        <pt x="279" y="121" on="1"/>
        <pt x="279" y="47" on="1"/>
        <pt x="204" y="47" on="1"/>
      </contour>
    </TTGlyph>
    <TTGlyph name="dollar" xMin="49" yMin="-8" xMax="370" yMax="696">
      <contour>
        <pt x="181" y="69" on="1"/>
        <pt x="109" y="71" on="0"/>
        <pt x="61" y="82" on="1"/>
        <pt x="61" y="153" on="1"/>
        <pt x="131" y="143" on="0"/>
        <pt x="197" y="143" on="1"/>
        <pt x="234" y="143" on="0"/>
        <pt x="271" y="158" on="0"/>
        <pt x="285" y="192" on="0"/>
        <pt x="285" y="224" on="1"/>
        <pt x="285" y="259" on="0"/>
        <pt x="277" y="290" on="0"/>
        <pt x="259" y="300" on="0"/>
        <pt x="238" y="303" on="1"/>
        <pt x="155" y="316" on="1"/>
        <pt x="112" y="322" on="0"/>
        <pt x="67" y="354" on="0"/>
        <pt x="49" y="413" on="0"/>
        <pt x="49" y="463" on="1"/>
        <pt x="49" y="543" on="0"/>
        <pt x="116" y="612" on="0"/>
        <pt x="181" y="618" on="1"/>
        <pt x="181" y="696" on="1"/>
        <pt x="246" y="696" on="1"/>
        <pt x="246" y="619" on="1"/>
        <pt x="271" y="618" on="0"/>
        <pt x="329" y="609" on="0"/>
        <pt x="347" y="604" on="1"/>
        <pt x="347" y="534" on="1"/>
        <pt x="320" y="539" on="0"/>
        <pt x="249" y="545" on="0"/>
        <pt x="223" y="545" on="1"/>
        <pt x="173" y="545" on="0"/>
        <pt x="134" y="513" on="0"/>
        <pt x="134" y="467" on="1"/>
        <pt x="134" y="435" on="0"/>
        <pt x="142" y="405" on="0"/>
        <pt x="160" y="394" on="0"/>
        <pt x="181" y="391" on="1"/>
        <pt x="269" y="379" on="1"/>
        <pt x="307" y="374" on="0"/>
        <pt x="349" y="348" on="0"/>
        <pt x="370" y="286" on="0"/>
        <pt x="370" y="228" on="1"/>
        <pt x="370" y="148" on="0"/>
        <pt x="310" y="76" on="0"/>
        <pt x="246" y="69" on="1"/>
        <pt x="246" y="-8" on="1"/>
        <pt x="181" y="-8" on="1"/>
      </contour>
    </TTGlyph>
    <TTGlyph name="dotaccent" xMin="16" yMin="647" xMax="93" yMax="730">
      <contour>
        <pt x="16" y="730" on="1"/>
        <pt x="93" y="730" on="1"/>
        <pt x="93" y="647" on="1"/>
        <pt x="16" y="647" on="1"/>
      </contour>
    </TTGlyph>
    <TTGlyph name="dotbelowcomb" xMin="-150" yMin="-162" xMax="-55" yMax="-62">
      <contour>
        <pt x="-150" y="-62" on="1"/>
        <pt x="-55" y="-62" on="1"/>
        <pt x="-55" y="-162" on="1"/>
        <pt x="-150" y="-162" on="1"/>
      </contour>
    </TTGlyph>
    <TTGlyph name="dotlessi" xMin="61" yMin="0" xMax="144" yMax="510">
      <contour>
        <pt x="61" y="510" on="1"/>
        <pt x="144" y="510" on="1"/>
        <pt x="144" y="0" on="1"/>
        <pt x="61" y="0" on="1"/>
      </contour>
    </TTGlyph>
    <TTGlyph name="e" xMin="46" yMin="-8" xMax="386" yMax="518">
      <contour>
        <pt x="386" y="225" on="1"/>
        <pt x="129" y="225" on="1"/>
        <pt x="129" y="151" on="0"/>
        <pt x="142" y="89" on="0"/>
        <pt x="190" y="65" on="0"/>
        <pt x="246" y="65" on="1"/>
        <pt x="300" y="65" on="0"/>
        <pt x="373" y="75" on="1"/>
        <pt x="373" y="7" on="1"/>
        <pt x="348" y="1" on="0"/>
        <pt x="266" y="-8" on="0"/>
        <pt x="229" y="-8" on="1"/>
        <pt x="147" y="-8" on="0"/>
        <pt x="70" y="40" on="0"/>
        <pt x="46" y="146" on="0"/>
        <pt x="46" y="254" on="1"/>
        <pt x="46" y="362" on="0"/>
        <pt x="67" y="466" on="0"/>
        <pt x="142" y="518" on="0"/>
        <pt x="224" y="518" on="1"/>
        <pt x="301" y="518" on="0"/>
        <pt x="368" y="469" on="0"/>
        <pt x="386" y="366" on="0"/>
        <pt x="386" y="255" on="1"/>
      </contour>
      <contour>
        <pt x="178" y="445" on="0"/>
        <pt x="141" y="423" on="0"/>
        <pt x="129" y="362" on="0"/>
        <pt x="129" y="291" on="1"/>
        <pt x="306" y="291" on="1"/>
        <pt x="306" y="297" on="1"/>
        <pt x="306" y="365" on="0"/>
        <pt x="292" y="426" on="0"/>
        <pt x="259" y="445" on="0"/>
        <pt x="222" y="445" on="1"/>
      </contour>
    </TTGlyph>
    <TTGlyph name="eacute" xMin="46" yMin="-8" xMax="386" yMax="743">
      <component glyphName=".ttfautohint" x="46" y="0" flags="0x0"/>
      <component glyphName="e" x="0" y="0" flags="0x0"/>
      <component glyphName="acute" x="179" y="0" flags="0x0"/>
    </TTGlyph>
    <TTGlyph name="ebreve" xMin="46" yMin="-8" xMax="386" yMax="743">
      <component glyphName=".ttfautohint" x="46" y="0" flags="0x0"/>
      <component glyphName="e" x="0" y="0" flags="0x0"/>
      <component glyphName="uni0306" x="340" y="0" flags="0x0"/>
    </TTGlyph>
    <TTGlyph name="ecaron" xMin="46" yMin="-8" xMax="386" yMax="743">
      <component glyphName=".ttfautohint" x="46" y="0" flags="0x0"/>
      <component glyphName="e" x="0" y="0" flags="0x0"/>
      <component glyphName="uni030C" x="345" y="0" flags="0x0"/>
    </TTGlyph>
    <TTGlyph name="ecircumflex" xMin="46" yMin="-8" xMax="386" yMax="743">
      <component glyphName=".ttfautohint" x="46" y="0" flags="0x0"/>
      <component glyphName="e" x="0" y="0" flags="0x0"/>
      <component glyphName="circumflex" x="91" y="0" flags="0x0"/>
    </TTGlyph>
    <TTGlyph name="edieresis" xMin="46" yMin="-8" xMax="386" yMax="726">
      <component glyphName=".ttfautohint" x="46" y="0" flags="0x0"/>
      <component glyphName="e" x="0" y="0" flags="0x0"/>
      <component glyphName="dieresis" x="76" y="-4" flags="0x4"/>
    </TTGlyph>
    <TTGlyph name="edotaccent" xMin="46" yMin="-8" xMax="386" yMax="730">
      <component glyphName=".ttfautohint" x="46" y="0" flags="0x0"/>
      <component glyphName="e" x="0" y="0" flags="0x0"/>
      <component glyphName="uni0307" x="270" y="0" flags="0x0"/>
    </TTGlyph>
    <TTGlyph name="egrave" xMin="46" yMin="-8" xMax="386" yMax="743">
      <component glyphName=".ttfautohint" x="46" y="0" flags="0x0"/>
      <component glyphName="e" x="0" y="0" flags="0x0"/>
      <component glyphName="grave" x="111" y="0" flags="0x0"/>
    </TTGlyph>
    <TTGlyph name="eight" xMin="49" yMin="-8" xMax="449" yMax="696">
      <contour>
        <pt x="169" y="-8" on="0"/>
        <pt x="82" y="33" on="0"/>
        <pt x="49" y="114" on="0"/>
        <pt x="49" y="183" on="1"/>
        <pt x="49" y="240" on="0"/>
        <pt x="70" y="306" on="0"/>
        <pt x="109" y="339" on="0"/>
        <pt x="143" y="349" on="1"/>
        <pt x="143" y="353" on="1"/>
        <pt x="97" y="364" on="0"/>
        <pt x="53" y="441" on="0"/>
        <pt x="53" y="516" on="1"/>
        <pt x="53" y="582" on="0"/>
        <pt x="89" y="660" on="0"/>
        <pt x="174" y="696" on="0"/>
        <pt x="249" y="696" on="1"/>
        <pt x="323" y="696" on="0"/>
        <pt x="408" y="660" on="0"/>
        <pt x="444" y="582" on="0"/>
        <pt x="444" y="516" on="1"/>
        <pt x="444" y="441" on="0"/>
        <pt x="401" y="364" on="0"/>
        <pt x="355" y="353" on="1"/>
        <pt x="355" y="349" on="1"/>
        <pt x="389" y="339" on="0"/>
        <pt x="428" y="306" on="0"/>
        <pt x="449" y="240" on="0"/>
        <pt x="449" y="183" on="1"/>
        <pt x="449" y="115" on="0"/>
        <pt x="416" y="33" on="0"/>
        <pt x="329" y="-8" on="0"/>
        <pt x="249" y="-8" on="1"/>
      </contour>
      <contour>
        <pt x="294" y="386" on="0"/>
        <pt x="339" y="405" on="0"/>
        <pt x="356" y="453" on="0"/>
        <pt x="356" y="502" on="1"/>
        <pt x="356" y="552" on="0"/>
        <pt x="339" y="600" on="0"/>
        <pt x="295" y="619" on="0"/>
        <pt x="249" y="619" on="1"/>
        <pt x="203" y="619" on="0"/>
        <pt x="158" y="600" on="0"/>
        <pt x="141" y="552" on="0"/>
        <pt x="141" y="502" on="1"/>
        <pt x="141" y="453" on="0"/>
        <pt x="159" y="405" on="0"/>
        <pt x="204" y="386" on="0"/>
        <pt x="249" y="386" on="1"/>
      </contour>
      <contour>
        <pt x="295" y="69" on="0"/>
        <pt x="341" y="87" on="0"/>
        <pt x="361" y="137" on="0"/>
        <pt x="361" y="188" on="1"/>
        <pt x="361" y="242" on="0"/>
        <pt x="343" y="293" on="0"/>
        <pt x="297" y="310" on="0"/>
        <pt x="249" y="310" on="1"/>
        <pt x="201" y="310" on="0"/>
        <pt x="155" y="293" on="0"/>
        <pt x="137" y="242" on="0"/>
        <pt x="137" y="188" on="1"/>
        <pt x="137" y="137" on="0"/>
        <pt x="157" y="87" on="0"/>
        <pt x="203" y="69" on="0"/>
        <pt x="249" y="69" on="1"/>
      </contour>
    </TTGlyph>
    <TTGlyph name="eight.dnom" xMin="33" yMin="-4" xMax="271" yMax="383">
      <contour>
        <pt x="105" y="-4" on="0"/>
        <pt x="53" y="17" on="0"/>
        <pt x="33" y="62" on="0"/>
        <pt x="33" y="100" on="1"/>
        <pt x="33" y="146" on="0"/>
        <pt x="59" y="184" on="0"/>
        <pt x="89" y="192" on="1"/>
        <pt x="89" y="194" on="1"/>
        <pt x="61" y="201" on="0"/>
        <pt x="35" y="244" on="0"/>
        <pt x="35" y="285" on="1"/>
        <pt x="35" y="339" on="0"/>
        <pt x="88" y="383" on="0"/>
        <pt x="152" y="383" on="1"/>
        <pt x="216" y="383" on="0"/>
        <pt x="268" y="339" on="0"/>
        <pt x="268" y="285" on="1"/>
        <pt x="268" y="244" on="0"/>
        <pt x="242" y="201" on="0"/>
        <pt x="214" y="194" on="1"/>
        <pt x="214" y="192" on="1"/>
        <pt x="245" y="184" on="0"/>
        <pt x="271" y="146" on="0"/>
        <pt x="271" y="100" on="1"/>
        <pt x="271" y="43" on="0"/>
        <pt x="220" y="-4" on="0"/>
        <pt x="152" y="-4" on="1"/>
      </contour>
      <contour>
        <pt x="188" y="218" on="0"/>
        <pt x="210" y="239" on="0"/>
        <pt x="210" y="274" on="1"/>
        <pt x="210" y="299" on="0"/>
        <pt x="201" y="322" on="0"/>
        <pt x="177" y="330" on="0"/>
        <pt x="152" y="330" on="1"/>
        <pt x="115" y="330" on="0"/>
        <pt x="93" y="309" on="0"/>
        <pt x="93" y="274" on="1"/>
        <pt x="93" y="239" on="0"/>
        <pt x="116" y="218" on="0"/>
        <pt x="152" y="218" on="1"/>
      </contour>
      <contour>
        <pt x="177" y="49" on="0"/>
        <pt x="202" y="57" on="0"/>
        <pt x="213" y="81" on="0"/>
        <pt x="213" y="106" on="1"/>
        <pt x="213" y="132" on="0"/>
        <pt x="203" y="157" on="0"/>
        <pt x="178" y="165" on="0"/>
        <pt x="152" y="165" on="1"/>
        <pt x="126" y="165" on="0"/>
        <pt x="101" y="157" on="0"/>
        <pt x="91" y="132" on="0"/>
        <pt x="91" y="106" on="1"/>
        <pt x="91" y="81" on="0"/>
        <pt x="102" y="57" on="0"/>
        <pt x="127" y="49" on="0"/>
        <pt x="152" y="49" on="1"/>
      </contour>
    </TTGlyph>
    <TTGlyph name="eight.numr" xMin="33" yMin="304" xMax="271" yMax="691">
      <component glyphName=".ttfautohint" x="33" y="304" flags="0x0"/>
      <component glyphName="eight.dnom" x="0" y="308" flags="0x4"/>
    </TTGlyph>
    <TTGlyph name="eight.tnum" xMin="44" yMin="-8" xMax="444" yMax="696">
      <contour>
        <pt x="164" y="-8" on="0"/>
        <pt x="77" y="33" on="0"/>
        <pt x="44" y="115" on="0"/>
        <pt x="44" y="183" on="1"/>
        <pt x="44" y="240" on="0"/>
        <pt x="65" y="306" on="0"/>
        <pt x="104" y="339" on="0"/>
        <pt x="138" y="349" on="1"/>
        <pt x="138" y="353" on="1"/>
        <pt x="92" y="364" on="0"/>
        <pt x="49" y="441" on="0"/>
        <pt x="49" y="516" on="1"/>
        <pt x="49" y="582" on="0"/>
        <pt x="85" y="660" on="0"/>
        <pt x="170" y="696" on="0"/>
        <pt x="244" y="696" on="1"/>
        <pt x="319" y="696" on="0"/>
        <pt x="404" y="660" on="0"/>
        <pt x="440" y="582" on="0"/>
        <pt x="440" y="516" on="1"/>
        <pt x="440" y="441" on="0"/>
        <pt x="396" y="364" on="0"/>
        <pt x="350" y="353" on="1"/>
        <pt x="350" y="349" on="1"/>
        <pt x="384" y="339" on="0"/>
        <pt x="423" y="306" on="0"/>
        <pt x="444" y="240" on="0"/>
        <pt x="444" y="183" on="1"/>
        <pt x="444" y="115" on="0"/>
        <pt x="411" y="33" on="0"/>
        <pt x="324" y="-8" on="0"/>
        <pt x="244" y="-8" on="1"/>
      </contour>
      <contour>
        <pt x="289" y="386" on="0"/>
        <pt x="334" y="405" on="0"/>
        <pt x="352" y="453" on="0"/>
        <pt x="352" y="502" on="1"/>
        <pt x="352" y="552" on="0"/>
        <pt x="335" y="600" on="0"/>
        <pt x="290" y="619" on="0"/>
        <pt x="244" y="619" on="1"/>
        <pt x="198" y="619" on="0"/>
        <pt x="154" y="600" on="0"/>
        <pt x="137" y="552" on="0"/>
        <pt x="137" y="502" on="1"/>
        <pt x="137" y="453" on="0"/>
        <pt x="154" y="405" on="0"/>
        <pt x="199" y="386" on="0"/>
        <pt x="244" y="386" on="1"/>
      </contour>
      <contour>
        <pt x="290" y="69" on="0"/>
        <pt x="337" y="87" on="0"/>
        <pt x="357" y="137" on="0"/>
        <pt x="357" y="188" on="1"/>
        <pt x="357" y="242" on="0"/>
        <pt x="338" y="293" on="0"/>
        <pt x="292" y="310" on="0"/>
        <pt x="244" y="310" on="1"/>
        <pt x="196" y="310" on="0"/>
        <pt x="150" y="293" on="0"/>
        <pt x="132" y="242" on="0"/>
        <pt x="132" y="188" on="1"/>
        <pt x="132" y="137" on="0"/>
        <pt x="152" y="87" on="0"/>
        <pt x="198" y="69" on="0"/>
        <pt x="244" y="69" on="1"/>
      </contour>
    </TTGlyph>
    <TTGlyph name="ellipsis" xMin="55" yMin="0" xMax="560" yMax="100">
      <contour>
        <pt x="55" y="100" on="1"/>
        <pt x="150" y="100" on="1"/>
        <pt x="150" y="0" on="1"/>
        <pt x="55" y="0" on="1"/>
      </contour>
      <contour>
        <pt x="260" y="100" on="1"/>
        <pt x="355" y="100" on="1"/>
        <pt x="355" y="0" on="1"/>
        <pt x="260" y="0" on="1"/>
      </contour>
      <contour>
        <pt x="465" y="100" on="1"/>
        <pt x="560" y="100" on="1"/>
        <pt x="560" y="0" on="1"/>
        <pt x="465" y="0" on="1"/>
      </contour>
    </TTGlyph>
    <TTGlyph name="emacron" xMin="46" yMin="-8" xMax="386" yMax="743">
      <component glyphName=".ttfautohint" x="46" y="0" flags="0x0"/>
      <component glyphName="e" x="0" y="0" flags="0x0"/>
      <component glyphName="uni0304" x="371" y="0" flags="0x0"/>
    </TTGlyph>
    <TTGlyph name="emdash" xMin="53" yMin="268" xMax="772" yMax="340">
      <contour>
        <pt x="53" y="340" on="1"/>
        <pt x="772" y="340" on="1"/>
        <pt x="772" y="268" on="1"/>
        <pt x="53" y="268" on="1"/>
      </contour>
    </TTGlyph>
    <TTGlyph name="endash" xMin="53" yMin="268" xMax="381" yMax="340">
      <contour>
        <pt x="53" y="340" on="1"/>
        <pt x="381" y="340" on="1"/>
        <pt x="381" y="268" on="1"/>
        <pt x="53" y="268" on="1"/>
      </contour>
    </TTGlyph>
    <TTGlyph name="eng" xMin="61" yMin="-193" xMax="399" yMax="518">
      <contour>
        <pt x="324" y="518" on="0"/>
        <pt x="380" y="478" on="0"/>
        <pt x="399" y="398" on="0"/>
        <pt x="399" y="325" on="1"/>
        <pt x="399" y="-45" on="1"/>
        <pt x="399" y="-113" on="0"/>
        <pt x="372" y="-175" on="0"/>
        <pt x="311" y="-193" on="0"/>
        <pt x="247" y="-193" on="1"/>
        <pt x="247" y="-127" on="1"/>
        <pt x="279" y="-127" on="0"/>
        <pt x="308" y="-117" on="0"/>
        <pt x="316" y="-95" on="0"/>
        <pt x="316" y="-72" on="1"/>
        <pt x="316" y="291" on="1"/>
        <pt x="316" y="362" on="0"/>
        <pt x="305" y="422" on="0"/>
        <pt x="272" y="441" on="0"/>
        <pt x="234" y="441" on="1"/>
        <pt x="192" y="441" on="0"/>
        <pt x="154" y="403" on="0"/>
        <pt x="144" y="334" on="0"/>
        <pt x="144" y="266" on="1"/>
        <pt x="144" y="0" on="1"/>
        <pt x="61" y="0" on="1"/>
        <pt x="61" y="510" on="1"/>
        <pt x="135" y="510" on="1"/>
        <pt x="139" y="442" on="1"/>
        <pt x="145" y="442" on="1"/>
        <pt x="157" y="479" on="0"/>
        <pt x="217" y="518" on="0"/>
        <pt x="269" y="518" on="1"/>
      </contour>
    </TTGlyph>
    <TTGlyph name="eogonek" xMin="45" yMin="-196" xMax="386" yMax="518">
      <contour>
        <pt x="386" y="226" on="1"/>
        <pt x="129" y="226" on="1"/>
        <pt x="129" y="150" on="0"/>
        <pt x="142" y="88" on="0"/>
        <pt x="189" y="64" on="0"/>
        <pt x="246" y="64" on="1"/>
        <pt x="302" y="64" on="0"/>
        <pt x="372" y="74" on="1"/>
        <pt x="372" y="7" on="1"/>
        <pt x="344" y="-12" on="0"/>
        <pt x="297" y="-75" on="0"/>
        <pt x="297" y="-103" on="1"/>
        <pt x="297" y="-120" on="0"/>
        <pt x="318" y="-142" on="0"/>
        <pt x="340" y="-142" on="1"/>
        <pt x="357" y="-141" on="1"/>
        <pt x="357" y="-194" on="1"/>
        <pt x="333" y="-196" on="0"/>
        <pt x="319" y="-196" on="1"/>
        <pt x="270" y="-196" on="0"/>
        <pt x="227" y="-154" on="0"/>
        <pt x="227" y="-121" on="1"/>
        <pt x="227" y="-64" on="0"/>
        <pt x="289" y="-5" on="1"/>
        <pt x="259" y="-8" on="0"/>
        <pt x="229" y="-8" on="1"/>
        <pt x="146" y="-8" on="0"/>
        <pt x="69" y="40" on="0"/>
        <pt x="45" y="146" on="0"/>
        <pt x="45" y="254" on="1"/>
        <pt x="45" y="361" on="0"/>
        <pt x="66" y="466" on="0"/>
        <pt x="142" y="518" on="0"/>
        <pt x="223" y="518" on="1"/>
        <pt x="300" y="518" on="0"/>
        <pt x="368" y="469" on="0"/>
        <pt x="386" y="366" on="0"/>
        <pt x="386" y="255" on="1"/>
      </contour>
      <contour>
        <pt x="178" y="446" on="0"/>
        <pt x="141" y="424" on="0"/>
        <pt x="129" y="362" on="0"/>
        <pt x="129" y="290" on="1"/>
        <pt x="306" y="290" on="1"/>
        <pt x="306" y="297" on="1"/>
        <pt x="306" y="365" on="0"/>
        <pt x="292" y="426" on="0"/>
        <pt x="258" y="446" on="0"/>
        <pt x="221" y="446" on="1"/>
      </contour>
    </TTGlyph>
    <TTGlyph name="equal" xMin="61" yMin="127" xMax="422" yMax="379">
      <contour>
        <pt x="61" y="379" on="1"/>
        <pt x="422" y="379" on="1"/>
        <pt x="422" y="308" on="1"/>
        <pt x="61" y="308" on="1"/>
      </contour>
      <contour>
        <pt x="61" y="198" on="1"/>
        <pt x="422" y="198" on="1"/>
        <pt x="422" y="127" on="1"/>
        <pt x="61" y="127" on="1"/>
      </contour>
    </TTGlyph>
    <TTGlyph name="estimated" xMin="52" yMin="-8" xMax="472" yMax="696">
      <contour>
        <pt x="140" y="173" on="0"/>
        <pt x="156" y="57" on="0"/>
        <pt x="203" y="26" on="0"/>
        <pt x="264" y="26" on="1"/>
        <pt x="331" y="26" on="0"/>
        <pt x="392" y="46" on="0"/>
        <pt x="422" y="118" on="0"/>
        <pt x="427" y="200" on="1"/>
        <pt x="463" y="200" on="1"/>
        <pt x="458" y="113" on="0"/>
        <pt x="423" y="26" on="0"/>
        <pt x="341" y="-8" on="0"/>
        <pt x="261" y="-8" on="1"/>
        <pt x="161" y="-8" on="0"/>
        <pt x="76" y="48" on="0"/>
        <pt x="52" y="185" on="0"/>
        <pt x="52" y="344" on="1"/>
        <pt x="52" y="503" on="0"/>
        <pt x="76" y="640" on="0"/>
        <pt x="161" y="696" on="0"/>
        <pt x="261" y="696" on="1"/>
        <pt x="361" y="696" on="0"/>
        <pt x="448" y="640" on="0"/>
        <pt x="472" y="503" on="0"/>
        <pt x="472" y="344" on="1"/>
        <pt x="472" y="323" on="1"/>
        <pt x="139" y="323" on="1"/>
      </contour>
      <contour>
        <pt x="200" y="662" on="0"/>
        <pt x="155" y="631" on="0"/>
        <pt x="140" y="512" on="0"/>
        <pt x="139" y="357" on="1"/>
        <pt x="384" y="357" on="1"/>
        <pt x="384" y="511" on="0"/>
        <pt x="368" y="631" on="0"/>
        <pt x="322" y="662" on="0"/>
        <pt x="261" y="662" on="1"/>
      </contour>
    </TTGlyph>
    <TTGlyph name="eth" xMin="45" yMin="-8" xMax="397" yMax="743">
      <contour>
        <pt x="139" y="-8" on="0"/>
        <pt x="66" y="37" on="0"/>
        <pt x="45" y="140" on="0"/>
        <pt x="45" y="254" on="1"/>
        <pt x="45" y="362" on="0"/>
        <pt x="64" y="467" on="0"/>
        <pt x="129" y="517" on="0"/>
        <pt x="199" y="517" on="1"/>
        <pt x="259" y="517" on="0"/>
        <pt x="290" y="493" on="1"/>
        <pt x="293" y="496" on="1"/>
        <pt x="274" y="571" on="0"/>
        <pt x="248" y="623" on="1"/>
        <pt x="151" y="608" on="1"/>
        <pt x="151" y="663" on="1"/>
        <pt x="219" y="673" on="1"/>
        <pt x="193" y="713" on="0"/>
        <pt x="169" y="739" on="1"/>
        <pt x="169" y="743" on="1"/>
        <pt x="257" y="743" on="1"/>
        <pt x="287" y="707" on="0"/>
        <pt x="300" y="686" on="1"/>
        <pt x="384" y="699" on="1"/>
        <pt x="384" y="644" on="1"/>
        <pt x="329" y="635" on="1"/>
        <pt x="366" y="557" on="0"/>
        <pt x="384" y="444" on="1"/>
        <pt x="397" y="375" on="0"/>
        <pt x="397" y="269" on="1"/>
        <pt x="397" y="146" on="0"/>
        <pt x="378" y="39" on="0"/>
        <pt x="306" y="-8" on="0"/>
        <pt x="222" y="-8" on="1"/>
      </contour>
      <contour>
        <pt x="269" y="63" on="0"/>
        <pt x="306" y="90" on="0"/>
        <pt x="315" y="160" on="0"/>
        <pt x="315" y="254" on="1"/>
        <pt x="315" y="340" on="0"/>
        <pt x="306" y="412" on="0"/>
        <pt x="268" y="446" on="0"/>
        <pt x="222" y="446" on="1"/>
        <pt x="174" y="446" on="0"/>
        <pt x="137" y="420" on="0"/>
        <pt x="129" y="350" on="0"/>
        <pt x="129" y="254" on="1"/>
        <pt x="129" y="160" on="0"/>
        <pt x="138" y="90" on="0"/>
        <pt x="175" y="63" on="0"/>
        <pt x="222" y="63" on="1"/>
      </contour>
    </TTGlyph>
    <TTGlyph name="exclam" xMin="63" yMin="0" xMax="162" yMax="688">
      <contour>
        <pt x="82" y="226" on="0"/>
        <pt x="75" y="336" on="1"/>
        <pt x="73" y="369" on="0"/>
        <pt x="63" y="561" on="0"/>
        <pt x="63" y="598" on="1"/>
        <pt x="63" y="688" on="1"/>
        <pt x="162" y="688" on="1"/>
        <pt x="162" y="598" on="1"/>
        <pt x="162" y="546" on="0"/>
        <pt x="149" y="338" on="1"/>
        <pt x="147" y="298" on="0"/>
        <pt x="143" y="223" on="0"/>
        <pt x="142" y="197" on="1"/>
        <pt x="82" y="197" on="1"/>
      </contour>
      <contour>
        <pt x="65" y="100" on="1"/>
        <pt x="160" y="100" on="1"/>
        <pt x="160" y="0" on="1"/>
        <pt x="65" y="0" on="1"/>
      </contour>
    </TTGlyph>
    <TTGlyph name="exclam.case" xMin="63" yMin="0" xMax="162" yMax="688">
      <component glyphName=".ttfautohint" x="63" y="0" flags="0x0"/>
      <component glyphName="exclam" x="0" y="0" flags="0x0"/>
    </TTGlyph>
    <TTGlyph name="exclam.ss02" xMin="45" yMin="-8" xMax="749" yMax="696">
      <contour>
        <pt x="302" y="-8" on="0"/>
        <pt x="140" y="87" on="0"/>
        <pt x="45" y="249" on="0"/>
        <pt x="45" y="344" on="1"/>
        <pt x="45" y="439" on="0"/>
        <pt x="140" y="601" on="0"/>
        <pt x="302" y="696" on="0"/>
        <pt x="397" y="696" on="1"/>
        <pt x="492" y="696" on="0"/>
        <pt x="654" y="601" on="0"/>
        <pt x="749" y="439" on="0"/>
        <pt x="749" y="344" on="1"/>
        <pt x="749" y="249" on="0"/>
        <pt x="654" y="87" on="0"/>
        <pt x="492" y="-8" on="0"/>
        <pt x="397" y="-8" on="1"/>
      </contour>
      <contour>
        <pt x="480" y="37" on="0"/>
        <pt x="621" y="120" on="0"/>
        <pt x="704" y="261" on="0"/>
        <pt x="704" y="344" on="1"/>
        <pt x="704" y="427" on="0"/>
        <pt x="621" y="568" on="0"/>
        <pt x="480" y="651" on="0"/>
        <pt x="397" y="651" on="1"/>
        <pt x="314" y="651" on="0"/>
        <pt x="173" y="568" on="0"/>
        <pt x="90" y="427" on="0"/>
        <pt x="90" y="344" on="1"/>
        <pt x="90" y="261" on="0"/>
        <pt x="173" y="120" on="0"/>
        <pt x="314" y="37" on="0"/>
        <pt x="397" y="37" on="1"/>
      </contour>
      <contour>
        <pt x="371" y="306" on="0"/>
        <pt x="363" y="425" on="0"/>
        <pt x="363" y="480" on="1"/>
        <pt x="363" y="579" on="1"/>
        <pt x="431" y="579" on="1"/>
        <pt x="431" y="480" on="1"/>
        <pt x="431" y="425" on="0"/>
        <pt x="423" y="306" on="0"/>
        <pt x="417" y="268" on="1"/>
        <pt x="377" y="268" on="1"/>
      </contour>
      <contour>
        <pt x="363" y="191" on="1"/>
        <pt x="431" y="191" on="1"/>
        <pt x="431" y="109" on="1"/>
        <pt x="363" y="109" on="1"/>
      </contour>
    </TTGlyph>
    <TTGlyph name="exclamdbl" xMin="63" yMin="0" xMax="341" yMax="688">
      <component glyphName=".ttfautohint" x="63" y="0" flags="0x0"/>
      <component glyphName="exclam" x="179" y="0" flags="0x0"/>
      <component glyphName="exclam" x="0" y="0" flags="0x0"/>
    </TTGlyph>
    <TTGlyph name="exclamdown" xMin="59" yMin="-178" xMax="157" yMax="510">
      <contour>
        <pt x="61" y="510" on="1"/>
        <pt x="155" y="510" on="1"/>
        <pt x="155" y="410" on="1"/>
        <pt x="61" y="410" on="1"/>
      </contour>
      <contour>
        <pt x="59" y="-88" on="1"/>
        <pt x="59" y="-51" on="0"/>
        <pt x="69" y="141" on="0"/>
        <pt x="71" y="174" on="1"/>
        <pt x="78" y="284" on="0"/>
        <pt x="78" y="313" on="1"/>
        <pt x="138" y="313" on="1"/>
        <pt x="138" y="284" on="0"/>
        <pt x="145" y="174" on="1"/>
        <pt x="147" y="141" on="0"/>
        <pt x="157" y="-51" on="0"/>
        <pt x="157" y="-88" on="1"/>
        <pt x="157" y="-178" on="1"/>
        <pt x="59" y="-178" on="1"/>
      </contour>
    </TTGlyph>
    <TTGlyph name="exclamdown.case" xMin="59" yMin="0" xMax="157" yMax="688">
      <component glyphName=".ttfautohint" x="59" y="0" flags="0x0"/>
      <component glyphName="exclamdown" x="0" y="178" flags="0x4"/>
    </TTGlyph>
    <TTGlyph name="f" xMin="20" yMin="0" xMax="269" yMax="743">
      <contour>
        <pt x="92" y="438" on="1"/>
        <pt x="20" y="438" on="1"/>
        <pt x="20" y="510" on="1"/>
        <pt x="92" y="510" on="1"/>
        <pt x="92" y="583" on="1"/>
        <pt x="92" y="657" on="0"/>
        <pt x="124" y="724" on="0"/>
        <pt x="194" y="743" on="0"/>
        <pt x="269" y="743" on="1"/>
        <pt x="269" y="678" on="1"/>
        <pt x="227" y="678" on="0"/>
        <pt x="189" y="667" on="0"/>
        <pt x="175" y="635" on="0"/>
        <pt x="175" y="599" on="1"/>
        <pt x="175" y="510" on="1"/>
        <pt x="269" y="510" on="1"/>
        <pt x="269" y="438" on="1"/>
        <pt x="175" y="438" on="1"/>
        <pt x="175" y="0" on="1"/>
        <pt x="92" y="0" on="1"/>
      </contour>
    </TTGlyph>
    <TTGlyph name="f_f" xMin="20" yMin="0" xMax="558" yMax="743">
      <component glyphName=".ttfautohint" x="20" y="0" flags="0x0"/>
      <component glyphName="f" x="0" y="0" flags="0x0"/>
      <component glyphName="f" x="289" y="0" flags="0x0"/>
    </TTGlyph>
    <TTGlyph name="fi" xMin="20" yMin="0" xMax="434" yMax="743">
      <component glyphName=".ttfautohint" x="20" y="0" flags="0x0"/>
      <component glyphName="f" x="0" y="0" flags="0x0"/>
      <component glyphName="i" x="289" y="0" flags="0x0"/>
    </TTGlyph>
    <TTGlyph name="five" xMin="54" yMin="-8" xMax="408" yMax="688">
      <contour>
        <pt x="142" y="70" on="0"/>
        <pt x="196" y="70" on="1"/>
        <pt x="248" y="70" on="0"/>
        <pt x="300" y="94" on="0"/>
        <pt x="320" y="151" on="0"/>
        <pt x="320" y="205" on="1"/>
        <pt x="320" y="263" on="0"/>
        <pt x="298" y="317" on="0"/>
        <pt x="244" y="335" on="0"/>
        <pt x="188" y="335" on="1"/>
        <pt x="134" y="335" on="0"/>
        <pt x="59" y="323" on="1"/>
        <pt x="59" y="688" on="1"/>
        <pt x="372" y="688" on="1"/>
        <pt x="372" y="609" on="1"/>
        <pt x="141" y="609" on="1"/>
        <pt x="141" y="405" on="1"/>
        <pt x="158" y="409" on="0"/>
        <pt x="214" y="414" on="0"/>
        <pt x="238" y="414" on="1"/>
        <pt x="308" y="414" on="0"/>
        <pt x="382" y="369" on="0"/>
        <pt x="408" y="284" on="0"/>
        <pt x="408" y="215" on="1"/>
        <pt x="408" y="132" on="0"/>
        <pt x="375" y="37" on="0"/>
        <pt x="290" y="-8" on="0"/>
        <pt x="211" y="-8" on="1"/>
        <pt x="176" y="-8" on="0"/>
        <pt x="88" y="1" on="0"/>
        <pt x="54" y="8" on="1"/>
        <pt x="54" y="81" on="1"/>
      </contour>
    </TTGlyph>
    <TTGlyph name="five.dnom" xMin="37" yMin="-4" xMax="250" yMax="379">
      <contour>
        <pt x="102" y="49" on="0"/>
        <pt x="118" y="49" on="1"/>
        <pt x="149" y="49" on="0"/>
        <pt x="180" y="60" on="0"/>
        <pt x="192" y="88" on="0"/>
        <pt x="192" y="115" on="1"/>
        <pt x="192" y="143" on="0"/>
        <pt x="178" y="171" on="0"/>
        <pt x="146" y="180" on="0"/>
        <pt x="114" y="180" on="1"/>
        <pt x="85" y="180" on="0"/>
        <pt x="39" y="174" on="1"/>
        <pt x="39" y="379" on="1"/>
        <pt x="230" y="379" on="1"/>
        <pt x="230" y="325" on="1"/>
        <pt x="95" y="325" on="1"/>
        <pt x="95" y="229" on="1"/>
        <pt x="119" y="233" on="0"/>
        <pt x="150" y="233" on="1"/>
        <pt x="209" y="233" on="0"/>
        <pt x="250" y="178" on="0"/>
        <pt x="250" y="122" on="1"/>
        <pt x="250" y="76" on="0"/>
        <pt x="230" y="22" on="0"/>
        <pt x="179" y="-4" on="0"/>
        <pt x="132" y="-4" on="1"/>
        <pt x="86" y="-4" on="0"/>
        <pt x="37" y="5" on="1"/>
        <pt x="37" y="54" on="1"/>
      </contour>
    </TTGlyph>
    <TTGlyph name="five.numr" xMin="37" yMin="304" xMax="250" yMax="687">
      <contour>
        <pt x="102" y="357" on="0"/>
        <pt x="118" y="357" on="1"/>
        <pt x="149" y="357" on="0"/>
        <pt x="180" y="368" on="0"/>
        <pt x="192" y="396" on="0"/>
        <pt x="192" y="423" on="1"/>
        <pt x="192" y="451" on="0"/>
        <pt x="178" y="479" on="0"/>
        <pt x="146" y="488" on="0"/>
        <pt x="114" y="488" on="1"/>
        <pt x="85" y="488" on="0"/>
        <pt x="39" y="482" on="1"/>
        <pt x="39" y="687" on="1"/>
        <pt x="230" y="687" on="1"/>
        <pt x="230" y="633" on="1"/>
        <pt x="95" y="633" on="1"/>
        <pt x="95" y="537" on="1"/>
        <pt x="119" y="541" on="0"/>
        <pt x="150" y="541" on="1"/>
        <pt x="209" y="541" on="0"/>
        <pt x="250" y="486" on="0"/>
        <pt x="250" y="430" on="1"/>
        <pt x="250" y="384" on="0"/>
        <pt x="230" y="330" on="0"/>
        <pt x="179" y="304" on="0"/>
        <pt x="132" y="304" on="1"/>
        <pt x="86" y="304" on="0"/>
        <pt x="37" y="313" on="1"/>
        <pt x="37" y="362" on="1"/>
      </contour>
    </TTGlyph>
    <TTGlyph name="five.tnum" xMin="73" yMin="-8" xMax="427" yMax="688">
      <contour>
        <pt x="163" y="70" on="0"/>
        <pt x="216" y="70" on="1"/>
        <pt x="268" y="70" on="0"/>
        <pt x="320" y="94" on="0"/>
        <pt x="340" y="151" on="0"/>
        <pt x="340" y="205" on="1"/>
        <pt x="340" y="263" on="0"/>
        <pt x="318" y="317" on="0"/>
        <pt x="264" y="335" on="0"/>
        <pt x="208" y="335" on="1"/>
        <pt x="153" y="335" on="0"/>
        <pt x="78" y="323" on="1"/>
        <pt x="78" y="688" on="1"/>
        <pt x="392" y="688" on="1"/>
        <pt x="392" y="609" on="1"/>
        <pt x="161" y="609" on="1"/>
        <pt x="161" y="405" on="1"/>
        <pt x="178" y="409" on="0"/>
        <pt x="234" y="414" on="0"/>
        <pt x="258" y="414" on="1"/>
        <pt x="328" y="414" on="0"/>
        <pt x="401" y="369" on="0"/>
        <pt x="427" y="284" on="0"/>
        <pt x="427" y="215" on="1"/>
        <pt x="427" y="132" on="0"/>
        <pt x="395" y="37" on="0"/>
        <pt x="310" y="-8" on="0"/>
        <pt x="231" y="-8" on="1"/>
        <pt x="196" y="-8" on="0"/>
        <pt x="107" y="1" on="0"/>
        <pt x="73" y="8" on="1"/>
        <pt x="73" y="81" on="1"/>
      </contour>
    </TTGlyph>
    <TTGlyph name="fiveeighths" xMin="37" yMin="-4" xMax="659" yMax="688">
      <component glyphName=".ttfautohint" x="37" y="0" flags="0x0"/>
      <component glyphName="five.numr" x="0" y="0" flags="0x0"/>
      <component glyphName="fraction" x="277" y="0" flags="0x0"/>
      <component glyphName="eight.dnom" x="388" y="0" flags="0x0"/>
    </TTGlyph>
    <TTGlyph name="fl" xMin="20" yMin="0" xMax="433" yMax="743">
      <component glyphName=".ttfautohint" x="20" y="0" flags="0x0"/>
      <component glyphName="f" x="0" y="0" flags="0x0"/>
      <component glyphName="l" x="289" y="0" flags="0x0"/>
    </TTGlyph>
    <TTGlyph name="florin" xMin="-103" yMin="-192" xMax="364" yMax="742">
      <contour>
        <pt x="302" y="677" on="0"/>
        <pt x="262" y="660" on="0"/>
        <pt x="238" y="599" on="0"/>
        <pt x="222" y="519" on="1"/>
        <pt x="221" y="510" on="1"/>
        <pt x="314" y="510" on="1"/>
        <pt x="299" y="438" on="1"/>
        <pt x="205" y="438" on="1"/>
        <pt x="114" y="8" on="1"/>
        <pt x="94" y="-86" on="0"/>
        <pt x="49" y="-168" on="0"/>
        <pt x="-25" y="-192" on="0"/>
        <pt x="-103" y="-192" on="1"/>
        <pt x="-89" y="-126" on="1"/>
        <pt x="-48" y="-126" on="0"/>
        <pt x="-9" y="-115" on="0"/>
        <pt x="12" y="-81" on="0"/>
        <pt x="20" y="-44" on="1"/>
        <pt x="123" y="438" on="1"/>
        <pt x="50" y="438" on="1"/>
        <pt x="65" y="510" on="1"/>
        <pt x="138" y="510" on="1"/>
        <pt x="139" y="515" on="1"/>
        <pt x="161" y="622" on="0"/>
        <pt x="206" y="714" on="0"/>
        <pt x="283" y="742" on="0"/>
        <pt x="364" y="742" on="1"/>
        <pt x="350" y="677" on="1"/>
      </contour>
    </TTGlyph>
    <TTGlyph name="four" xMin="30" yMin="0" xMax="444" yMax="688">
      <contour>
        <pt x="286" y="157" on="1"/>
        <pt x="30" y="157" on="1"/>
        <pt x="30" y="226" on="1"/>
        <pt x="208" y="688" on="1"/>
        <pt x="300" y="688" on="1"/>
        <pt x="122" y="235" on="1"/>
        <pt x="286" y="235" on="1"/>
        <pt x="305" y="472" on="1"/>
        <pt x="373" y="472" on="1"/>
        <pt x="373" y="235" on="1"/>
        <pt x="444" y="235" on="1"/>
        <pt x="444" y="157" on="1"/>
        <pt x="373" y="157" on="1"/>
        <pt x="373" y="0" on="1"/>
        <pt x="286" y="0" on="1"/>
      </contour>
    </TTGlyph>
    <TTGlyph name="four.dnom" xMin="19" yMin="0" xMax="267" yMax="379">
      <contour>
        <pt x="169" y="82" on="1"/>
        <pt x="19" y="82" on="1"/>
        <pt x="19" y="129" on="1"/>
        <pt x="117" y="379" on="1"/>
        <pt x="178" y="379" on="1"/>
        <pt x="80" y="135" on="1"/>
        <pt x="168" y="135" on="1"/>
        <pt x="182" y="249" on="1"/>
        <pt x="227" y="249" on="1"/>
        <pt x="227" y="135" on="1"/>
        <pt x="267" y="135" on="1"/>
        <pt x="267" y="82" on="1"/>
        <pt x="227" y="82" on="1"/>
        <pt x="227" y="0" on="1"/>
        <pt x="169" y="0" on="1"/>
      </contour>
    </TTGlyph>
    <TTGlyph name="four.numr" xMin="19" yMin="308" xMax="267" yMax="687">
      <component glyphName=".ttfautohint" x="19" y="308" flags="0x0"/>
      <component glyphName="four.dnom" x="0" y="308" flags="0x4"/>
    </TTGlyph>
    <TTGlyph name="four.ss01" xMin="30" yMin="0" xMax="444" yMax="688">
      <contour>
        <pt x="286" y="157" on="1"/>
        <pt x="30" y="157" on="1"/>
        <pt x="30" y="226" on="1"/>
        <pt x="250" y="688" on="1"/>
        <pt x="373" y="688" on="1"/>
        <pt x="373" y="236" on="1"/>
        <pt x="444" y="236" on="1"/>
        <pt x="444" y="157" on="1"/>
        <pt x="373" y="157" on="1"/>
        <pt x="373" y="0" on="1"/>
        <pt x="286" y="0" on="1"/>
      </contour>
      <contour>
        <pt x="286" y="236" on="1"/>
        <pt x="286" y="588" on="1"/>
        <pt x="284" y="588" on="1"/>
        <pt x="117" y="236" on="1"/>
      </contour>
    </TTGlyph>
    <TTGlyph name="four.tnum" xMin="33" yMin="0" xMax="456" yMax="688">
      <contour>
        <pt x="298" y="157" on="1"/>
        <pt x="33" y="157" on="1"/>
        <pt x="33" y="226" on="1"/>
        <pt x="219" y="688" on="1"/>
        <pt x="313" y="688" on="1"/>
        <pt x="126" y="235" on="1"/>
        <pt x="298" y="235" on="1"/>
        <pt x="317" y="472" on="1"/>
        <pt x="385" y="472" on="1"/>
        <pt x="385" y="235" on="1"/>
        <pt x="456" y="235" on="1"/>
        <pt x="456" y="157" on="1"/>
        <pt x="385" y="157" on="1"/>
        <pt x="385" y="0" on="1"/>
        <pt x="298" y="0" on="1"/>
      </contour>
    </TTGlyph>
    <TTGlyph name="fraction" xMin="-145" yMin="0" xMax="256" yMax="688">
      <contour>
        <pt x="197" y="688" on="1"/>
        <pt x="256" y="688" on="1"/>
        <pt x="-86" y="0" on="1"/>
        <pt x="-145" y="0" on="1"/>
      </contour>
    </TTGlyph>
    <TTGlyph name="g" xMin="45" yMin="-199" xMax="392" yMax="518">
      <contour>
        <pt x="120" y="-199" on="0"/>
        <pt x="68" y="-190" on="1"/>
        <pt x="68" y="-123" on="1"/>
        <pt x="160" y="-127" on="0"/>
        <pt x="187" y="-127" on="1"/>
        <pt x="244" y="-127" on="0"/>
        <pt x="294" y="-101" on="0"/>
        <pt x="309" y="-33" on="0"/>
        <pt x="309" y="45" on="1"/>
        <pt x="309" y="63" on="1"/>
        <pt x="304" y="63" on="1"/>
        <pt x="291" y="27" on="0"/>
        <pt x="234" y="-4" on="0"/>
        <pt x="188" y="-4" on="1"/>
        <pt x="130" y="-4" on="0"/>
        <pt x="70" y="41" on="0"/>
        <pt x="45" y="150" on="0"/>
        <pt x="45" y="255" on="1"/>
        <pt x="45" y="362" on="0"/>
        <pt x="70" y="473" on="0"/>
        <pt x="131" y="518" on="0"/>
        <pt x="189" y="518" on="1"/>
        <pt x="232" y="518" on="0"/>
        <pt x="294" y="486" on="0"/>
        <pt x="308" y="442" on="1"/>
        <pt x="314" y="442" on="1"/>
        <pt x="318" y="510" on="1"/>
        <pt x="392" y="510" on="1"/>
        <pt x="392" y="71" on="1"/>
        <pt x="392" y="-37" on="0"/>
        <pt x="368" y="-147" on="0"/>
        <pt x="288" y="-199" on="0"/>
        <pt x="204" y="-199" on="1"/>
      </contour>
      <contour>
        <pt x="254" y="70" on="0"/>
        <pt x="292" y="97" on="0"/>
        <pt x="300" y="127" on="1"/>
        <pt x="306" y="148" on="0"/>
        <pt x="309" y="207" on="0"/>
        <pt x="309" y="256" on="1"/>
        <pt x="309" y="344" on="0"/>
        <pt x="301" y="377" on="1"/>
        <pt x="294" y="412" on="0"/>
        <pt x="255" y="441" on="0"/>
        <pt x="220" y="441" on="1"/>
        <pt x="177" y="441" on="0"/>
        <pt x="141" y="418" on="0"/>
        <pt x="129" y="345" on="0"/>
        <pt x="129" y="256" on="1"/>
        <pt x="129" y="168" on="0"/>
        <pt x="141" y="94" on="0"/>
        <pt x="177" y="70" on="0"/>
        <pt x="220" y="70" on="1"/>
      </contour>
    </TTGlyph>
    <TTGlyph name="g_tilde.loclGUA" xMin="45" yMin="-199" xMax="392" yMax="743">
      <component glyphName=".ttfautohint" x="45" y="0" flags="0x0"/>
      <component glyphName="g" x="0" y="0" flags="0x0"/>
      <component glyphName="tildecomb" x="379" y="0" flags="0x0"/>
    </TTGlyph>
    <TTGlyph name="gbreve" xMin="45" yMin="-199" xMax="392" yMax="743">
      <component glyphName=".ttfautohint" x="45" y="0" flags="0x0"/>
      <component glyphName="g" x="0" y="0" flags="0x0"/>
      <component glyphName="uni0306" x="351" y="0" flags="0x0"/>
    </TTGlyph>
    <TTGlyph name="gcaron" xMin="45" yMin="-199" xMax="392" yMax="743">
      <component glyphName=".ttfautohint" x="45" y="0" flags="0x0"/>
      <component glyphName="g" x="0" y="0" flags="0x0"/>
      <component glyphName="uni030C" x="356" y="0" flags="0x0"/>
    </TTGlyph>
    <TTGlyph name="gcircumflex" xMin="45" yMin="-199" xMax="392" yMax="743">
      <component glyphName=".ttfautohint" x="45" y="0" flags="0x0"/>
      <component glyphName="g" x="0" y="0" flags="0x0"/>
      <component glyphName="uni0302" x="355" y="0" flags="0x0"/>
    </TTGlyph>
    <TTGlyph name="gcommaaccent" xMin="45" yMin="-199" xMax="392" yMax="808">
      <component glyphName=".ttfautohint" x="45" y="0" flags="0x0"/>
      <component glyphName="g" x="0" y="0" flags="0x0"/>
      <component glyphName="uni0312" x="588" y="0" flags="0x0"/>
    </TTGlyph>
    <TTGlyph name="gdotaccent" xMin="45" yMin="-199" xMax="392" yMax="730">
      <component glyphName=".ttfautohint" x="45" y="0" flags="0x0"/>
      <component glyphName="g" x="0" y="0" flags="0x0"/>
      <component glyphName="uni0307" x="281" y="0" flags="0x0"/>
    </TTGlyph>
    <TTGlyph name="germandbls" xMin="61" yMin="0" xMax="421" yMax="750">
      <contour>
        <pt x="209" y="0" on="1"/>
        <pt x="209" y="72" on="1"/>
        <pt x="239" y="72" on="1"/>
        <pt x="287" y="72" on="0"/>
        <pt x="324" y="91" on="0"/>
        <pt x="337" y="157" on="0"/>
        <pt x="337" y="240" on="1"/>
        <pt x="337" y="308" on="0"/>
        <pt x="322" y="374" on="0"/>
        <pt x="284" y="397" on="0"/>
        <pt x="246" y="397" on="1"/>
        <pt x="226" y="397" on="1"/>
        <pt x="226" y="470" on="1"/>
        <pt x="246" y="470" on="1"/>
        <pt x="297" y="470" on="0"/>
        <pt x="331" y="515" on="0"/>
        <pt x="331" y="573" on="1"/>
        <pt x="331" y="615" on="0"/>
        <pt x="312" y="660" on="0"/>
        <pt x="272" y="678" on="0"/>
        <pt x="236" y="678" on="1"/>
        <pt x="201" y="678" on="0"/>
        <pt x="161" y="658" on="0"/>
        <pt x="143" y="603" on="0"/>
        <pt x="143" y="551" on="1"/>
        <pt x="143" y="0" on="1"/>
        <pt x="61" y="0" on="1"/>
        <pt x="61" y="553" on="1"/>
        <pt x="61" y="626" on="0"/>
        <pt x="96" y="711" on="0"/>
        <pt x="172" y="750" on="0"/>
        <pt x="238" y="750" on="1"/>
        <pt x="336" y="750" on="0"/>
        <pt x="414" y="671" on="0"/>
        <pt x="414" y="582" on="1"/>
        <pt x="414" y="515" on="0"/>
        <pt x="371" y="449" on="0"/>
        <pt x="322" y="439" on="1"/>
        <pt x="322" y="435" on="1"/>
        <pt x="374" y="424" on="0"/>
        <pt x="421" y="337" on="0"/>
        <pt x="421" y="241" on="1"/>
        <pt x="421" y="148" on="0"/>
        <pt x="396" y="47" on="0"/>
        <pt x="324" y="0" on="0"/>
        <pt x="252" y="0" on="1"/>
      </contour>
    </TTGlyph>
    <TTGlyph name="grave" xMin="7" yMin="601" xMax="149" yMax="743">
      <contour>
        <pt x="7" y="738" on="1"/>
        <pt x="7" y="743" on="1"/>
        <pt x="94" y="743" on="1"/>
        <pt x="149" y="606" on="1"/>
        <pt x="149" y="601" on="1"/>
        <pt x="85" y="601" on="1"/>
      </contour>
    </TTGlyph>
    <TTGlyph name="gravecomb" xMin="-149" yMin="601" xMax="-7" yMax="743">
      <contour>
        <pt x="-149" y="738" on="1"/>
        <pt x="-149" y="743" on="1"/>
        <pt x="-62" y="743" on="1"/>
        <pt x="-7" y="606" on="1"/>
        <pt x="-7" y="601" on="1"/>
        <pt x="-71" y="601" on="1"/>
      </contour>
    </TTGlyph>
    <TTGlyph name="gravecomb.case" xMin="-149" yMin="746" xMax="-7" yMax="888">
      <contour>
        <pt x="-149" y="883" on="1"/>
        <pt x="-149" y="888" on="1"/>
        <pt x="-62" y="888" on="1"/>
        <pt x="-7" y="751" on="1"/>
        <pt x="-7" y="746" on="1"/>
        <pt x="-71" y="746" on="1"/>
      </contour>
    </TTGlyph>
    <TTGlyph name="greater" xMin="61" yMin="65" xMax="422" yMax="440">
      <contour>
        <pt x="61" y="139" on="1"/>
        <pt x="342" y="253" on="1"/>
        <pt x="61" y="366" on="1"/>
        <pt x="61" y="440" on="1"/>
        <pt x="422" y="292" on="1"/>
        <pt x="422" y="213" on="1"/>
        <pt x="61" y="65" on="1"/>
      </contour>
    </TTGlyph>
    <TTGlyph name="greaterequal" xMin="61" yMin="29" xMax="422" yMax="561">
      <contour>
        <pt x="61" y="260" on="1"/>
        <pt x="342" y="374" on="1"/>
        <pt x="61" y="487" on="1"/>
        <pt x="61" y="561" on="1"/>
        <pt x="422" y="413" on="1"/>
        <pt x="422" y="334" on="1"/>
        <pt x="61" y="186" on="1"/>
      </contour>
      <contour>
        <pt x="62" y="100" on="1"/>
        <pt x="422" y="100" on="1"/>
        <pt x="422" y="29" on="1"/>
        <pt x="62" y="29" on="1"/>
      </contour>
    </TTGlyph>
    <TTGlyph name="guillemotleft" xMin="31" yMin="106" xMax="328" yMax="510">
      <contour>
        <pt x="31" y="307" on="1"/>
        <pt x="127" y="510" on="1"/>
        <pt x="188" y="510" on="1"/>
        <pt x="108" y="307" on="1"/>
        <pt x="188" y="106" on="1"/>
        <pt x="127" y="106" on="1"/>
      </contour>
      <contour>
        <pt x="171" y="307" on="1"/>
        <pt x="267" y="510" on="1"/>
        <pt x="328" y="510" on="1"/>
        <pt x="248" y="307" on="1"/>
        <pt x="328" y="106" on="1"/>
        <pt x="267" y="106" on="1"/>
      </contour>
    </TTGlyph>
    <TTGlyph name="guillemotright" xMin="50" yMin="106" xMax="346" yMax="510">
      <contour>
        <pt x="130" y="307" on="1"/>
        <pt x="50" y="510" on="1"/>
        <pt x="111" y="510" on="1"/>
        <pt x="207" y="307" on="1"/>
        <pt x="111" y="106" on="1"/>
        <pt x="50" y="106" on="1"/>
      </contour>
      <contour>
        <pt x="270" y="307" on="1"/>
        <pt x="190" y="510" on="1"/>
        <pt x="250" y="510" on="1"/>
        <pt x="346" y="307" on="1"/>
        <pt x="250" y="106" on="1"/>
        <pt x="190" y="106" on="1"/>
      </contour>
    </TTGlyph>
    <TTGlyph name="guilsinglleft" xMin="31" yMin="106" xMax="187" yMax="510">
      <contour>
        <pt x="31" y="307" on="1"/>
        <pt x="127" y="510" on="1"/>
        <pt x="187" y="510" on="1"/>
        <pt x="108" y="307" on="1"/>
        <pt x="187" y="106" on="1"/>
        <pt x="127" y="106" on="1"/>
      </contour>
    </TTGlyph>
    <TTGlyph name="guilsinglright" xMin="50" yMin="106" xMax="207" yMax="510">
      <contour>
        <pt x="130" y="307" on="1"/>
        <pt x="50" y="510" on="1"/>
        <pt x="111" y="510" on="1"/>
        <pt x="207" y="307" on="1"/>
        <pt x="111" y="106" on="1"/>
        <pt x="50" y="106" on="1"/>
      </contour>
    </TTGlyph>
    <TTGlyph name="h" xMin="61" yMin="0" xMax="399" yMax="743">
      <contour>
        <pt x="316" y="291" on="1"/>
        <pt x="316" y="362" on="0"/>
        <pt x="305" y="422" on="0"/>
        <pt x="272" y="441" on="0"/>
        <pt x="234" y="441" on="1"/>
        <pt x="192" y="441" on="0"/>
        <pt x="154" y="403" on="0"/>
        <pt x="144" y="334" on="0"/>
        <pt x="144" y="266" on="1"/>
        <pt x="144" y="0" on="1"/>
        <pt x="61" y="0" on="1"/>
        <pt x="61" y="743" on="1"/>
        <pt x="144" y="743" on="1"/>
        <pt x="144" y="449" on="1"/>
        <pt x="149" y="449" on="1"/>
        <pt x="162" y="482" on="0"/>
        <pt x="219" y="518" on="0"/>
        <pt x="269" y="518" on="1"/>
        <pt x="324" y="518" on="0"/>
        <pt x="379" y="478" on="0"/>
        <pt x="399" y="398" on="0"/>
        <pt x="399" y="327" on="1"/>
        <pt x="399" y="0" on="1"/>
        <pt x="316" y="0" on="1"/>
      </contour>
    </TTGlyph>
    <TTGlyph name="hbar" xMin="9" yMin="0" xMax="399" yMax="743">
      <contour>
        <pt x="324" y="518" on="0"/>
        <pt x="379" y="478" on="0"/>
        <pt x="399" y="398" on="0"/>
        <pt x="399" y="327" on="1"/>
        <pt x="399" y="0" on="1"/>
        <pt x="316" y="0" on="1"/>
        <pt x="316" y="291" on="1"/>
        <pt x="316" y="362" on="0"/>
        <pt x="305" y="422" on="0"/>
        <pt x="272" y="441" on="0"/>
        <pt x="234" y="441" on="1"/>
        <pt x="192" y="441" on="0"/>
        <pt x="154" y="403" on="0"/>
        <pt x="144" y="334" on="0"/>
        <pt x="144" y="266" on="1"/>
        <pt x="144" y="0" on="1"/>
        <pt x="61" y="0" on="1"/>
        <pt x="61" y="616" on="1"/>
        <pt x="9" y="616" on="1"/>
        <pt x="9" y="688" on="1"/>
        <pt x="61" y="688" on="1"/>
        <pt x="61" y="743" on="1"/>
        <pt x="144" y="743" on="1"/>
        <pt x="144" y="688" on="1"/>
        <pt x="253" y="688" on="1"/>
        <pt x="253" y="616" on="1"/>
        <pt x="144" y="616" on="1"/>
        <pt x="144" y="449" on="1"/>
        <pt x="149" y="449" on="1"/>
        <pt x="162" y="482" on="0"/>
        <pt x="219" y="518" on="0"/>
        <pt x="269" y="518" on="1"/>
      </contour>
    </TTGlyph>
    <TTGlyph name="hcircumflex" xMin="-19" yMin="0" xMax="399" yMax="921">
      <component glyphName=".ttfautohint" x="0" y="0" flags="0x0"/>
      <component glyphName="h" x="0" y="0" flags="0x0"/>
      <component glyphName="uni0302" x="231" y="178" flags="0x4"/>
    </TTGlyph>
    <TTGlyph name="hookabovecomb" xMin="-224" yMin="609" xMax="-20" yMax="803">
      <contour>
        <pt x="-172" y="622" on="1"/>
        <pt x="-172" y="648" on="0"/>
        <pt x="-155" y="667" on="0"/>
        <pt x="-131" y="676" on="1"/>
        <pt x="-117" y="682" on="1"/>
        <pt x="-96" y="690" on="0"/>
        <pt x="-81" y="704" on="0"/>
        <pt x="-81" y="718" on="1"/>
        <pt x="-81" y="735" on="0"/>
        <pt x="-101" y="745" on="0"/>
        <pt x="-134" y="745" on="1"/>
        <pt x="-171" y="745" on="0"/>
        <pt x="-224" y="740" on="1"/>
        <pt x="-224" y="794" on="1"/>
        <pt x="-161" y="803" on="0"/>
        <pt x="-130" y="803" on="1"/>
        <pt x="-72" y="803" on="0"/>
        <pt x="-20" y="767" on="0"/>
        <pt x="-20" y="724" on="1"/>
        <pt x="-20" y="694" on="0"/>
        <pt x="-38" y="661" on="0"/>
        <pt x="-66" y="650" on="1"/>
        <pt x="-83" y="643" on="1"/>
        <pt x="-107" y="633" on="0"/>
        <pt x="-117" y="623" on="0"/>
        <pt x="-117" y="609" on="1"/>
        <pt x="-172" y="609" on="1"/>
      </contour>
    </TTGlyph>
    <TTGlyph name="hookabovecomb.case" xMin="-224" yMin="730" xMax="-20" yMax="923">
      <contour>
        <pt x="-172" y="743" on="1"/>
        <pt x="-172" y="768" on="0"/>
        <pt x="-155" y="788" on="0"/>
        <pt x="-131" y="797" on="1"/>
        <pt x="-117" y="802" on="1"/>
        <pt x="-96" y="811" on="0"/>
        <pt x="-81" y="824" on="0"/>
        <pt x="-81" y="838" on="1"/>
        <pt x="-81" y="855" on="0"/>
        <pt x="-101" y="866" on="0"/>
        <pt x="-134" y="866" on="1"/>
        <pt x="-176" y="866" on="0"/>
        <pt x="-224" y="860" on="1"/>
        <pt x="-224" y="914" on="1"/>
        <pt x="-161" y="923" on="0"/>
        <pt x="-130" y="923" on="1"/>
        <pt x="-72" y="923" on="0"/>
        <pt x="-20" y="887" on="0"/>
        <pt x="-20" y="844" on="1"/>
        <pt x="-20" y="814" on="0"/>
        <pt x="-38" y="782" on="0"/>
        <pt x="-66" y="770" on="1"/>
        <pt x="-83" y="763" on="1"/>
        <pt x="-107" y="754" on="0"/>
        <pt x="-117" y="744" on="0"/>
        <pt x="-117" y="730" on="1"/>
        <pt x="-172" y="730" on="1"/>
      </contour>
    </TTGlyph>
    <TTGlyph name="house" xMin="32" yMin="0" xMax="501" yMax="697">
      <contour>
        <pt x="32" y="378" on="1"/>
        <pt x="232" y="697" on="1"/>
        <pt x="301" y="697" on="1"/>
        <pt x="501" y="378" on="1"/>
        <pt x="501" y="0" on="1"/>
        <pt x="32" y="0" on="1"/>
      </contour>
      <contour>
        <pt x="426" y="64" on="1"/>
        <pt x="427" y="364" on="1"/>
        <pt x="267" y="621" on="1"/>
        <pt x="107" y="364" on="1"/>
        <pt x="107" y="64" on="1"/>
      </contour>
    </TTGlyph>
    <TTGlyph name="hungarumlaut" xMin="17" yMin="609" xMax="280" yMax="733">
      <contour>
        <pt x="17" y="614" on="1"/>
        <pt x="67" y="733" on="1"/>
        <pt x="142" y="733" on="1"/>
        <pt x="142" y="729" on="1"/>
        <pt x="71" y="609" on="1"/>
        <pt x="17" y="609" on="1"/>
      </contour>
      <contour>
        <pt x="155" y="614" on="1"/>
        <pt x="205" y="733" on="1"/>
        <pt x="280" y="733" on="1"/>
        <pt x="280" y="729" on="1"/>
        <pt x="209" y="609" on="1"/>
        <pt x="155" y="609" on="1"/>
      </contour>
    </TTGlyph>
    <TTGlyph name="hyphen" xMin="55" yMin="247" xMax="254" yMax="324">
      <contour>
        <pt x="55" y="324" on="1"/>
        <pt x="254" y="324" on="1"/>
        <pt x="254" y="247" on="1"/>
        <pt x="55" y="247" on="1"/>
      </contour>
    </TTGlyph>
    <TTGlyph name="i" xMin="59" yMin="0" xMax="145" yMax="743">
      <contour>
        <pt x="59" y="743" on="1"/>
        <pt x="145" y="743" on="1"/>
        <pt x="145" y="650" on="1"/>
        <pt x="59" y="650" on="1"/>
      </contour>
      <contour>
        <pt x="61" y="510" on="1"/>
        <pt x="144" y="510" on="1"/>
        <pt x="144" y="0" on="1"/>
        <pt x="61" y="0" on="1"/>
      </contour>
    </TTGlyph>
    <TTGlyph name="i.loclTRK" xMin="61" yMin="0" xMax="144" yMax="730">
      <component glyphName=".ttfautohint" x="61" y="0" flags="0x0"/>
      <component glyphName="dotlessi" x="0" y="0" flags="0x0"/>
      <component glyphName="uni0307" x="156" y="0" flags="0x0"/>
    </TTGlyph>
    <TTGlyph name="iacute" xMin="61" yMin="0" xMax="204" yMax="743">
      <component glyphName=".ttfautohint" x="61" y="0" flags="0x0"/>
      <component glyphName="dotlessi" x="0" y="0" flags="0x0"/>
      <component glyphName="acute" x="55" y="0" flags="0x0"/>
    </TTGlyph>
    <TTGlyph name="iacute_j.loclNLD" xMin="61" yMin="-193" xMax="410" yMax="743">
      <component glyphName=".ttfautohint" x="61" y="0" flags="0x0"/>
      <component glyphName="dotlessi" x="0" y="0" flags="0x0"/>
      <component glyphName="acutecomb" x="213" y="0" flags="0x0"/>
      <component glyphName="uni0237" x="204" y="0" flags="0x0"/>
      <component glyphName="acutecomb" x="417" y="0" flags="0x0"/>
    </TTGlyph>
</ttFont>
